<?xml version="1.0" standalone="no"?>
<!DOCTYPE svg PUBLIC "-//W3C//DTD SVG 20010904//EN"
 "http://www.w3.org/TR/2001/REC-SVG-20010904/DTD/svg10.dtd">
<svg version="1.0" xmlns="http://www.w3.org/2000/svg"
 width="784.000000pt" height="784.000000pt" viewBox="0 0 784.000000 784.000000"
 preserveAspectRatio="xMidYMid meet">
<metadata>
Created by potrace 1.14, written by Peter Selinger 2001-2017
</metadata>
<g transform="translate(0.000000,784.000000) scale(0.100000,-0.100000)"
fill="#000000" stroke="none">
<path d="M1295 6480 c3 -5 -1 -10 -11 -10 -12 0 -14 -3 -6 -13 9 -10 6 -17 -8
-30 -11 -9 -20 -26 -20 -37 0 -14 -4 -19 -12 -14 -7 4 -8 3 -4 -5 4 -6 12 -9
17 -6 16 11 10 -7 -8 -22 -10 -8 -12 -12 -5 -8 14 7 17 -11 2 -20 -6 -4 -7
-12 -3 -18 13 -21 10 -47 -6 -47 -13 -1 -12 -4 4 -17 18 -14 19 -15 1 -9 -15
5 -17 4 -7 -8 9 -11 9 -17 -1 -27 -17 -18 -16 -45 1 -41 7 1 10 -2 6 -8 -3 -6
-11 -8 -16 -5 -5 4 -9 -8 -9 -25 0 -21 4 -29 12 -24 7 4 8 3 4 -4 -4 -7 -15
-12 -24 -12 -16 -1 -16 -1 0 -11 19 -10 13 -43 -6 -32 -6 3 -6 1 2 -8 14 -15
17 -33 4 -25 -5 3 -9 -1 -9 -9 0 -8 4 -12 8 -10 4 3 9 -2 12 -10 4 -10 1 -12
-11 -8 -15 6 -15 5 -3 -10 7 -9 10 -17 6 -17 -4 0 -1 -7 6 -17 13 -15 12 -15
-6 -5 -17 9 -21 7 -21 -8 0 -10 3 -17 7 -14 4 2 5 -6 1 -18 -4 -16 -2 -19 8
-13 9 5 11 4 6 -4 -4 -6 -11 -9 -16 -6 -15 9 -18 -34 -3 -55 15 -21 15 -22 -8
-15 -13 3 -19 3 -14 -2 6 -4 10 -15 10 -23 0 -8 4 -18 10 -22 6 -5 4 -8 -4 -8
-11 0 -10 -4 4 -13 14 -11 15 -16 5 -22 -9 -5 -11 -4 -6 3 4 7 3 12 -2 12 -17
0 -22 -41 -6 -47 12 -4 12 -8 -3 -19 -17 -13 -17 -14 0 -8 13 5 16 2 11 -10
-3 -9 -9 -14 -14 -11 -4 2 -5 -7 -2 -20 2 -14 8 -23 11 -20 4 2 8 -2 8 -9 0
-8 -5 -12 -11 -10 -7 3 -13 -7 -14 -21 -1 -16 2 -24 8 -20 6 4 7 11 4 17 -4 7
-2 8 5 4 9 -6 9 -11 1 -21 -6 -7 -9 -25 -6 -39 3 -15 1 -24 -5 -21 -12 8 -12
-2 1 -26 8 -13 7 -19 0 -19 -6 0 -8 -4 -5 -10 3 -5 8 -20 10 -31 4 -21 4 -21
-18 -3 -14 12 -17 13 -9 3 6 -9 9 -19 5 -22 -3 -4 2 -7 11 -7 17 0 17 -1 1
-26 -13 -20 -14 -29 -5 -38 8 -8 9 -6 4 9 -4 11 -4 17 0 13 4 -4 9 -20 10 -36
1 -21 -2 -28 -11 -25 -19 7 -16 -7 5 -24 16 -14 16 -14 0 -9 -20 6 -25 -10 -5
-17 9 -3 9 -7 -1 -19 -10 -13 -10 -18 -1 -24 8 -5 9 -3 4 6 -6 9 -4 11 4 6 9
-6 9 -12 -3 -25 -9 -10 -16 -22 -16 -27 0 -5 5 -2 10 6 6 9 10 10 10 3 0 -7
-8 -17 -17 -22 -10 -6 -13 -11 -7 -11 7 0 14 -11 16 -25 3 -13 1 -22 -3 -19
-5 3 -9 0 -9 -5 0 -6 4 -11 8 -11 5 0 9 -14 10 -30 0 -17 -4 -28 -9 -25 -5 4
-9 1 -9 -4 0 -6 6 -11 13 -11 8 0 7 -4 -3 -10 -13 -8 -13 -10 -1 -10 11 0 9
-4 -5 -14 -18 -14 -18 -14 0 -13 11 1 20 -5 21 -16 2 -9 -1 -15 -6 -11 -5 3
-6 11 -3 17 4 7 3 8 -2 4 -5 -5 -9 -12 -9 -15 0 -4 -3 -12 -7 -17 -4 -6 -2
-17 4 -25 8 -12 9 -12 4 3 -3 9 -2 17 3 17 5 0 11 -9 14 -20 3 -10 0 -18 -5
-17 -6 1 -13 -4 -16 -12 -3 -10 0 -12 14 -7 15 6 16 5 7 -5 -9 -9 -9 -18 -2
-31 10 -18 9 -18 -11 -8 -18 10 -21 10 -14 -1 5 -8 8 -23 9 -34 0 -11 6 -19
13 -17 8 1 11 -2 7 -8 -4 -6 -14 -9 -24 -6 -14 5 -14 4 1 -7 10 -8 15 -17 11
-20 -3 -4 0 -7 7 -7 9 0 7 -5 -6 -16 -10 -8 -14 -13 -7 -10 6 4 14 2 18 -4 3
-5 -1 -10 -9 -10 -8 0 -17 -4 -21 -9 -3 -6 3 -8 14 -6 13 2 18 -1 16 -13 -2
-9 -4 -23 -4 -30 -1 -8 -6 -10 -13 -6 -7 4 -5 -2 5 -13 16 -18 16 -22 2 -33
-10 -8 -15 -9 -15 -1 0 6 5 11 12 11 6 0 8 3 5 6 -10 10 -38 -17 -30 -29 3 -6
1 -7 -6 -3 -6 4 -9 12 -6 17 4 5 1 9 -5 9 -6 0 -8 5 -4 12 4 7 3 8 -5 4 -6 -4
-9 -12 -6 -17 4 -5 1 -9 -4 -9 -6 0 -11 8 -11 18 0 13 -2 14 -9 3 -7 -11 -9
-11 -14 0 -4 11 -6 11 -6 0 -1 -11 -5 -10 -17 5 -8 10 -13 14 -10 7 4 -6 2
-14 -4 -18 -5 -3 -10 -1 -10 5 0 7 -7 10 -15 7 -8 -4 -17 -1 -21 5 -4 7 -9 6
-15 -3 -8 -12 -10 -12 -18 0 -7 11 -9 11 -14 0 -4 -10 -6 -10 -6 -1 -1 6 -6
12 -13 12 -6 0 -21 8 -32 18 -20 16 -20 16 -7 -1 8 -9 11 -20 7 -24 -3 -4 -13
2 -21 13 -8 10 -15 15 -15 9 0 -5 -5 -3 -11 5 -9 13 -10 13 -6 0 2 -8 10 -14
16 -12 7 1 10 -2 6 -8 -5 -8 -11 -8 -19 -1 -7 6 -16 8 -20 4 -4 -4 -4 0 0 10
5 13 2 16 -10 11 -9 -3 -13 -10 -10 -15 3 -5 -2 -6 -10 -3 -9 3 -14 9 -11 13
2 4 -3 8 -11 8 -8 0 -13 -6 -10 -13 3 -8 0 -11 -9 -7 -8 3 -12 10 -9 15 4 6
-3 5 -15 -2 -18 -9 -26 -9 -39 2 -11 9 -14 10 -8 1 4 -7 2 -13 -3 -13 -6 0
-11 6 -11 13 0 8 -4 7 -11 -3 -8 -11 -12 -12 -16 -3 -3 10 -9 9 -21 -3 -14
-15 -17 -15 -30 2 -14 18 -14 18 -10 -2 5 -18 2 -21 -15 -16 -15 4 -18 2 -12
-8 6 -9 4 -11 -4 -6 -9 6 -8 13 6 29 15 18 15 19 1 9 -9 -7 -31 -14 -48 -14
-20 -1 -27 -4 -18 -9 10 -7 10 -11 -1 -21 -8 -7 -11 -8 -8 -2 4 7 0 14 -8 18
-8 3 -15 1 -15 -4 0 -5 -7 -6 -17 -3 -12 5 -14 3 -8 -8 6 -11 5 -12 -6 -1 -7
6 -17 12 -22 12 -4 0 -5 -6 -1 -12 5 -9 2 -9 -9 1 -12 9 -17 10 -17 2 0 -7 -4
-10 -9 -7 -5 3 -12 -1 -15 -10 -5 -12 -2 -15 10 -10 13 5 14 4 6 -7 -15 -18
-3 -30 15 -15 11 8 12 7 7 -6 -7 -19 21 -23 30 -3 3 6 3 0 1 -15 -3 -21 0 -26
12 -21 12 5 14 3 8 -6 -5 -10 -2 -11 13 -7 17 6 20 3 18 -17 -2 -19 1 -23 14
-20 10 3 21 -1 25 -8 6 -8 4 -10 -6 -4 -8 5 -11 4 -6 -1 12 -12 30 -12 40 1 5
5 5 0 2 -12 -5 -17 -2 -23 9 -23 9 0 16 -4 16 -9 0 -5 9 -13 20 -16 12 -4 17
-11 13 -18 -4 -7 0 -7 10 1 14 12 16 11 12 -7 -2 -14 1 -18 11 -14 7 3 11 10
7 16 -3 6 -1 7 6 3 9 -6 9 -11 -1 -24 -10 -12 -10 -14 -1 -8 9 5 13 1 13 -11
0 -15 2 -16 10 -3 8 12 10 11 10 -6 0 -14 8 -24 21 -27 14 -4 20 -11 16 -20
-4 -10 1 -14 16 -13 16 1 23 -6 25 -22 2 -14 9 -22 19 -20 9 2 18 -4 20 -12 4
-13 3 -13 -6 0 -8 11 -11 11 -11 2 0 -14 40 -33 54 -24 5 3 6 0 3 -6 -10 -15
4 -44 18 -38 19 7 27 -5 13 -21 -6 -7 -8 -16 -4 -20 3 -3 6 0 6 7 0 8 8 3 20
-10 23 -26 25 -40 8 -40 -7 0 -5 -5 5 -11 9 -6 14 -15 11 -21 -4 -7 -2 -8 5
-4 9 6 9 11 1 21 -8 10 -8 15 1 21 7 4 9 3 5 -4 -3 -6 -2 -13 4 -17 6 -4 8
-10 5 -15 -3 -5 -1 -12 5 -15 8 -5 7 -12 -2 -23 -8 -12 -5 -11 10 2 19 17 22
17 16 3 -7 -18 19 -50 32 -39 5 4 3 0 -4 -9 -10 -13 -9 -19 3 -29 8 -7 12 -17
8 -23 -3 -6 -1 -7 5 -3 7 4 20 2 29 -4 17 -11 17 -11 1 -6 -23 7 -24 -10 -2
-18 9 -4 14 -9 11 -12 -9 -9 25 -44 36 -37 6 3 7 1 3 -6 -4 -6 -13 -8 -19 -4
-9 5 -9 3 -1 -8 6 -8 10 -22 9 -31 -2 -10 1 -20 5 -23 5 -3 7 4 5 15 -2 11 0
20 6 20 9 0 13 -21 10 -47 -1 -7 3 -13 10 -13 6 0 9 -8 6 -20 -5 -19 7 -28 16
-12 2 4 2 2 1 -5 -2 -7 2 -15 8 -19 7 -4 6 -9 -3 -15 -11 -7 -10 -9 3 -9 12 0
15 -5 11 -17 -5 -12 -3 -14 8 -9 8 4 5 0 -6 -9 -20 -17 -20 -17 1 -11 16 5 23
0 32 -18 7 -16 8 -27 1 -31 -13 -9 0 -27 14 -19 7 3 3 -2 -7 -10 -23 -19 -14
-21 17 -4 20 10 21 9 9 -5 -11 -13 -10 -16 5 -20 13 -3 11 -5 -7 -6 -22 -1
-23 -3 -7 -12 10 -6 14 -15 10 -22 -4 -7 2 -5 12 3 17 14 18 14 5 -9 -10 -20
-10 -23 2 -18 8 3 15 -1 15 -9 0 -7 -5 -10 -11 -7 -6 4 -5 -1 3 -10 7 -9 18
-14 24 -10 6 3 7 1 3 -6 -4 -6 -12 -9 -17 -6 -5 4 -9 1 -9 -4 0 -6 5 -12 10
-12 6 -1 14 -2 19 -3 5 0 13 -5 18 -10 5 -5 3 -6 -4 -2 -8 4 -13 1 -13 -8 0
-9 6 -16 13 -16 8 0 7 -4 -3 -10 -11 -7 -11 -10 -2 -10 7 0 10 -4 7 -10 -3 -5
2 -10 12 -10 15 0 15 -2 3 -9 -8 -6 -18 -7 -22 -5 -4 3 -5 -3 -1 -12 4 -11 8
-13 11 -6 2 7 11 12 20 12 12 0 13 -3 5 -8 -8 -5 -9 -13 -3 -22 13 -20 13 -33
0 -25 -6 3 -7 -1 -4 -9 3 -9 11 -13 18 -9 6 4 5 -1 -3 -10 -14 -18 -2 -24 15
-7 7 7 11 6 11 -4 0 -8 -4 -13 -9 -10 -4 3 -8 0 -8 -5 0 -6 5 -11 11 -11 5 0
9 -8 8 -17 -3 -32 1 -44 11 -38 6 3 10 1 10 -4 0 -6 -5 -11 -12 -11 -6 0 -3
-6 7 -14 11 -8 24 -12 29 -9 5 4 6 1 2 -6 -4 -6 -12 -9 -17 -6 -5 4 -9 1 -9
-4 0 -6 5 -11 11 -11 5 0 7 -4 4 -10 -3 -5 3 -17 14 -26 11 -10 17 -24 13 -32
-4 -11 -2 -13 8 -7 9 6 11 4 5 -5 -9 -15 -16 -65 -8 -56 7 7 33 -19 33 -34 0
-6 3 -9 8 -7 4 3 8 -9 9 -26 2 -18 7 -33 13 -35 5 -2 10 -15 10 -28 0 -17 4
-23 13 -18 10 6 10 4 0 -7 -16 -16 -17 -29 -2 -29 5 0 7 6 3 13 -5 8 -2 7 9
-2 10 -7 17 -19 16 -25 -4 -35 2 -57 14 -50 8 5 7 2 -2 -9 -8 -10 -11 -20 -7
-24 3 -3 6 -1 6 5 0 6 7 9 16 5 13 -5 13 -7 2 -14 -11 -7 -11 -9 1 -9 10 0 11
-3 2 -14 -9 -10 -7 -17 6 -27 11 -9 14 -10 9 -1 -4 6 -2 12 3 12 6 0 11 -9 11
-21 0 -11 5 -17 10 -14 6 4 9 3 8 -2 -1 -4 4 -19 11 -32 7 -13 11 -34 8 -47
-3 -20 -1 -22 14 -14 23 13 29 12 29 -1 0 -5 -4 -7 -10 -4 -5 3 -10 1 -10 -4
0 -6 4 -11 8 -11 5 0 15 -11 22 -25 7 -13 18 -21 24 -18 6 4 5 -1 -3 -10 -9
-12 -10 -17 -2 -17 7 0 10 -4 6 -9 -3 -5 0 -15 7 -23 28 -29 43 -52 30 -44
-11 7 -12 4 -3 -13 11 -19 23 -25 43 -22 4 0 5 -8 3 -19 -2 -12 2 -20 10 -20
8 0 19 -9 25 -20 9 -16 8 -18 -5 -14 -8 3 -12 10 -9 15 3 5 0 9 -5 9 -23 0 -9
-22 22 -35 24 -11 27 -15 12 -15 -16 -1 -15 -3 7 -11 14 -6 29 -18 33 -27 5
-14 4 -15 -6 -4 -7 6 -17 12 -21 12 -5 0 12 -20 37 -45 25 -25 45 -50 45 -55
0 -19 2 -25 12 -37 6 -7 16 -13 22 -12 7 0 6 2 -1 6 -7 2 -13 9 -13 15 0 7 5
6 14 -1 8 -7 13 -23 11 -37 -1 -13 0 -22 3 -19 3 2 11 -3 19 -13 8 -9 12 -12
9 -5 -4 6 -1 15 6 19 7 4 10 4 6 -1 -4 -4 -3 -17 3 -28 9 -15 8 -18 -2 -12 -8
5 -10 4 -5 -3 4 -7 13 -12 20 -12 18 0 61 -52 58 -69 -2 -8 2 -12 11 -8 11 4
13 0 10 -14 -3 -11 -2 -19 3 -18 19 3 34 -1 34 -11 0 -5 -6 -8 -12 -7 -7 2 -3
-1 10 -7 12 -5 22 -14 22 -19 0 -4 -5 -5 -12 -1 -7 4 -8 3 -4 -5 6 -9 11 -9
24 1 14 12 14 10 3 -10 -12 -22 -11 -23 8 -12 17 8 21 8 19 -2 -2 -7 2 -12 9
-11 7 2 10 -4 6 -12 -5 -13 -7 -13 -20 2 -13 16 -13 16 -3 -4 6 -13 16 -22 23
-20 7 1 11 -4 9 -11 -1 -8 2 -10 8 -7 18 11 52 -25 39 -41 -11 -14 6 -15 28
-1 7 5 9 1 6 -13 -4 -14 0 -20 11 -20 10 0 15 -3 13 -8 -3 -4 1 -13 9 -20 8
-7 14 -10 14 -7 0 3 6 0 14 -7 8 -7 14 -15 14 -18 -1 -20 3 -30 11 -26 5 4 11
1 13 -4 2 -6 13 -12 25 -13 18 -1 20 -4 11 -20 -7 -14 -7 -17 1 -13 6 4 14 0
17 -9 5 -13 9 -13 22 -3 13 11 14 10 4 -8 -13 -25 2 -46 26 -36 11 4 14 1 9
-11 -3 -9 -2 -17 3 -17 5 0 11 8 13 18 4 13 5 11 6 -5 0 -13 6 -23 12 -23 5 0
8 -4 4 -9 -3 -5 -1 -12 5 -16 6 -4 7 -11 4 -17 -5 -7 -2 -8 7 -2 8 4 23 10 34
11 15 3 17 1 8 -8 -10 -10 -8 -16 9 -31 27 -23 35 -23 17 0 -13 15 -12 16 4 3
10 -8 16 -20 13 -28 -5 -11 -1 -11 15 -2 13 6 19 7 15 1 -3 -6 -3 -12 1 -15 5
-2 2 -2 -5 0 -7 1 -10 -2 -7 -7 3 -6 15 -10 26 -10 10 0 19 -5 19 -11 0 -5 -5
-7 -12 -3 -7 4 -8 3 -4 -4 4 -6 13 -9 20 -6 8 3 16 -4 19 -15 3 -12 11 -21 19
-21 10 0 9 3 -2 10 -8 5 -10 10 -4 10 6 0 18 -8 25 -17 8 -10 9 -14 2 -10 -6
4 -14 3 -17 -2 -4 -6 7 -8 24 -6 24 3 30 0 30 -15 0 -22 9 -29 43 -32 14 -1
23 -6 21 -10 -3 -5 -11 -5 -17 -1 -7 4 -6 -1 2 -10 11 -14 17 -15 30 -5 9 7
13 9 9 4 -4 -5 0 -15 8 -23 8 -8 12 -18 10 -21 -2 -4 7 -7 20 -7 13 0 24 3 24
8 0 4 7 7 16 7 12 0 11 -5 -7 -20 -14 -11 -18 -19 -11 -20 7 0 11 -4 8 -8 -3
-5 1 -9 9 -9 8 0 15 4 15 9 0 5 5 6 11 2 8 -5 8 -1 0 13 -6 11 -8 23 -4 26 3
3 -10 14 -30 23 -27 13 -34 22 -32 40 2 21 0 22 -13 12 -13 -11 -15 -10 -10 7
4 15 0 21 -13 21 -11 0 -19 -5 -19 -10 0 -5 -3 -6 -6 -3 -4 4 -2 13 4 20 9 11
6 19 -15 38 -14 13 -23 18 -19 12 4 -7 2 -13 -3 -13 -6 0 -11 10 -11 21 0 19
-2 20 -17 8 -15 -13 -15 -12 -4 10 8 14 9 21 2 17 -6 -4 -19 -2 -28 4 -16 10
-16 11 2 6 19 -6 19 -5 2 8 -14 10 -15 15 -5 19 7 3 2 6 -11 6 -19 1 -21 4
-12 15 10 12 8 13 -11 8 -20 -5 -21 -3 -10 10 11 14 10 16 -10 12 -13 -2 -17
-2 -10 2 6 3 12 10 12 15 0 6 -5 7 -10 4 -8 -5 -14 12 -12 36 0 3 -13 4 -29 3
-26 -2 -28 0 -17 14 10 12 10 16 0 19 -6 3 -9 10 -5 16 4 7 -2 5 -12 -3 -10
-8 -16 -10 -12 -3 4 6 -1 18 -10 25 -10 7 -18 24 -18 37 0 14 -6 26 -13 29 -8
2 -10 -3 -6 -15 6 -16 5 -16 -9 2 -8 10 -12 25 -9 33 4 11 -1 13 -19 7 -21 -6
-22 -6 -7 6 20 16 9 36 -32 57 -14 7 -17 10 -8 8 10 -3 20 0 24 6 4 7 3 8 -4
4 -7 -4 -12 -2 -12 4 0 6 -4 8 -10 5 -5 -3 -10 1 -10 9 0 9 -5 16 -11 16 -8 0
-8 4 0 14 10 12 8 14 -11 10 -13 -2 -18 -2 -11 2 10 4 10 8 0 19 -7 7 -16 11
-21 8 -4 -3 -5 5 -1 18 7 21 6 22 -9 10 -14 -12 -16 -12 -11 1 4 9 -1 22 -9
31 -9 9 -16 23 -16 31 0 9 -5 16 -11 16 -5 0 -7 -5 -3 -12 4 -6 3 -8 -4 -5 -5
4 -9 15 -8 25 2 9 -2 20 -8 25 -8 5 -6 10 4 18 13 9 13 10 -1 6 -9 -3 -22 -1
-30 4 -12 7 -12 9 1 9 12 1 11 3 -2 11 -10 5 -18 19 -18 30 0 29 -19 61 -31
53 -7 -4 -7 1 0 15 8 14 8 21 1 21 -5 0 -10 -6 -10 -12 0 -9 -3 -8 -10 2 -6 9
-5 20 3 30 6 8 8 12 3 8 -13 -10 -58 34 -46 46 17 17 11 29 -7 15 -14 -12 -16
-12 -8 0 5 9 2 19 -11 28 -20 15 -25 44 -9 55 6 5 3 8 -7 8 -12 0 -15 5 -11
17 4 9 2 14 -3 10 -6 -3 -16 -2 -24 4 -13 7 -12 9 2 9 11 0 15 5 12 15 -4 8
-10 12 -15 9 -5 -3 -6 2 -3 11 4 9 3 15 -2 14 -21 -3 -28 2 -14 11 12 7 11 12
-5 30 -20 22 -30 54 -14 44 16 -10 9 9 -8 21 -11 8 -18 28 -19 56 -1 24 -2 48
-3 52 -1 5 -11 5 -23 2 -17 -5 -19 -4 -9 4 12 8 12 12 2 25 -11 13 -11 19 -1
31 10 12 10 15 0 15 -7 0 -10 8 -7 20 3 13 0 20 -8 20 -8 0 -17 4 -20 10 -3 6
1 7 9 4 9 -3 16 -2 16 4 0 5 -7 12 -15 16 -16 6 -16 26 0 38 6 5 5 8 -2 8 -7
0 -10 7 -6 17 5 12 3 14 -7 8 -10 -6 -12 -4 -6 10 4 10 0 28 -11 44 -16 25
-16 25 1 12 15 -13 17 -12 12 12 -2 14 1 28 7 31 7 3 2 3 -10 1 -12 -3 -25 0
-29 6 -4 7 -3 9 4 5 6 -3 13 -2 17 4 3 5 2 10 -3 10 -15 0 -21 37 -8 51 8 9 8
10 -2 5 -10 -6 -11 -1 -6 18 3 15 2 26 -4 26 -15 0 -23 28 -10 36 6 4 8 3 4
-4 -3 -6 -1 -14 5 -18 8 -4 9 -3 5 4 -4 7 -1 12 6 12 8 0 6 5 -4 11 -10 5 -18
21 -18 35 0 14 4 23 8 20 5 -3 9 1 9 9 0 8 -3 12 -7 10 -3 -2 -12 0 -20 6 -12
7 -11 9 5 9 16 0 17 2 5 9 -8 6 -19 7 -25 3 -5 -3 -4 2 4 11 7 9 17 15 21 12
5 -3 12 0 16 7 4 7 4 10 -1 6 -4 -4 -15 -2 -23 5 -13 10 -14 9 -7 -2 5 -10 4
-12 -4 -7 -6 4 -8 12 -4 19 10 16 4 89 -8 104 -6 7 -8 16 -5 21 9 15 15 63 7
57 -5 -2 -8 7 -8 22 0 15 -5 29 -11 31 -8 2 -8 9 0 22 9 14 9 22 -3 36 -9 11
-9 15 -1 10 6 -4 12 -2 12 3 0 6 -6 11 -12 11 -10 0 -9 3 1 9 11 7 11 9 0 14
-9 4 -7 6 6 7 l20 1 -20 9 c-11 5 -14 9 -6 9 11 1 11 4 0 18 -10 11 -10 14 -1
9 6 -4 12 -2 12 3 0 6 -4 11 -9 11 -5 0 -8 11 -7 24 0 13 4 22 9 19 4 -2 7 0
7 6 0 5 -6 12 -12 14 -10 4 -9 8 2 16 13 10 13 11 0 11 -13 0 -13 1 0 10 13 9
13 10 0 10 -13 0 -13 1 0 10 14 9 7 14 -15 11 -5 -1 -1 6 9 14 11 8 15 15 9
15 -6 0 -10 11 -10 25 0 13 3 22 8 19 5 -3 6 2 3 11 -5 13 -9 13 -23 3 -14
-11 -14 -11 -5 2 7 8 12 28 12 44 0 15 5 32 12 36 8 5 7 9 -5 13 -10 5 -14 3
-9 -5 5 -7 3 -8 -6 -3 -10 6 -9 11 5 22 17 12 18 13 1 13 -9 0 -14 5 -11 10 4
6 10 8 15 5 5 -3 11 -1 14 4 4 5 2 12 -4 16 -5 3 -10 17 -10 31 0 13 -4 24
-10 24 -5 0 -10 4 -10 10 0 5 8 7 18 4 14 -5 14 -3 -2 10 -20 16 -20 16 0 17
16 0 16 2 -4 10 -19 7 -23 29 -6 29 3 0 3 -4 0 -8 -2 -4 5 -8 16 -8 20 0 20 0
-1 14 -25 17 -26 27 -7 64 11 21 11 26 1 22 -7 -3 -16 0 -21 7 -4 7 -3 10 4 5
6 -3 13 -2 17 4 3 5 2 10 -3 10 -6 0 -13 7 -16 16 -6 15 -4 15 10 3 16 -13 16
-12 5 9 -6 12 -17 22 -22 22 -6 0 -1 9 12 21 13 11 18 18 12 14 -8 -4 -13 0
-13 10 0 9 4 14 8 11 5 -3 9 1 9 9 0 8 -4 12 -8 10 -12 -8 -17 33 -5 46 8 9 8
10 -1 5 -6 -3 -15 -1 -19 5 -4 8 -3 9 4 5 15 -9 15 -1 2 24 -8 16 -8 18 5 14
8 -3 13 -10 10 -14 -3 -5 -2 -11 3 -14 4 -2 8 11 8 30 0 19 -4 34 -9 34 -5 0
-7 -7 -3 -15 8 -22 -2 -18 -15 6 -8 15 -8 19 0 15 6 -4 11 -3 11 3 0 5 -5 13
-11 17 -8 5 -6 10 5 16 9 5 13 14 9 20 -3 7 -7 25 -8 40 -1 23 2 28 14 23 9
-4 6 5 -9 21 -23 25 -23 26 -3 15 17 -9 21 -8 19 4 -1 8 -6 18 -11 22 -4 5 -4
1 0 -7 8 -13 7 -13 -8 -1 -19 15 -23 26 -5 15 8 -5 9 -2 5 10 -4 9 -3 14 2 11
5 -3 13 0 17 6 4 8 3 9 -4 5 -7 -4 -12 -2 -12 4 0 6 -4 9 -8 6 -5 -3 -9 1 -9
9 0 10 4 12 12 5 9 -8 14 -6 19 5 3 9 2 13 -4 10 -8 -5 -14 8 -8 18 1 1 -4 13
-11 26 -10 19 -10 22 0 16 9 -6 11 -2 7 13 -5 16 -2 22 10 22 14 0 15 2 2 9
-8 6 -18 7 -24 4 -5 -3 -6 -1 -2 6 4 6 11 9 16 6 5 -3 11 -1 14 4 3 5 -4 11
-16 15 l-23 5 23 21 c18 17 20 25 12 41 -6 11 -15 17 -19 15 -4 -3 -8 1 -8 9
0 11 4 11 23 -1 15 -10 24 -12 29 -4 3 6 3 10 -2 9 -19 -3 -31 2 -36 15 -4 11
-1 13 11 9 9 -3 14 -3 10 2 -4 4 -2 15 5 23 10 13 9 14 -11 3 -23 -12 -23 -12
-11 11 17 30 21 58 10 58 -6 0 -8 -9 -6 -19 3 -14 -1 -18 -12 -14 -8 3 -10 9
-5 12 5 3 8 16 7 28 -1 18 1 20 17 12 10 -5 18 -6 17 -2 -3 20 2 24 16 13 8
-7 15 -18 15 -24 0 -6 -5 -4 -11 4 -9 13 -10 13 -6 0 2 -9 13 -14 28 -12 23 4
24 3 4 -12 -19 -15 -19 -15 4 -9 19 5 23 3 18 -9 -4 -12 0 -15 16 -11 18 4 19
3 7 -6 -11 -8 -12 -11 -2 -11 8 0 10 -5 6 -12 -6 -10 -4 -10 7 0 16 14 33 16
24 2 -3 -5 -1 -10 5 -10 6 0 8 -4 5 -10 -3 -5 -1 -11 4 -11 6 -1 16 -3 21 -4
6 -1 15 -3 20 -4 6 0 10 -8 10 -17 0 -9 5 -12 13 -8 7 5 6 0 -3 -11 -14 -17
-13 -18 4 -12 14 6 17 4 12 -9 -5 -13 -2 -15 14 -11 18 5 19 3 8 -10 -12 -15
-11 -15 11 -4 19 11 22 11 16 0 -6 -9 -3 -11 8 -6 11 4 14 2 10 -9 -5 -13 8
-19 30 -15 5 1 6 -2 3 -7 -2 -4 -1 -14 5 -22 7 -13 9 -13 9 0 1 12 3 11 11 -3
6 -9 15 -14 21 -11 6 4 8 3 5 -4 -9 -13 2 -42 15 -42 6 0 4 8 -3 17 -13 15
-11 15 13 -1 18 -12 25 -23 21 -33 -5 -12 -3 -14 7 -8 10 6 12 4 6 -10 -6 -16
-4 -16 11 -4 11 9 14 10 9 2 -4 -8 -1 -13 8 -13 9 0 16 -5 16 -11 0 -5 6 -7
13 -3 7 5 6 0 -3 -11 -8 -10 -10 -16 -4 -12 7 4 14 0 18 -8 3 -8 11 -15 18
-15 9 0 8 3 -2 10 -8 5 -10 10 -4 10 15 0 90 -92 86 -105 -2 -5 0 -7 4 -3 4 4
14 2 23 -4 9 -7 5 1 -9 17 l-25 30 33 -29 c31 -28 45 -55 20 -40 -7 4 -8 3 -4
-4 4 -6 14 -8 23 -5 11 4 14 3 9 -5 -5 -8 0 -12 14 -12 16 0 20 -4 16 -16 -3
-8 -2 -12 4 -9 6 3 10 1 10 -4 0 -6 6 -11 14 -11 7 0 20 -8 27 -17 12 -14 12
-16 0 -8 -10 5 -12 4 -7 -4 6 -9 11 -9 21 -1 12 10 13 8 10 -10 -4 -18 -2 -20
11 -9 8 7 14 8 13 3 -1 -5 3 -20 9 -34 6 -14 11 -19 11 -12 1 6 6 12 12 12 6
0 8 -7 5 -16 -3 -8 -2 -12 4 -9 6 3 10 -4 11 -17 0 -13 3 -18 6 -11 3 10 7 10
18 0 7 -7 10 -16 7 -22 -3 -5 1 -4 10 3 14 11 16 10 11 -7 -3 -13 -1 -21 6
-21 7 0 9 6 6 13 -4 6 0 4 8 -5 8 -10 18 -14 23 -10 4 4 2 -1 -6 -11 -11 -16
-11 -18 1 -15 8 2 13 -2 12 -9 -2 -7 4 -10 12 -7 8 4 15 11 15 17 0 6 3 7 6 4
4 -4 1 -14 -7 -23 -13 -16 -12 -17 9 -12 19 5 21 4 12 -7 -9 -10 -6 -15 10
-20 11 -3 18 -10 15 -15 -3 -5 -1 -11 5 -15 6 -4 7 -12 4 -18 -5 -8 -3 -8 7 1
15 14 33 16 24 3 -7 -12 29 -33 39 -23 4 3 4 -1 0 -11 -3 -10 -1 -17 6 -17 6
0 8 -5 4 -12 -5 -9 -2 -8 9 1 15 12 17 12 11 -3 -5 -13 -2 -17 12 -14 11 2 19
-3 20 -12 2 -34 5 -38 25 -43 15 -4 20 -11 16 -22 -5 -12 -3 -14 12 -5 16 8
18 7 14 -9 -3 -10 0 -22 6 -25 7 -5 9 0 5 11 -5 15 -4 16 5 3 8 -11 7 -18 -6
-27 -20 -15 -9 -17 16 -4 14 8 17 5 15 -18 -1 -24 2 -28 17 -24 13 4 19 0 19
-12 0 -11 5 -15 16 -11 8 3 12 2 9 -4 -3 -6 -1 -10 4 -10 6 0 10 -3 10 -7 -3
-20 2 -34 11 -28 6 3 10 1 10 -5 0 -15 26 -41 34 -33 3 4 6 -1 6 -11 0 -10 5
-14 12 -10 6 4 8 3 5 -3 -4 -6 5 -23 18 -37 14 -15 25 -24 25 -20 0 3 7 1 15
-6 8 -7 15 -17 15 -23 0 -6 -7 -2 -15 9 -8 10 -15 14 -15 7 0 -6 4 -14 10 -18
5 -3 8 -11 6 -18 -1 -7 -1 -9 1 -4 3 4 12 7 21 7 15 0 15 -2 2 -10 -13 -8 -12
-10 4 -10 16 0 17 -2 5 -17 -10 -11 -10 -14 -1 -9 6 4 12 2 12 -3 0 -6 -5 -11
-11 -11 -5 0 -7 -4 -4 -10 3 -5 -2 -10 -12 -10 -14 0 -15 -2 -5 -9 10 -6 8
-10 -8 -14 -13 -3 -19 -10 -15 -16 3 -6 11 -8 17 -5 7 4 8 2 4 -5 -4 -6 -12
-9 -17 -6 -8 6 -13 -8 -10 -27 0 -4 -6 -5 -14 -2 -11 5 -13 2 -8 -12 4 -10 2
-15 -4 -11 -5 3 -10 0 -10 -8 0 -8 5 -11 10 -8 5 3 8 0 5 -7 -2 -7 -12 -14
-22 -16 -24 -3 -34 -14 -13 -14 24 0 21 -15 -5 -28 -13 -6 -17 -11 -10 -11 6
-1 12 -6 12 -12 0 -5 -4 -7 -10 -4 -5 3 -10 1 -10 -5 0 -6 -4 -8 -10 -5 -5 3
-10 1 -10 -4 0 -6 6 -11 13 -11 6 0 -1 -12 -18 -26 -16 -14 -24 -23 -17 -19 6
3 12 1 12 -4 0 -6 -5 -11 -11 -11 -5 0 -7 -4 -4 -10 3 -5 1 -10 -4 -10 -6 0
-11 -5 -11 -11 0 -5 6 -7 13 -4 6 4 3 -1 -7 -9 -18 -14 -15 -21 7 -17 5 1 6
-3 2 -8 -3 -6 -12 -8 -19 -5 -8 3 -17 0 -22 -7 -4 -7 -3 -10 4 -5 6 3 13 2 17
-4 3 -5 0 -10 -8 -10 -8 0 -17 -9 -20 -20 -3 -13 -1 -18 6 -13 8 4 8 1 0 -9
-7 -8 -14 -27 -15 -41 -2 -18 -6 -23 -13 -17 -8 7 -10 -1 -8 -27 1 -20 -3 -43
-10 -51 -9 -12 -9 -16 1 -19 6 -3 12 -9 12 -14 0 -4 -8 -5 -17 -2 -15 6 -16 4
-6 -8 10 -12 10 -18 1 -27 -14 -14 -19 -64 -6 -56 4 3 8 -2 8 -11 0 -9 -4 -14
-8 -11 -5 3 -9 -1 -9 -9 0 -8 4 -12 8 -10 4 3 9 -2 12 -10 4 -9 1 -12 -9 -8
-15 6 -16 -20 -1 -44 5 -8 3 -13 -5 -13 -9 0 -9 -3 -2 -8 6 -4 14 -16 17 -27
7 -19 7 -19 -7 -1 -14 18 -15 18 -13 -3 1 -11 4 -21 7 -21 11 0 8 -65 -4 -72
-8 -6 -8 -8 2 -8 6 0 12 -7 12 -15 0 -8 -5 -15 -12 -15 -6 0 -8 -3 -5 -6 4 -4
13 -2 21 5 11 9 14 6 14 -21 0 -68 6 -99 19 -94 7 3 13 1 13 -4 0 -9 -15 -14
-33 -11 -5 1 -6 -3 -3 -8 4 -5 16 -8 28 -6 16 3 19 2 10 -7 -13 -13 0 -44 27
-66 13 -11 13 -12 1 -7 -12 5 -12 4 1 -7 9 -7 14 -18 12 -24 -2 -7 3 -19 12
-27 8 -9 15 -23 15 -31 0 -9 8 -16 20 -16 18 0 26 -16 21 -44 -1 -5 5 -6 14
-2 9 3 13 2 10 -4 -3 -6 1 -10 10 -10 9 0 13 -4 10 -10 -3 -6 -1 -10 5 -10 6
0 8 -5 5 -10 -3 -6 -1 -10 5 -10 6 0 8 -4 5 -10 -4 -6 5 -10 20 -10 15 0 24
-4 20 -10 -3 -5 -1 -10 5 -10 6 0 8 -6 4 -13 -5 -9 -4 -9 6 0 10 9 16 8 28 -3
8 -8 21 -13 30 -9 12 5 13 3 2 -10 -12 -14 -10 -15 13 -11 23 4 27 1 27 -17 0
-14 3 -18 8 -10 10 15 41 11 56 -8 6 -8 23 -20 36 -28 22 -13 24 -13 12 1 -10
13 -8 15 17 14 16 -1 26 -5 23 -10 -3 -5 2 -7 11 -3 9 3 18 1 20 -6 2 -7 8 -9
12 -5 4 4 2 16 -6 25 -12 16 -12 17 2 6 9 -7 20 -9 24 -5 5 4 5 2 1 -5 -9 -17
14 -28 25 -12 6 11 14 8 36 -11 15 -14 22 -17 14 -8 -11 15 -9 16 13 14 14 -1
29 -6 33 -9 3 -4 18 0 31 9 20 13 24 14 20 2 -7 -16 25 -18 39 -3 5 4 2 5 -6
0 -9 -5 -12 -4 -8 3 4 5 16 8 27 5 11 -3 26 0 34 6 11 9 16 9 22 0 4 -7 3 -9
-4 -5 -6 3 -13 2 -16 -2 -6 -10 40 -10 49 0 4 4 13 4 21 1 10 -4 12 0 7 13 -7
18 -6 18 11 2 21 -21 27 -23 20 -5 -3 8 4 13 18 14 18 2 19 0 8 -7 -11 -7 -10
-9 8 -7 16 1 21 6 17 16 -3 9 -3 12 1 8 4 -4 13 -2 21 4 9 8 17 8 26 0 17 -13
28 -5 20 15 -6 16 17 15 29 -1 4 -5 8 1 8 14 0 17 4 22 16 17 19 -7 47 12 38
26 -4 6 4 4 17 -3 23 -12 23 -11 9 6 -14 17 -13 18 4 12 16 -6 17 -5 7 7 -10
12 -8 14 12 12 18 -2 23 1 20 14 -2 9 3 22 11 29 13 11 19 11 33 0 14 -12 16
-12 8 0 -5 9 -2 19 11 29 16 13 16 14 2 8 -44 -15 -50 -15 -18 2 19 9 36 24
38 32 2 8 15 26 30 39 15 13 22 20 16 17 -8 -4 -11 3 -10 18 1 17 5 21 12 15
18 -14 30 11 28 57 -1 28 5 49 18 65 11 13 16 18 12 10 -4 -9 -3 -12 4 -7 6 4
9 13 6 21 -4 8 -10 12 -15 9 -5 -3 -6 2 -3 10 3 9 10 14 14 11 5 -3 5 8 0 25
-6 22 -5 28 2 24 8 -5 9 -1 5 11 -4 9 -2 25 5 33 11 13 10 15 -3 10 -9 -4 -16
-1 -16 6 0 8 10 11 26 9 22 -3 23 -2 6 5 -14 6 -20 19 -21 40 0 17 3 29 8 26
5 -3 5 -10 2 -16 -4 -7 -2 -8 4 -4 6 4 8 14 5 23 -5 12 -3 14 8 8 12 -8 12 -6
0 8 -7 9 -11 22 -8 29 7 20 7 28 0 31 -3 1 -7 -6 -9 -16 -1 -11 -5 -22 -9 -25
-3 -4 -4 7 -1 23 3 17 14 36 23 44 16 12 16 12 -7 6 -23 -7 -24 -7 -10 11 8
10 20 22 25 26 7 5 6 8 0 8 -6 0 -16 -5 -23 -12 -9 -9 -12 -9 -12 -1 0 7 4 15
10 18 12 7 14 26 3 22 -5 -1 -8 3 -8 8 0 6 3 9 7 8 16 -6 7 15 -8 21 -12 5
-13 10 -6 19 6 7 7 18 2 27 -4 7 -4 24 1 37 5 15 5 22 0 18 -5 -3 -12 -1 -16
5 -3 5 1 10 9 10 9 0 16 4 16 10 0 5 -3 9 -7 9 -20 -3 -26 2 -13 11 11 7 11
10 2 10 -8 0 -10 5 -6 13 6 9 4 9 -8 -1 -13 -10 -18 -10 -24 -1 -4 7 -3 9 3 6
6 -4 13 0 17 8 3 8 1 15 -3 15 -5 0 -8 13 -7 29 2 25 -1 28 -15 21 -13 -8 -15
-5 -11 15 2 14 9 22 15 18 6 -3 7 -1 3 6 -6 9 -11 9 -21 1 -15 -13 -16 5 -1
29 6 10 5 12 -2 7 -12 -7 -17 11 -12 44 1 10 -3 9 -13 -5 -9 -11 -19 -17 -23
-12 -4 4 -2 7 4 7 18 0 14 18 -8 40 -16 16 -17 20 -5 20 8 0 15 5 15 12 0 6
-3 8 -6 5 -11 -11 -44 13 -38 28 3 7 -4 22 -15 31 -15 13 -18 21 -9 31 10 13
-1 19 -27 13 -5 -1 -7 2 -3 6 4 4 3 13 -3 21 -9 10 -8 17 2 30 10 11 10 14 2
9 -7 -4 -14 -2 -14 3 -1 6 -2 15 -3 20 0 6 -11 19 -23 31 -27 24 -29 32 -8 24
8 -4 15 -2 15 4 0 6 -6 13 -12 15 -10 4 -10 6 0 6 8 1 10 6 6 14 -4 6 2 4 13
-6 16 -14 20 -14 20 -2 0 8 -4 12 -9 9 -4 -3 -8 0 -8 5 0 6 8 11 18 11 14 0
15 2 2 10 -11 7 -11 10 -2 10 7 0 11 4 7 9 -3 6 4 8 15 6 17 -3 19 -1 10 16
-8 14 -8 19 2 17 6 -2 12 2 13 9 0 6 4 15 9 20 5 5 6 2 1 -6 -5 -9 -3 -12 6
-9 8 3 13 12 11 22 -2 9 2 16 8 16 5 0 10 -6 10 -12 0 -9 3 -8 10 2 6 9 5 17
-3 22 -8 5 -5 8 8 8 11 0 27 5 35 11 13 9 12 10 -2 5 -10 -3 -18 -1 -18 4 0 6
5 10 11 10 5 0 8 4 5 9 -4 5 3 7 14 4 12 -3 20 0 20 6 0 7 -6 9 -12 6 -7 -4
-4 1 6 9 11 9 16 16 12 16 -5 0 -3 7 4 15 7 9 19 14 26 11 7 -3 16 -1 19 5 4
5 3 9 -2 8 -24 -4 -25 3 -3 14 14 7 24 21 24 30 -2 15 1 16 14 5 12 -10 14
-10 8 0 -4 7 -1 12 8 12 9 0 16 5 16 11 0 5 -6 7 -12 3 -9 -5 -9 -3 1 9 7 9
17 14 22 11 5 -3 9 0 9 6 0 6 5 8 10 5 6 -3 10 -1 10 4 0 6 -6 11 -12 11 -9 0
-8 3 2 9 8 6 18 7 22 5 7 -5 12 10 9 28 0 4 9 5 20 3 16 -3 19 0 13 17 -4 14
-2 18 5 14 6 -4 11 -2 11 4 0 6 5 8 10 5 6 -3 10 -1 10 5 0 6 5 8 12 4 7 -4 8
-3 4 5 -4 6 -13 9 -19 5 -7 -3 -3 2 7 10 16 13 22 13 35 3 12 -10 13 -9 6 3
-14 23 -14 37 1 37 7 0 11 -4 8 -9 -6 -10 10 -11 19 -1 4 3 2 12 -5 20 -9 11
-7 12 8 7 10 -4 16 -4 12 1 -14 15 13 35 32 25 13 -7 21 -6 26 2 4 6 3 8 -4 4
-6 -3 -13 -2 -17 4 -3 5 2 10 12 10 15 0 16 2 3 11 -12 9 -11 10 8 6 12 -3 20
-1 17 3 -3 5 3 13 12 19 16 9 16 12 3 21 -8 5 -10 10 -5 10 6 0 16 -5 22 -11
8 -8 13 -7 18 2 5 8 4 10 -3 5 -7 -4 -12 -2 -12 3 0 6 6 11 13 11 14 0 54 38
50 46 -2 2 0 4 3 3 3 0 12 8 21 18 8 10 12 12 8 6 -3 -7 -1 -13 4 -13 6 0 11
7 11 15 0 9 7 18 15 21 8 4 12 10 9 15 -3 5 2 9 11 9 10 0 13 -5 9 -12 -5 -9
-2 -8 9 1 14 11 15 16 5 29 -10 13 -10 14 0 8 7 -4 12 -2 12 6 0 10 3 9 9 -2
6 -8 7 -18 4 -24 -3 -5 -1 -6 5 -3 5 4 8 17 4 29 -4 16 -2 19 9 13 12 -8 12
-6 1 8 -12 14 -11 16 6 12 12 -2 27 4 34 13 10 12 10 14 1 8 -7 -4 -13 -2 -13
3 0 6 5 11 11 11 5 0 7 6 3 13 -4 6 3 3 16 -8 l23 -20 -11 21 c-14 26 0 41 35
38 12 0 20 3 17 8 -3 4 -10 6 -15 3 -5 -3 -6 1 -2 10 4 11 8 13 13 5 5 -8 11
-6 20 5 7 8 19 15 26 15 8 0 14 7 14 16 0 11 5 14 16 10 14 -5 15 -4 4 9 -11
13 -10 14 5 8 15 -5 17 -3 12 11 -4 10 -3 15 3 11 6 -3 10 -1 10 4 0 6 9 11
20 11 11 0 20 4 20 10 0 5 -8 7 -17 4 -15 -5 -15 -4 -4 4 9 7 21 7 31 2 12 -6
17 -5 17 5 0 8 -4 12 -9 9 -4 -3 -8 0 -8 7 0 7 10 9 24 7 19 -4 23 -1 18 10
-4 11 -1 14 12 9 10 -4 15 -3 11 4 -8 12 12 39 29 39 6 0 4 -5 -4 -11 -13 -9
-13 -10 0 -6 8 2 14 10 12 17 -1 6 7 14 18 17 11 3 17 9 14 14 -5 8 18 14 40
10 5 -1 3 5 -4 14 -11 13 -10 15 4 9 9 -3 16 -1 16 6 0 6 5 8 13 4 7 -5 6 0
-3 11 -9 11 -10 16 -3 11 7 -4 21 -2 30 4 17 11 17 11 0 6 -11 -4 -16 -2 -11
5 3 6 15 9 25 6 16 -4 17 -2 7 16 -10 20 -10 21 5 8 11 -8 17 -9 17 -3 0 6 8
9 18 5 14 -5 13 -3 -3 10 -20 16 -20 16 3 12 17 -3 22 0 20 13 -2 9 4 17 12
17 8 0 14 8 14 17 -1 10 4 14 12 11 8 -3 14 0 14 7 0 7 6 5 16 -4 8 -9 19 -14
24 -11 5 3 12 0 16 -6 4 -8 3 -9 -4 -5 -8 5 -12 0 -12 -13 0 -12 -3 -21 -7
-21 -5 0 -8 -20 -8 -45 -1 -32 2 -41 10 -35 14 11 14 -25 0 -37 -4 -5 -5 -2 0
6 6 10 4 12 -4 7 -7 -5 -10 -11 -7 -14 3 -3 0 -12 -7 -21 -10 -14 -10 -14 4
-3 14 10 18 10 22 -3 4 -8 3 -14 -1 -14 -23 4 -24 -4 -2 -17 23 -14 23 -15 3
-11 -17 4 -21 1 -18 -14 6 -29 15 -40 28 -33 7 4 7 1 -1 -7 -11 -12 -15 -11
-28 5 -8 11 -14 16 -14 11 0 -5 10 -20 23 -33 12 -14 17 -23 12 -19 -6 3 -16
-2 -22 -12 -9 -14 -8 -18 3 -18 7 0 11 3 9 7 -2 4 2 7 10 7 8 0 11 -5 7 -11
-12 -20 -12 -46 0 -46 6 0 8 -3 5 -6 -4 -4 -14 -1 -23 7 -16 13 -16 12 -6 -8
7 -12 9 -29 5 -39 -4 -11 -3 -15 5 -10 15 9 26 -12 13 -28 -7 -9 -7 -16 2 -26
9 -10 9 -11 -1 -5 -9 5 -12 1 -10 -11 2 -11 7 -22 11 -25 5 -3 2 -9 -6 -12
-11 -4 -15 0 -12 14 2 11 0 17 -5 14 -4 -3 -7 -13 -5 -23 1 -9 -2 -23 -8 -29
-6 -9 -6 -13 1 -13 6 0 12 6 15 13 3 9 8 9 18 -2 8 -8 9 -11 2 -7 -7 4 -13 -2
-15 -16 -2 -13 -9 -22 -17 -20 -11 2 -12 0 -3 -11 7 -8 8 -18 4 -22 -4 -5 -1
-5 6 -1 7 4 10 11 8 15 -3 4 1 8 9 8 11 0 12 -4 4 -14 -9 -10 -8 -18 2 -30 13
-16 12 -17 -3 -5 -14 11 -17 10 -23 -10 -5 -13 -3 -24 4 -26 6 -2 11 -10 11
-18 0 -9 5 -12 12 -8 7 4 8 3 4 -4 -4 -6 -13 -9 -21 -6 -8 4 -12 11 -8 17 3 6
1 7 -6 3 -7 -5 -9 -12 -3 -19 4 -7 7 -22 6 -34 -1 -21 7 -28 29 -24 5 1 5 -3
2 -9 -4 -6 -13 -9 -20 -6 -7 2 -16 -1 -19 -9 -3 -9 0 -12 8 -9 8 3 17 0 22 -7
4 -7 3 -10 -4 -5 -6 3 -13 2 -17 -4 -3 -5 -1 -10 5 -10 6 0 8 -5 5 -10 -4 -6
-10 -8 -15 -5 -5 3 -11 1 -15 -4 -3 -6 4 -8 15 -6 11 2 18 0 15 -5 -3 -5 3
-11 12 -13 17 -4 17 -5 0 -6 -11 -1 -15 -6 -11 -13 4 -7 3 -8 -5 -4 -6 4 -8
13 -5 19 4 7 3 8 -2 4 -14 -13 -11 -31 6 -39 12 -5 11 -7 -5 -8 -16 -1 -14 -4
10 -16 17 -8 22 -12 13 -10 -26 7 -43 -61 -23 -94 6 -10 4 -12 -11 -6 -15 6
-14 3 5 -18 25 -26 17 -37 -9 -13 -12 10 -12 9 -1 -5 7 -10 10 -18 5 -19 -5 0
0 -4 11 -9 l20 -9 -20 0 c-17 -1 -17 -3 -5 -11 10 -6 11 -10 3 -10 -7 0 -13
-4 -13 -10 0 -5 8 -7 18 -4 9 3 6 -2 -8 -11 -14 -9 -18 -14 -9 -12 9 3 16 -1
16 -9 0 -8 -5 -14 -10 -14 -6 0 -7 -3 -4 -7 4 -3 1 -13 -6 -21 -8 -10 -8 -13
-1 -9 18 10 25 -20 9 -33 -16 -13 -16 -31 0 -42 6 -5 4 -12 -5 -18 -11 -7 -12
-12 -3 -18 13 -8 12 -37 -2 -49 -4 -4 -5 -2 -1 5 10 17 1 15 -14 -4 -8 -8 -9
-14 -4 -13 20 3 34 -2 34 -12 0 -6 -7 -9 -14 -6 -10 4 -13 1 -9 -8 3 -8 10
-12 17 -9 6 3 1 -3 -11 -14 -19 -17 -20 -21 -7 -26 10 -4 13 -2 8 6 -5 7 -3 8
5 4 13 -8 6 -21 -10 -21 -5 0 -9 -3 -9 -7 0 -5 0 -15 0 -24 0 -8 4 -13 8 -10
5 3 9 -1 9 -9 0 -8 -4 -12 -8 -10 -13 8 -18 -22 -6 -35 9 -10 9 -11 -1 -6 -14
8 -12 -19 2 -43 6 -10 5 -12 -2 -7 -11 7 -19 -39 -12 -69 7 -31 7 -42 -2 -57
-6 -13 -5 -18 4 -19 7 0 4 -4 -7 -9 -11 -5 -14 -9 -7 -9 6 -1 12 -8 12 -17 0
-8 -5 -12 -11 -8 -6 3 -3 -6 7 -22 l18 -29 -24 20 c-14 12 -20 13 -12 4 6 -9
9 -19 5 -22 -3 -4 0 -7 8 -7 11 0 11 -2 -1 -10 -10 -6 -11 -10 -2 -10 6 0 12
-5 12 -11 0 -6 -7 -8 -17 -5 -10 4 -14 4 -10 0 4 -4 1 -14 -6 -23 -10 -14 -10
-14 4 -3 14 11 17 10 15 -5 0 -11 5 -17 14 -15 11 3 10 -2 -4 -17 -20 -22 -32
-28 -21 -11 3 5 0 7 -9 4 -12 -5 -13 -9 -3 -19 7 -7 17 -10 22 -7 6 3 4 -1 -2
-10 -7 -8 -9 -19 -5 -23 4 -5 1 -5 -6 -1 -7 4 -9 12 -6 18 4 7 2 8 -5 4 -9 -6
-8 -14 4 -33 10 -14 13 -23 7 -19 -13 8 -22 -17 -12 -34 6 -9 3 -18 -7 -25
-13 -10 -13 -14 -3 -20 9 -6 11 -4 5 5 -5 9 -4 11 4 6 8 -6 9 -12 2 -20 -6 -7
-7 -17 -3 -21 4 -5 1 -5 -6 -1 -7 4 -9 12 -6 18 4 7 2 8 -4 4 -11 -7 -7 -31
10 -52 5 -7 1 -17 -9 -25 -16 -13 -17 -12 -5 2 10 14 10 18 -1 22 -15 6 -18
-34 -3 -45 6 -4 5 -12 -3 -22 -8 -9 -10 -16 -5 -17 5 0 0 -4 -11 -9 -16 -7
-16 -9 -4 -9 11 -1 16 -9 15 -25 -1 -17 -4 -21 -12 -15 -14 11 -26 -14 -18
-35 3 -8 0 -17 -6 -21 -8 -5 -8 -10 0 -20 8 -9 8 -15 0 -20 -5 -3 -10 -11 -10
-16 0 -6 5 -7 12 -3 7 4 8 3 4 -5 -4 -6 -12 -9 -17 -6 -5 4 -9 -1 -9 -10 0
-10 5 -14 13 -9 9 5 9 3 -1 -7 -11 -12 -14 -12 -22 1 -5 8 -10 10 -10 5 0 -6
5 -16 12 -23 9 -9 9 -12 -1 -12 -11 0 -11 -3 -1 -15 11 -13 10 -14 -6 -8 -16
6 -17 4 -7 -9 7 -8 9 -18 5 -22 -4 -4 -7 -13 -7 -19 0 -5 -7 -12 -15 -14 -13
-4 -13 -3 0 6 9 7 10 11 3 11 -17 0 -25 -17 -12 -26 8 -5 8 -8 -1 -14 -8 -5
-7 -12 5 -24 9 -9 13 -16 8 -16 -5 0 -15 6 -22 12 -7 7 -12 9 -11 3 4 -21 0
-36 -9 -31 -5 4 -8 -2 -6 -11 1 -10 -2 -24 -8 -31 -7 -9 -5 -11 9 -6 16 6 16
4 -3 -15 -25 -24 -31 -39 -10 -25 7 5 1 -1 -13 -14 -21 -19 -23 -24 -10 -32
12 -7 12 -10 1 -10 -8 0 -11 -6 -7 -16 6 -15 4 -15 -11 -3 -11 9 -14 10 -9 2
4 -8 2 -13 -6 -13 -11 0 -10 -2 0 -9 11 -7 10 -9 -3 -15 -9 -3 -13 -10 -10
-16 4 -6 11 -7 17 -4 7 4 8 2 4 -5 -4 -6 -12 -9 -17 -6 -5 4 -9 1 -9 -5 0 -6
-4 -8 -10 -5 -6 4 -7 -1 -3 -11 4 -12 3 -15 -5 -10 -7 4 -12 1 -12 -9 0 -8 -6
-18 -14 -21 -8 -3 -12 -13 -8 -26 3 -14 1 -19 -6 -14 -8 4 -10 2 -6 -7 3 -9
-3 -16 -15 -20 -14 -3 -19 -10 -15 -20 8 -21 -13 -57 -33 -57 -14 0 -14 -2 3
-16 10 -8 14 -13 8 -10 -12 6 -29 -21 -25 -38 1 -5 -6 -6 -15 -2 -15 6 -15 4
-3 -11 13 -15 12 -16 -9 -11 -12 4 -20 2 -17 -2 3 -5 2 -10 -2 -13 -5 -2 -2
-2 6 0 11 3 11 1 1 -12 -7 -8 -17 -12 -24 -8 -6 4 -5 -1 3 -10 8 -10 11 -20 7
-24 -3 -3 -6 -1 -6 5 0 7 -5 12 -11 12 -5 0 -7 -5 -4 -10 3 -5 -1 -10 -9 -10
-12 0 -14 -5 -7 -24 8 -20 7 -23 -14 -21 -18 3 -22 -1 -17 -18 4 -15 1 -19
-10 -15 -8 4 -15 1 -15 -7 0 -7 5 -12 11 -11 6 2 8 1 3 -1 -4 -3 -4 -9 -1 -15
4 -6 -2 -6 -14 1 -15 8 -23 8 -28 -1 -4 -6 -3 -8 4 -4 6 4 10 -1 9 -13 0 -11
-5 -17 -9 -15 -8 5 -12 -11 -9 -30 1 -5 -4 -4 -12 2 -12 10 -14 7 -11 -20 3
-24 1 -29 -6 -18 -8 13 -11 13 -22 1 -7 -8 -8 -11 -2 -8 6 3 11 0 11 -7 0 -8
-7 -12 -15 -8 -10 4 -13 1 -8 -7 9 -14 -22 -54 -35 -46 -4 3 -11 0 -15 -6 -4
-8 -3 -9 4 -5 7 4 12 2 12 -3 0 -6 -7 -11 -15 -11 -8 0 -12 -6 -9 -14 3 -8 0
-17 -7 -22 -7 -4 -10 -3 -6 3 3 5 0 10 -6 10 -7 0 -14 -9 -14 -19 -1 -11 3
-16 9 -12 6 4 8 2 4 -4 -3 -6 -15 -9 -26 -7 -14 3 -17 -1 -13 -12 5 -12 3 -14
-7 -8 -10 6 -12 4 -7 -8 4 -12 1 -17 -9 -17 -9 0 -14 -6 -11 -13 3 -8 -5 -25
-16 -38 -12 -14 -17 -18 -12 -9 8 13 8 13 -6 3 -9 -7 -18 -10 -21 -8 -3 3 -4
-5 -3 -19 2 -19 -1 -23 -13 -19 -9 4 -13 2 -9 -4 4 -6 -2 -13 -13 -16 -11 -3
-24 -17 -30 -31 -9 -24 -19 -30 -45 -27 -5 1 -1 -6 10 -15 16 -14 17 -16 3
-11 -10 4 -18 2 -18 -3 0 -6 -8 -10 -17 -10 -15 0 -16 -2 -3 -10 14 -9 13 -11
-9 -14 -5 0 -13 -5 -18 -9 -8 -8 -9 -12 -12 -39 -1 -9 -4 -8 -11 2 -5 8 -10
11 -10 5 0 -5 5 -17 10 -25 9 -13 10 -13 10 0 0 13 1 13 10 0 6 -9 10 -11 10
-3 0 7 6 11 13 9 6 -1 9 -1 5 1 -12 7 -9 31 4 39 7 5 9 2 6 -8 -4 -8 -1 -15 7
-15 7 0 11 7 8 14 -3 8 -2 13 3 12 21 -4 28 2 14 11 -11 7 -6 10 20 10 22 0
30 3 22 9 -10 6 -9 11 4 22 10 8 15 9 11 2 -4 -6 -3 -15 3 -18 6 -4 10 -3 9 2
-1 4 -1 14 0 22 1 11 4 11 18 0 9 -8 14 -9 10 -2 -4 6 -4 19 -1 28 5 13 9 14
15 4 6 -10 11 -10 23 0 9 8 16 20 16 27 0 9 6 11 18 7 15 -6 15 -5 3 10 -12
15 -12 17 4 11 13 -5 16 -4 11 4 -5 8 -1 10 11 5 16 -6 17 -5 3 12 -14 17 -14
18 7 7 17 -9 22 -9 27 4 3 9 3 20 0 25 -3 5 -2 9 3 8 25 -4 42 2 37 15 -4 10
1 14 19 12 14 -2 24 2 24 10 0 7 -5 10 -11 7 -6 -4 -5 1 3 10 7 9 16 15 20 13
6 -4 26 13 29 27 1 4 5 7 10 8 20 3 42 22 42 37 1 15 3 15 16 -3 15 -19 15
-19 8 9 -6 24 -4 28 9 23 18 -7 52 27 42 42 -3 7 0 8 9 5 9 -4 18 1 22 10 3 9
11 13 18 9 6 -4 4 2 -4 12 -14 17 -14 18 7 7 19 -11 21 -9 18 13 -1 14 2 28 8
32 6 3 7 1 3 -5 -4 -7 -1 -12 9 -12 9 0 13 5 10 10 -3 5 -1 10 4 10 6 0 11 4
11 10 0 5 -8 7 -17 4 -10 -3 -6 2 10 11 15 9 33 13 40 9 9 -6 8 -4 -1 8 -11
13 -10 16 5 14 11 0 17 5 15 13 -2 11 0 12 11 3 11 -9 13 -7 13 11 -1 15 5 22
16 21 11 -1 14 4 11 14 -5 12 -1 14 15 10 19 -5 20 -4 11 14 -9 18 -9 20 4 15
11 -4 14 -1 11 7 -3 7 2 19 10 26 9 7 13 16 10 21 -3 5 3 6 12 2 13 -5 15 -3
9 7 -6 10 -4 12 10 6 16 -6 16 -4 4 11 -12 15 -12 16 4 10 13 -5 17 -2 15 11
-2 12 3 17 18 16 17 -1 20 3 16 19 -3 14 -1 18 6 13 7 -4 12 -2 12 4 0 6 5 8
13 4 7 -5 7 -2 -2 10 -8 9 -10 16 -5 15 5 -1 16 -1 24 0 13 1 13 2 0 11 -10 7
-11 10 -2 11 27 3 31 4 39 13 4 5 3 6 -4 2 -6 -3 -14 -2 -18 4 -3 5 2 10 12
10 10 0 25 5 33 11 13 9 12 10 -2 5 -25 -8 -22 7 7 34 14 13 25 29 25 36 0 8
6 11 15 8 11 -5 13 -2 9 10 -3 9 -1 16 5 16 6 0 11 10 11 22 0 21 0 21 15 2
14 -18 14 -18 10 5 -6 30 11 62 29 55 8 -3 17 0 22 7 4 8 3 10 -4 5 -7 -4 -12
-1 -12 9 0 11 5 15 16 11 8 -3 13 -2 10 3 -3 4 2 17 10 27 9 10 12 13 8 5 -5
-9 -3 -12 5 -7 6 4 9 12 6 17 -4 5 -1 9 6 9 8 0 7 5 -2 17 -13 15 -12 15 7 5
16 -9 21 -8 21 3 0 8 -4 12 -9 9 -4 -3 -8 0 -8 5 0 10 14 15 32 12 4 0 4 7 1
16 -5 12 -3 14 8 8 12 -7 12 -6 1 7 -9 11 -10 18 -2 23 6 3 7 11 4 17 -4 7 -2
8 5 4 9 -6 9 -12 -1 -24 -12 -15 -11 -16 4 -3 10 7 15 17 12 22 -3 5 -1 9 4 9
6 0 13 7 16 16 6 15 4 15 -11 3 -17 -13 -17 -13 -1 6 9 11 17 25 18 30 3 17
37 44 46 37 5 -4 2 1 -5 11 -13 17 -6 23 22 18 5 -1 6 3 2 9 -4 6 -1 18 7 27
8 10 8 14 1 10 -6 -4 -14 -3 -17 2 -4 5 5 8 19 7 19 -3 23 0 16 13 -10 17 11
45 25 33 4 -4 4 1 0 12 -5 14 -3 17 10 12 14 -5 15 -4 4 9 -10 12 -9 15 6 16
18 0 18 1 -1 9 -18 7 -19 8 -3 15 10 4 15 12 11 18 -4 7 0 8 12 3 14 -5 16 -4
6 8 -9 11 -8 15 4 20 13 5 14 10 4 27 -10 19 -9 21 5 16 9 -4 15 -3 15 1 -3
21 2 32 14 26 9 -5 9 -4 1 5 -15 17 -5 54 12 47 7 -3 16 -1 19 5 4 5 3 9 -2 8
-21 -4 -24 3 -6 19 10 9 13 13 6 8 -10 -7 -12 -4 -6 10 3 10 12 23 20 27 7 4
13 17 13 28 0 11 5 17 10 14 6 -3 10 -2 10 4 0 5 -5 11 -11 13 -5 2 -7 11 -4
21 4 9 12 14 19 10 6 -4 5 1 -3 11 -13 15 -12 18 7 22 11 4 23 13 27 21 4 13
3 14 -9 4 -12 -10 -13 -9 -9 8 3 12 10 21 15 21 6 0 8 9 5 20 -3 11 0 23 5 27
6 3 8 2 5 -4 -3 -5 0 -10 8 -10 10 0 11 6 4 24 -6 18 -5 23 6 23 8 0 15 5 15
11 0 6 -8 8 -17 5 -15 -5 -15 -4 1 9 11 8 14 15 8 15 -7 0 -12 4 -12 10 0 5 7
7 15 4 11 -4 13 -2 9 9 -3 8 -1 18 5 21 6 4 7 14 4 23 -4 10 -2 14 4 10 12 -8
12 11 0 30 -6 9 -3 11 10 6 16 -6 17 -5 3 12 -8 10 -10 16 -5 13 6 -3 19 6 29
20 11 14 14 22 8 18 -8 -5 -10 -2 -6 8 3 9 11 13 17 9 6 -4 7 -1 1 8 -12 20
-14 40 -3 33 5 -3 6 -11 2 -17 -4 -7 1 -6 11 2 13 11 14 16 4 22 -10 7 -10 9
2 9 12 0 12 2 2 9 -11 6 -9 9 6 13 16 4 19 13 18 46 -1 22 0 40 4 40 18 -2 30
3 30 13 0 5 -5 7 -12 3 -7 -4 -8 -3 -4 5 4 6 12 9 17 6 5 -4 9 1 9 10 0 10 -5
14 -12 10 -7 -4 -2 3 12 15 14 12 20 19 13 16 -8 -5 -8 0 0 18 7 13 15 22 19
20 3 -2 10 1 14 7 4 8 3 9 -4 5 -7 -4 -12 -1 -12 9 0 10 5 14 13 10 6 -4 5 0
-4 7 -14 11 -14 15 -3 26 20 18 28 15 13 -5 -13 -16 -12 -17 4 -4 14 11 15 16
5 29 -11 13 -10 15 5 9 10 -4 16 -3 12 2 -3 6 3 15 12 21 16 10 16 11 1 6 -10
-3 -20 0 -24 6 -4 6 -3 8 3 5 6 -4 16 7 23 24 9 21 18 28 29 24 8 -3 12 -3 8
1 -4 4 1 16 10 27 10 11 13 17 6 14 -6 -4 -14 -3 -18 3 -3 5 1 10 9 10 8 0 18
5 22 12 5 7 3 8 -6 3 -9 -6 -11 -4 -6 4 5 7 15 10 23 6 12 -4 13 -2 5 7 -7 9
-6 18 4 32 7 10 11 23 7 29 -3 6 -1 7 6 3 6 -4 8 -12 5 -18 -4 -7 -2 -8 5 -4
6 4 9 11 6 15 -7 12 30 43 40 34 4 -5 5 -2 1 5 -6 10 -11 10 -22 1 -8 -6 -17
-9 -20 -7 -3 3 9 12 25 19 33 15 44 36 14 25 -16 -5 -16 -4 1 8 11 9 15 20 10
28 -6 9 -2 9 12 -2 10 -8 16 -11 12 -6 -9 11 33 57 45 49 6 -4 7 -1 2 6 -5 9
-13 8 -29 -6 -12 -10 -9 -5 7 10 16 16 33 25 40 20 7 -4 6 0 -2 10 -8 10 -11
20 -7 24 3 3 6 1 6 -5 0 -6 7 -9 15 -6 8 4 15 10 15 16 0 5 -5 6 -12 2 -7 -4
-8 -3 -4 4 4 6 13 9 21 5 11 -4 13 -1 9 11 -6 15 10 22 38 17 4 0 5 6 2 14 -4
8 -11 12 -17 8 -6 -3 -7 -1 -3 5 4 6 13 9 21 5 10 -3 15 1 15 12 0 11 5 15 16
11 9 -3 12 -2 9 5 -4 6 0 9 8 7 9 -2 16 2 16 7 0 6 -8 9 -17 7 -12 -2 -10 3 8
17 14 12 31 19 38 16 8 -3 12 2 10 13 -2 12 3 17 18 16 17 -1 20 3 17 20 -4
17 -3 18 6 6 10 -13 15 -8 12 12 0 4 6 5 14 2 8 -4 12 -11 8 -18 -3 -6 -2 -7
2 -3 8 7 15 28 17 54 1 7 4 11 7 10 3 -1 16 4 27 11 12 6 24 8 28 4 4 -3 4 1
1 11 -5 12 0 20 19 28 14 7 22 17 19 23 -4 6 0 5 9 -2 13 -11 19 -9 36 13 18
23 40 36 28 17 -3 -5 1 -9 9 -9 8 0 12 4 9 8 -2 4 0 10 5 14 6 3 8 12 5 20 -4
8 -11 12 -18 8 -6 -4 -4 2 4 13 8 10 11 16 6 12 -5 -4 -18 -2 -30 4 -20 10
-20 10 -6 -7 14 -17 14 -17 -7 -7 -28 15 -36 15 -27 0 6 -10 4 -10 -7 0 -17
16 -32 16 -24 0 4 -7 0 -6 -7 4 -10 11 -19 13 -31 7 -14 -8 -15 -6 -10 8 6 16
4 16 -18 -2 -18 -15 -20 -16 -10 -2 10 12 10 17 2 17 -7 0 -9 5 -5 12 4 7 3 8
-5 4 -6 -4 -9 -11 -6 -16 3 -5 1 -11 -4 -14 -5 -4 -13 -1 -17 5 -4 8 -3 9 4 5
8 -5 10 -1 5 10 -5 14 -7 14 -14 1 -6 -10 -17 -13 -31 -9 -16 4 -19 2 -13 -9
8 -12 6 -12 -8 0 -18 14 -23 26 -8 16 5 -3 12 -1 15 4 6 10 -46 7 -63 -3 -6
-4 -11 -2 -11 4 0 7 -7 5 -16 -4 -21 -21 -30 -20 -13 1 13 15 12 15 -9 4 -13
-7 -30 -10 -38 -7 -7 3 -18 -3 -24 -12 -8 -13 -9 -11 -5 13 l6 30 -16 -27
c-18 -32 -29 -37 -20 -9 4 14 1 19 -9 17 -9 -1 -19 -6 -23 -11 -4 -4 -1 -5 7
0 12 6 12 5 3 -5 -14 -15 -36 -4 -26 13 4 7 0 7 -10 -1 -9 -8 -22 -10 -29 -6
-9 6 -9 3 1 -9 12 -15 12 -17 -4 -11 -14 6 -16 4 -10 -7 5 -8 -2 -5 -14 5 -17
16 -20 16 -16 4 8 -20 -7 -30 -25 -16 -12 8 -12 9 3 4 11 -3 16 -2 12 5 -8 11
-46 2 -57 -15 -6 -8 -8 -8 -8 0 0 7 -9 14 -19 17 -13 3 -18 0 -15 -8 3 -7 0
-16 -7 -21 -7 -4 -10 -3 -5 4 3 6 2 13 -4 17 -5 3 -10 1 -10 -4 0 -6 -7 -11
-16 -11 -9 0 -12 -5 -8 -12 5 -8 0 -7 -11 2 -10 8 -16 10 -12 3 4 -6 2 -15 -4
-19 -7 -4 -9 -3 -6 3 10 16 -18 23 -34 10 -10 -10 -11 -9 -3 3 6 8 10 27 9 43
-1 15 2 27 7 27 5 0 5 7 -1 17 -6 12 -5 21 7 31 15 12 15 13 -3 7 -15 -5 -17
-3 -8 6 6 6 9 18 6 27 -4 9 -2 13 4 9 12 -7 10 29 -2 40 -4 5 -5 3 -1 -4 3 -6
2 -14 -3 -17 -5 -4 -8 2 -6 11 1 11 10 17 21 16 17 -1 16 1 -3 14 -19 13 -20
17 -8 29 11 11 12 21 4 42 -16 40 -19 63 -8 57 13 -9 11 9 -3 24 -10 11 -10
13 0 7 7 -5 12 -1 12 9 0 10 -5 13 -12 9 -7 -5 -8 -3 -4 5 5 7 15 10 23 6 13
-4 13 -3 4 9 -9 11 -9 15 1 19 11 4 10 6 0 6 -7 1 -10 6 -6 13 5 8 1 9 -12 4
-15 -6 -17 -5 -6 5 14 15 16 33 2 24 -6 -3 -10 -1 -10 4 0 6 7 11 15 11 8 0
15 5 15 11 0 6 -6 9 -13 6 -9 -3 -13 4 -12 23 0 18 4 25 10 20 6 -5 10 5 11
27 1 21 -2 30 -7 22 -4 -7 -5 -17 -2 -23 3 -5 1 -6 -5 -3 -13 9 -4 47 12 47 6
0 4 5 -6 10 -9 6 -15 16 -14 23 6 29 19 46 30 41 6 -3 0 4 -13 15 -21 19 -21
21 -5 21 15 0 16 2 5 9 -7 5 -11 13 -7 19 3 6 0 13 -6 16 -7 4 -2 4 12 2 23
-5 24 -4 7 9 -20 14 -30 85 -13 85 6 0 5 5 -2 12 -14 14 -16 32 -4 24 5 -3 9
1 9 9 0 8 -4 12 -8 10 -4 -3 -9 2 -13 10 -3 8 0 17 5 21 6 3 9 15 6 25 -3 10
-1 22 4 25 5 3 6 11 2 17 -12 19 -12 37 -1 37 5 0 2 7 -6 16 -9 8 -16 21 -16
27 0 7 4 6 10 -3 9 -13 10 -13 10 1 0 8 -6 21 -12 28 -11 11 -10 12 1 6 11 -6
13 -4 8 10 -4 9 -2 24 4 31 8 10 6 12 -11 9 -18 -3 -20 -2 -10 10 9 10 7 16
-7 24 -10 6 -12 11 -6 11 15 0 13 21 -2 32 -6 4 -2 8 9 8 13 0 16 -5 11 -17
-5 -15 -4 -16 7 -5 11 11 9 17 -12 33 -14 10 -18 17 -9 13 10 -3 20 0 25 7 4
8 3 10 -5 5 -8 -5 -11 2 -9 25 1 19 -3 34 -10 37 -6 2 -12 8 -12 13 0 6 4 8 8
5 4 -2 8 6 8 20 0 13 -3 24 -6 24 -4 0 -7 7 -7 15 0 8 5 15 11 15 5 0 1 7 -10
16 -18 15 -18 15 0 10 16 -5 17 -4 7 8 -7 8 -10 20 -6 26 3 5 -2 10 -12 11
-16 0 -16 1 2 9 11 5 14 9 7 9 -10 1 -10 6 -2 21 8 15 8 18 -3 14 -8 -3 -14 2
-14 11 0 10 6 14 16 10 12 -5 13 -3 4 6 -6 6 -9 18 -6 25 7 20 -7 17 -24 -3
-13 -16 -13 -16 -4 4 14 28 14 36 -1 27 -10 -6 -10 -4 0 7 13 15 17 43 4 35
-5 -3 -9 2 -9 10 0 9 6 13 16 9 11 -3 10 0 -3 10 -11 8 -15 15 -9 15 15 0 10
47 -5 62 -15 15 -16 42 -2 33 6 -4 7 -11 4 -17 -5 -7 -2 -8 6 -3 10 6 6 14
-16 33 -26 23 -27 25 -6 20 12 -4 20 -2 16 3 -3 5 -11 9 -19 9 -8 0 -17 5 -21
12 -4 6 -3 8 4 4 6 -4 10 1 9 13 0 11 -5 17 -9 15 -4 -3 -8 2 -8 11 0 9 5 13
10 10 6 -3 10 -2 10 4 0 5 -9 9 -20 8 -12 -1 -18 -7 -16 -14 3 -7 -1 -10 -9
-6 -8 3 -12 10 -8 17 4 6 -1 5 -11 -3 -13 -11 -14 -16 -4 -23 9 -7 4 -8 -14
-5 -22 3 -26 1 -19 -12 7 -12 4 -16 -12 -17 -47 -4 -62 -11 -59 -30 2 -11 1
-16 -4 -12 -4 4 -14 2 -22 -5 -13 -9 -14 -9 -8 1 4 6 5 12 2 12 -3 0 -12 -13
-21 -30 -9 -16 -21 -30 -28 -30 -8 0 -7 4 3 10 8 5 10 10 4 10 -19 0 -47 -38
-38 -52 6 -11 5 -11 -8 0 -12 10 -18 9 -28 -3 -11 -13 -10 -15 6 -9 18 5 18 5
1 -6 -9 -6 -22 -8 -27 -5 -6 3 -10 1 -10 -5 0 -6 -5 -8 -12 -4 -8 5 -7 0 2
-11 8 -10 10 -16 3 -12 -6 4 -14 1 -16 -5 -4 -10 -6 -10 -6 0 -2 21 -21 13
-21 -9 0 -11 -5 -17 -10 -14 -6 4 -8 11 -5 16 10 15 -2 10 -16 -8 -10 -11 -10
-14 -1 -9 7 4 12 1 12 -9 0 -11 -6 -15 -19 -10 -12 3 -21 0 -25 -10 -3 -9 -10
-14 -15 -11 -5 3 -15 -2 -22 -11 -10 -12 -10 -14 -1 -9 7 4 12 2 12 -5 0 -6
-8 -9 -19 -6 -13 3 -18 0 -15 -8 8 -20 -15 -29 -33 -13 -13 10 -13 7 2 -17 10
-16 12 -24 5 -17 -16 14 -34 16 -25 3 9 -16 -16 -25 -27 -10 -7 11 -8 9 -6 -6
2 -14 -3 -21 -19 -23 -13 -2 -23 -8 -23 -13 0 -6 5 -7 12 -3 7 5 8 3 3 -6 -6
-10 -11 -9 -23 6 -13 18 -14 18 -7 -6 4 -14 4 -22 0 -18 -5 4 -14 0 -22 -10
-8 -9 -11 -11 -7 -3 5 10 3 12 -6 6 -10 -6 -9 -11 5 -21 16 -12 15 -13 -12
-10 -25 4 -30 1 -26 -14 4 -14 -1 -17 -21 -15 -14 2 -24 0 -21 -5 3 -4 -2 -11
-11 -14 -11 -4 -13 -12 -8 -28 6 -21 6 -21 -10 -5 -10 9 -23 17 -29 16 -8 0
-8 -2 1 -6 6 -2 9 -10 6 -15 -5 -7 -2 -8 7 -3 8 5 -1 -6 -20 -23 -41 -39 -53
-42 -20 -5 17 20 18 23 3 10 -11 -9 -24 -14 -28 -10 -4 5 -6 1 -4 -7 2 -8 -3
-14 -10 -12 -10 2 -10 -2 -1 -20 11 -21 11 -22 -4 -9 -15 12 -17 11 -17 -5 0
-16 -2 -17 -10 -4 -8 13 -10 12 -11 -5 -1 -11 -1 -23 0 -27 0 -5 -5 -7 -12 -5
-6 1 -11 -4 -9 -11 1 -8 -2 -11 -8 -7 -8 5 -6 13 6 26 28 31 10 21 -22 -12
-23 -24 -25 -29 -9 -24 16 5 17 5 5 -3 -9 -7 -18 -7 -26 -1 -8 7 -11 3 -10
-13 0 -14 -4 -22 -11 -21 -7 2 -13 -1 -13 -7 0 -5 -8 -6 -17 -3 -16 6 -16 4
-5 -9 11 -14 11 -16 -6 -12 -10 3 -25 -2 -33 -12 -9 -11 -9 -15 -1 -10 6 4 12
2 12 -3 0 -6 -10 -11 -22 -11 -19 0 -20 -2 -8 -11 12 -9 11 -10 -7 -6 -13 3
-24 -1 -27 -10 -4 -9 -2 -11 6 -7 6 4 8 3 4 -4 -3 -6 -15 -9 -26 -7 -21 4 -42
-16 -38 -35 2 -7 -3 -15 -11 -18 -10 -3 -11 0 -5 9 6 12 5 11 -10 0 -13 -11
-14 -16 -4 -23 9 -7 6 -8 -10 -5 -18 4 -21 3 -12 -8 8 -10 8 -15 -1 -21 -8 -4
-9 -3 -5 4 4 7 1 12 -8 12 -9 0 -15 -6 -13 -12 1 -7 -6 -12 -16 -11 -10 0 -16
-2 -13 -5 9 -8 -15 -33 -25 -26 -5 3 -9 0 -9 -5 0 -15 11 -14 31 5 13 12 19
12 25 3 4 -7 3 -10 -3 -6 -6 4 -18 -2 -28 -13 -14 -15 -21 -17 -32 -9 -11 10
-12 8 -7 -6 5 -13 4 -16 -4 -11 -7 4 -12 1 -12 -10 0 -14 -2 -15 -17 -3 -15
13 -15 12 -3 -11 12 -23 12 -24 -3 -11 -15 12 -17 11 -17 -3 0 -19 -11 -21
-30 -3 -12 10 -12 9 -2 -4 10 -14 10 -18 -4 -23 -9 -3 -14 -13 -11 -21 4 -9 1
-12 -9 -8 -11 4 -15 0 -12 -13 2 -15 -2 -19 -22 -17 -14 1 -19 0 -12 -3 17 -8
15 -27 -3 -20 -10 3 -15 -1 -16 -12 0 -10 -3 -12 -6 -4 -2 6 -9 12 -14 12 -4
0 -6 -6 -3 -14 3 -8 0 -17 -7 -22 -8 -5 -10 -3 -4 6 6 9 4 11 -4 6 -7 -5 -10
-14 -7 -22 3 -7 0 -16 -6 -20 -7 -4 -8 -3 -4 4 4 7 3 12 -3 12 -5 0 -13 -9
-16 -20 -5 -14 -14 -20 -28 -18 -16 2 -21 -2 -19 -14 2 -12 -2 -16 -12 -12
-14 5 -29 -10 -32 -33 -3 -18 -44 -73 -55 -73 -5 0 -9 6 -9 13 0 6 -5 4 -11
-6 -6 -9 -14 -15 -20 -12 -5 4 -9 1 -9 -5 0 -7 9 -9 23 -5 21 6 21 5 2 -6 -11
-7 -25 -19 -31 -27 -6 -9 -18 -13 -28 -9 -13 5 -15 3 -7 -12 9 -16 7 -17 -15
-13 -19 3 -23 1 -18 -12 5 -12 2 -15 -10 -10 -12 5 -15 2 -9 -12 4 -12 3 -15
-6 -10 -8 6 -11 2 -9 -10 2 -11 -2 -18 -9 -17 -12 3 -17 -10 -14 -30 1 -4 -8
-3 -20 3 -11 7 -23 9 -27 6 -3 -3 -1 -6 5 -6 5 0 10 -7 10 -15 0 -8 -4 -12 -8
-10 -4 3 -10 -2 -13 -11 -3 -8 -10 -12 -16 -9 -5 3 -10 2 -10 -4 0 -5 -8 -11
-17 -13 -10 -2 -18 -12 -18 -22 0 -11 -6 -21 -14 -24 -9 -3 -11 0 -6 8 6 9 4
11 -4 6 -7 -5 -10 -15 -7 -23 3 -8 1 -11 -4 -8 -6 3 -10 1 -10 -5 0 -6 -4 -9
-9 -5 -5 3 -13 0 -17 -6 -4 -8 -3 -9 4 -5 7 4 12 3 12 -2 0 -10 -37 -25 -53
-23 -5 1 -6 -3 -2 -9 4 -7 13 -7 28 1 21 10 21 10 3 -5 -11 -9 -23 -16 -28
-16 -4 0 -7 -6 -5 -12 1 -7 -6 -12 -15 -10 -9 1 -20 -3 -24 -9 -5 -8 -3 -9 7
-4 12 8 12 6 0 -9 -11 -13 -16 -14 -23 -4 -7 9 -8 4 -5 -14 2 -15 1 -25 -4
-23 -4 3 -9 2 -12 -2 -2 -5 -2 -1 0 7 3 11 1 12 -7 4 -6 -6 -12 -20 -13 -32
-1 -17 -5 -19 -19 -11 -13 7 -18 6 -16 -3 2 -7 -2 -12 -8 -11 -7 1 -11 -5 -10
-15 0 -9 -5 -16 -11 -15 -12 3 -14 -1 -17 -37 -1 -8 -8 -14 -15 -12 -9 2 -11
-3 -7 -14 6 -15 4 -15 -11 -3 -11 9 -14 10 -9 2 5 -9 1 -13 -11 -13 -15 0 -16
-2 -3 -10 14 -9 7 -14 -13 -11 -5 1 -5 -9 -2 -21 7 -23 7 -23 -10 -3 -9 11
-14 15 -11 8 4 -6 2 -14 -4 -18 -5 -3 -10 -15 -10 -26 0 -17 -3 -18 -20 -9
-16 8 -20 8 -18 -2 2 -7 -3 -12 -9 -11 -7 2 -13 -2 -13 -7 0 -6 5 -10 11 -10
5 0 7 -5 4 -10 -4 -6 -10 -8 -15 -5 -4 3 -13 -2 -20 -10 -7 -8 -16 -12 -21 -9
-5 3 -5 -6 0 -19 8 -20 5 -29 -13 -46 -12 -12 -27 -18 -31 -14 -5 5 -3 -1 5
-12 8 -11 11 -17 6 -13 -4 3 -20 2 -36 -2 -22 -6 -28 -5 -24 5 3 7 0 16 -7 21
-7 4 -10 3 -5 -4 3 -6 3 -13 -2 -16 -4 -2 -9 4 -9 15 -1 10 3 19 8 19 6 0 7 5
4 10 -5 8 -11 7 -21 -1 -12 -10 -13 -9 -8 4 4 12 -2 20 -20 29 -19 8 -23 14
-14 20 11 6 10 8 0 8 -7 0 -10 4 -7 10 3 5 0 7 -9 4 -11 -4 -14 0 -11 15 3 18
1 20 -16 11 -10 -6 -18 -7 -17 -3 5 21 -16 52 -45 67 l-32 17 35 -5 c34 -6 34
-5 7 5 -16 7 -24 15 -20 22 4 8 1 7 -9 -1 -13 -11 -16 -10 -14 4 0 9 -6 19
-14 21 -13 4 -13 3 0 -7 13 -10 13 -11 0 -7 -8 2 -15 9 -15 15 0 6 -10 19 -23
28 -18 13 -21 19 -11 30 10 12 9 13 -6 8 -14 -6 -16 -3 -11 17 3 13 3 18 0 11
-4 -9 -10 -7 -22 6 -10 10 -13 13 -9 6 5 -7 3 -15 -4 -20 -7 -4 -9 -3 -5 4 3
6 1 14 -5 17 -5 4 -8 14 -4 22 5 13 3 14 -10 3 -9 -7 -15 -9 -14 -4 6 19 -13
55 -26 50 -7 -2 -16 2 -19 10 -4 10 -2 13 7 8 7 -5 6 -1 -3 10 -13 17 -14 17
-20 0 -6 -16 -7 -15 -12 4 -4 13 -1 22 5 23 7 0 -3 5 -22 11 -23 6 -30 12 -22
17 10 6 9 10 -4 15 -9 3 -13 11 -10 18 4 7 0 5 -8 -5 -13 -16 -15 -16 -21 -2
-3 9 -2 13 4 10 6 -3 10 -1 10 4 0 6 -4 12 -10 12 -5 1 -15 2 -22 3 -6 0 -13
8 -15 16 -4 13 -3 13 6 0 7 -9 11 -10 11 -3 0 6 -6 15 -12 20 -13 8 -18 9 -38
12 -5 0 -6 9 -3 19 6 15 5 15 -10 4 -14 -12 -16 -11 -12 7 2 14 -1 21 -11 21
-9 0 -12 -5 -8 -12 4 -7 3 -9 -1 -5 -9 7 -15 28 -17 54 -1 10 -4 10 -17 0 -10
-8 -13 -8 -8 0 4 7 -1 14 -13 18 -17 5 -19 9 -9 21 10 12 9 13 -6 8 -12 -5
-16 -4 -12 3 4 6 -2 18 -13 28 -11 10 -20 13 -20 7 0 -6 6 -13 13 -15 9 -4 9
-6 -1 -6 -7 -1 -18 10 -24 24 -8 18 -14 22 -24 14 -9 -8 -11 -5 -7 10 3 13 1
21 -6 21 -7 0 -9 -5 -5 -12 5 -9 2 -8 -9 1 -14 11 -15 17 -5 30 7 9 8 13 4 9
-5 -5 -15 1 -23 12 -8 11 -21 20 -30 20 -9 0 -13 6 -10 14 4 10 0 12 -16 8
-19 -5 -20 -3 -9 11 12 14 11 16 -6 12 -12 -2 -27 4 -34 13 -10 12 -10 14 0 8
6 -4 12 -2 12 3 0 6 -8 11 -17 11 -9 0 -13 3 -9 7 4 4 -10 13 -31 20 -30 10
-32 12 -8 8 l30 -5 -35 19 c-19 11 -38 17 -42 15 -3 -2 -4 6 -1 18 5 23 5 23
-11 3 -10 -11 -15 -15 -12 -8 8 14 -3 43 -16 43 -5 0 -6 -4 -3 -10 3 -6 -1 -7
-10 -3 -13 5 -14 7 -3 14 11 7 10 11 -2 18 -8 5 -18 7 -22 5 -4 -3 -8 0 -8 6
0 6 -4 9 -9 6 -5 -4 -7 4 -4 16 3 13 2 20 -2 16 -4 -4 -14 0 -22 10 -8 9 -11
11 -7 3 5 -10 3 -12 -5 -7 -9 6 -9 11 1 24 10 12 10 14 1 8 -7 -4 -13 -3 -13
3 0 6 -7 8 -15 5 -12 -5 -14 -2 -8 12 6 17 5 17 -10 5 -14 -11 -18 -11 -23 2
-3 9 -14 19 -25 22 -10 4 -19 14 -19 24 0 26 -11 33 -28 18 -10 -7 -13 -8 -9
-1 4 6 -5 24 -18 38 -14 15 -25 32 -25 39 0 8 -4 6 -11 -3 -9 -12 -10 -10 -6
8 5 19 3 21 -9 11 -11 -9 -14 -8 -14 7 -1 18 -1 18 -15 0 -17 -23 -20 -14 -5
14 7 13 7 21 -2 26 -6 4 -8 3 -5 -3 4 -6 0 -13 -8 -16 -9 -4 -12 -1 -8 9 5 12
-7 19 -29 15 -5 0 -8 4 -8 10 0 5 -5 7 -12 3 -8 -5 -9 -2 -5 10 5 14 3 17 -8
12 -8 -3 -15 -1 -15 5 0 6 -6 7 -12 3 -9 -5 -9 -2 1 9 9 12 10 17 2 17 -7 0
-9 5 -5 11 5 8 1 8 -14 0 -15 -8 -23 -8 -28 1 -4 6 -3 9 2 6 5 -3 15 1 23 9
12 13 11 14 -5 9 -13 -4 -26 3 -43 24 -13 17 -32 30 -42 30 -11 0 -19 5 -19
11 0 5 6 7 13 3 8 -5 8 -3 -2 9 -12 15 -31 15 -31 1 0 -3 5 -2 12 2 7 4 8 3 4
-5 -6 -9 -11 -9 -22 -1 -7 7 -13 15 -12 18 0 4 0 14 -1 22 -1 13 -2 13 -11 0
-7 -11 -10 -11 -10 -2 0 8 -5 10 -12 6 -8 -5 -9 -2 -5 10 5 13 1 19 -13 23
-11 3 -17 10 -13 17 4 6 0 5 -9 -2 -14 -11 -16 -10 -12 10 2 13 2 17 -2 11 -3
-7 -10 -13 -15 -13 -6 0 -7 5 -4 10 3 6 1 10 -5 10 -6 0 -8 5 -4 13 5 7 2 7
-10 -2 -9 -8 -16 -10 -15 -5 4 23 -3 34 -20 34 -11 0 -23 9 -26 20 -4 12 -15
20 -28 20 -20 0 -20 1 -2 13 14 11 15 16 5 22 -9 5 -11 4 -6 -3 5 -8 0 -12
-13 -12 -12 0 -21 5 -21 11 0 5 -6 7 -12 3 -8 -5 -8 -1 2 12 8 10 10 16 6 12
-5 -4 -21 1 -35 11 -14 10 -28 18 -31 18 -3 0 -13 4 -24 10 -12 7 -15 13 -7
17 14 9 14 26 0 26 -5 0 -7 -4 -4 -10 9 -15 -21 -12 -34 3 -6 8 -9 16 -6 18 2
3 -11 13 -30 24 -19 10 -35 22 -35 27 0 5 5 6 12 2 7 -4 8 -3 4 5 -6 9 -11 9
-24 -1 -14 -12 -14 -10 -2 12 10 21 10 23 -1 13 -16 -16 -33 -17 -23 -1 5 8 2
9 -10 5 -9 -4 -15 -3 -13 1 3 4 1 16 -4 27 -6 16 -8 17 -8 3 -1 -9 -5 -19 -10
-22 -4 -3 -7 6 -5 19 1 14 -2 22 -7 19 -6 -3 -17 0 -26 8 -14 11 -16 11 -8 -1
5 -10 4 -12 -3 -7 -7 4 -12 14 -12 22 0 8 -5 14 -11 14 -15 0 -39 26 -32 34 4
3 1 6 -5 6 -6 0 -14 -5 -17 -10 -4 -6 -11 -8 -16 -4 -6 4 -6 11 2 20 9 11 7
14 -9 14 -11 0 -23 -6 -26 -12 -3 -7 -3 -2 0 11 5 20 3 23 -11 17 -13 -4 -16
-2 -11 9 3 8 1 15 -5 15 -6 0 -7 5 -3 12 4 7 3 8 -5 4 -6 -4 -9 -12 -6 -17 3
-5 -1 -6 -10 -3 -12 5 -13 9 -4 20 10 12 9 13 -5 8 -11 -4 -23 1 -32 12 -9 11
-13 14 -10 8 3 -6 -1 -11 -8 -11 -9 0 -12 7 -8 15 4 11 1 14 -11 9 -11 -4 -17
-1 -17 8 0 8 -5 15 -11 15 -5 0 -7 -4 -4 -10z m-22 -75 c-3 -9 -8 -14 -10 -11
-3 3 -2 9 2 15 9 16 15 13 8 -4z m4997 -85 c0 -5 -5 -10 -11 -10 -5 0 -7 5 -4
10 3 6 8 10 11 10 2 0 4 -4 4 -10z m340 -454 c0 -3 -4 -8 -10 -11 -5 -3 -10
-1 -10 4 0 6 5 11 10 11 6 0 10 -2 10 -4z m-5408 -43 c-10 -4 -10 -8 0 -21 12
-15 11 -16 -4 -3 -19 14 -15 32 5 30 8 0 8 -2 -1 -6z m1053 -73 c3 -6 -1 -7
-9 -4 -18 7 -21 14 -7 14 6 0 13 -4 16 -10z m4355 -70 c0 -5 -5 -10 -11 -10
-5 0 -7 5 -4 10 3 6 8 10 11 10 2 0 4 -4 4 -10z m-1266 -121 c-3 -5 -10 -7
-15 -3 -5 3 -7 10 -3 15 3 5 10 7 15 3 5 -3 7 -10 3 -15z m1296 -333 c0 -3 -4
-8 -10 -11 -5 -3 -10 -1 -10 4 0 6 5 11 10 11 6 0 10 -2 10 -4z m-1800 -106
c0 -5 -5 -10 -11 -10 -5 0 -7 5 -4 10 3 6 8 10 11 10 2 0 4 -4 4 -10z m-3662
-65 c-3 -3 -9 2 -12 12 -6 14 -5 15 5 6 7 -7 10 -15 7 -18z m1857 -6 c11 -16
1 -19 -13 -3 -7 8 -8 14 -3 14 5 0 13 -5 16 -11z m3605 -103 c0 -3 -4 -8 -10
-11 -5 -3 -10 -1 -10 4 0 6 5 11 10 11 6 0 10 -2 10 -4z m-715 -94 c-3 -3 -11
0 -18 7 -9 10 -8 11 6 5 10 -3 15 -9 12 -12z m-4030 -81 c3 -5 2 -12 -3 -15
-5 -3 -9 1 -9 9 0 17 3 19 12 6z m-720 -51 c3 -5 1 -10 -4 -10 -6 0 -11 5 -11
10 0 6 2 10 4 10 3 0 8 -4 11 -10z m5972 -175 c0 -8 -4 -12 -9 -9 -5 3 -6 10
-3 15 9 13 12 11 12 -6z m-223 -11 c3 -8 2 -12 -4 -9 -6 3 -10 10 -10 16 0 14
7 11 14 -7z m-4424 -54 c0 -5 -2 -10 -4 -10 -3 0 -8 5 -11 10 -3 6 -1 10 4 10
6 0 11 -4 11 -10z m4944 -2 c-3 -4 -11 -5 -19 -1 -21 7 -19 12 4 10 11 0 18
-5 15 -9z m-58 -36 c-17 -16 -18 -16 -5 5 7 12 15 20 18 17 3 -2 -3 -12 -13
-22z m-2335 -195 c-10 -9 -11 -8 -5 6 3 10 9 15 12 12 3 -3 0 -11 -7 -18z
m-1047 -8 c-3 -5 -10 -7 -15 -3 -5 3 -7 10 -3 15 3 5 10 7 15 3 5 -3 7 -10 3
-15z m1911 1 c3 -5 1 -10 -4 -10 -6 0 -11 5 -11 10 0 6 2 10 4 10 3 0 8 -4 11
-10z m-1 -86 c3 -8 2 -12 -4 -9 -6 3 -10 10 -10 16 0 14 7 11 14 -7z m-2944
-114 c0 -5 -2 -10 -4 -10 -3 0 -8 5 -11 10 -3 6 -1 10 4 10 6 0 11 -4 11 -10z
m2950 -154 c0 -2 -7 -7 -16 -10 -8 -3 -12 -2 -9 4 6 10 25 14 25 6z m-4906
-65 c-2 -3 -12 3 -22 13 -16 17 -16 18 5 5 12 -7 20 -15 17 -18z m3621 19 c-3
-5 -12 -10 -18 -10 -7 0 -6 4 3 10 19 12 23 12 15 0z m-2724 -37 c13 -17 13
-17 -6 -3 -11 8 -22 16 -24 17 -2 2 0 3 6 3 6 0 17 -8 24 -17z m2464 -352 c3
-5 0 -13 -6 -17 -7 -4 -9 -3 -5 4 3 5 0 13 -6 15 -9 4 -10 6 -1 6 6 1 14 -3
18 -8z m1510 -69 c-3 -3 -11 0 -18 7 -9 10 -8 11 6 5 10 -3 15 -9 12 -12z
m690 -22 c3 -5 1 -10 -4 -10 -6 0 -11 5 -11 10 0 6 2 10 4 10 3 0 8 -4 11 -10z
m-2685 -540 c0 -5 -5 -10 -12 -10 -6 0 -8 -3 -5 -7 4 -3 16 2 27 12 11 10 21
15 21 12 1 -4 3 -11 4 -17 1 -5 3 -17 4 -26 1 -9 6 -12 14 -8 9 6 9 5 1 -7 -9
-11 -9 -17 1 -26 7 -6 16 -9 21 -5 4 4 4 2 1 -5 -4 -6 -4 -13 0 -16 5 -2 2 -2
-4 -1 -18 5 -16 -13 2 -20 8 -3 15 -10 15 -16 0 -6 -4 -8 -10 -5 -6 3 -7 -1
-4 -9 3 -9 11 -13 17 -9 7 4 8 -8 4 -36 -4 -36 -3 -40 7 -25 12 16 13 15 12
-7 -1 -13 -4 -29 -8 -34 -8 -13 16 -47 27 -37 5 4 4 0 -1 -8 -5 -8 -7 -23 -5
-34 2 -12 -1 -16 -10 -11 -8 5 -10 4 -5 -4 6 -9 11 -9 22 0 8 6 17 9 21 5 3
-3 1 -6 -5 -6 -6 0 -9 -7 -6 -15 4 -8 1 -22 -6 -30 -11 -13 -10 -14 4 -9 19 7
22 -12 4 -19 -10 -4 -9 -8 2 -16 14 -10 8 -15 -15 -12 -5 1 -1 -6 9 -14 11 -8
14 -15 8 -15 -7 0 -12 -7 -12 -16 0 -9 -5 -12 -12 -8 -7 4 -8 3 -4 -5 4 -6 11
-9 16 -6 5 3 11 1 14 -4 4 -5 1 -13 -5 -17 -8 -5 -9 -3 -4 6 6 9 4 11 -4 6 -9
-6 -9 -12 3 -25 16 -17 12 -31 -7 -31 -5 0 -6 7 -3 16 3 8 2 13 -3 10 -5 -3
-11 -14 -14 -25 -3 -14 -1 -18 9 -14 10 4 12 0 8 -11 -3 -9 -9 -14 -13 -12 -4
3 -6 -9 -5 -25 2 -26 0 -28 -14 -17 -10 8 -13 8 -9 1 10 -16 -3 -44 -17 -36
-6 3 -2 -4 9 -17 11 -13 15 -20 8 -16 -7 4 -22 -3 -34 -15 -20 -20 -20 -22 -3
-16 17 6 17 6 3 -6 -9 -7 -18 -21 -20 -32 -3 -11 -9 -20 -16 -20 -6 0 -15 -3
-19 -7 -4 -5 -12 -8 -18 -8 -5 0 -1 6 9 14 11 8 24 12 29 9 5 -4 6 -1 2 5 -4
7 -15 8 -30 2 -25 -9 -36 -5 -36 14 0 6 5 4 10 -4 8 -13 10 -13 10 1 0 15 -25
34 -41 31 -4 -1 -5 8 -2 18 3 11 0 20 -6 20 -6 0 -11 9 -11 20 0 11 -5 20 -11
20 -9 0 -9 4 0 14 9 10 4 19 -21 40 -17 14 -27 26 -21 26 7 0 15 -5 18 -10 4
-6 11 -8 16 -4 5 3 -1 14 -13 25 -13 12 -17 17 -9 13 11 -6 13 -3 6 12 -4 10
-7 27 -7 37 0 9 -3 15 -7 13 -13 -8 -6 51 8 68 11 13 11 17 -3 22 -9 3 -16 10
-16 16 0 5 6 6 13 2 7 -5 6 0 -3 11 -14 17 -13 18 3 12 12 -4 16 -3 11 4 -4 6
0 16 7 21 10 6 6 7 -11 3 -14 -3 -20 -3 -14 2 6 4 10 16 8 25 -1 10 2 20 6 23
5 3 7 -4 5 -15 -2 -11 0 -18 4 -16 4 3 7 28 7 56 -1 27 3 50 8 50 5 0 6 3 3 7
-4 3 -1 13 6 21 9 13 9 14 0 8 -20 -11 -15 5 5 20 19 14 23 35 7 46 -6 5 -2 8
8 8 15 0 16 3 6 21 -8 15 -8 19 0 15 6 -4 11 0 11 11 0 15 2 16 11 3 8 -12 9
-10 7 10 -2 14 2 25 9 25 6 0 15 4 20 9 4 5 3 6 -4 2 -15 -8 -25 8 -17 28 7
18 24 22 24 6z m-75 -159 c3 -5 2 -12 -3 -15 -5 -3 -9 1 -9 9 0 17 3 19 12 6z
m205 -121 c0 -5 -2 -10 -4 -10 -3 0 -8 5 -11 10 -3 6 -1 10 4 10 6 0 11 -4 11
-10z m-830 -40 c0 -5 -5 -10 -11 -10 -5 0 -7 5 -4 10 3 6 8 10 11 10 2 0 4 -4
4 -10z m605 -340 c3 -5 1 -10 -4 -10 -6 0 -11 5 -11 10 0 6 2 10 4 10 3 0 8
-4 11 -10z m215 -34 c0 -3 -4 -8 -10 -11 -5 -3 -10 -1 -10 4 0 6 5 11 10 11 6
0 10 -2 10 -4z m1514 -252 c3 -8 2 -12 -4 -9 -6 3 -10 10 -10 16 0 14 7 11 14
-7z m-2963 -431 c13 -16 12 -17 -3 -4 -10 7 -18 15 -18 17 0 8 8 3 21 -13z
m2774 -133 c-3 -5 -12 -10 -18 -10 -7 0 -6 4 3 10 19 12 23 12 15 0z m-2745
-110 c0 -5 -2 -10 -4 -10 -3 0 -8 5 -11 10 -3 6 -1 10 4 10 6 0 11 -4 11 -10z
m299 -163 c8 -10 7 -14 -2 -14 -8 0 -14 6 -14 14 0 7 1 13 2 13 2 0 8 -6 14
-13z m2036 -7 c-3 -5 -11 -10 -16 -10 -6 0 -7 5 -4 10 3 6 11 10 16 10 6 0 7
-4 4 -10z m70 -9 c3 -5 0 -13 -6 -17 -7 -4 -9 -3 -5 4 3 5 0 13 -6 15 -9 4
-10 6 -1 6 6 1 14 -3 18 -8z"/>
<path d="M1210 6200 c-9 -6 -10 -10 -3 -10 6 0 15 5 18 10 8 12 4 12 -15 0z"/>
<path d="M6575 6201 c-3 -5 -2 -12 3 -15 5 -3 9 1 9 9 0 17 -3 19 -12 6z"/>
<path d="M1850 6101 c0 -7 -5 -9 -12 -5 -7 5 -8 3 -3 -5 5 -9 10 -10 18 -2 6
6 8 14 4 18 -4 3 -7 1 -7 -6z"/>
<path d="M6633 5175 c0 -8 4 -12 9 -9 5 3 6 10 3 15 -9 13 -12 11 -12 -6z"/>
<path d="M4775 5082 c3 -3 0 -11 -7 -19 -6 -7 -9 -16 -6 -19 3 -2 12 6 21 19
13 20 13 24 1 24 -8 0 -12 -3 -9 -5z"/>
<path d="M6653 4875 c0 -8 4 -12 9 -9 5 3 6 10 3 15 -9 13 -12 11 -12 -6z"/>
<path d="M6640 4840 c-9 -6 -10 -10 -3 -10 6 0 15 5 18 10 8 12 4 12 -15 0z"/>
<path d="M2074 4809 c-4 -7 -3 -9 4 -5 5 3 13 0 15 -6 4 -9 6 -10 6 -1 1 17
-16 25 -25 12z"/>
<path d="M1893 4610 c1 -21 10 -18 13 5 1 8 -2 15 -6 15 -5 0 -8 -9 -7 -20z"/>
<path d="M907 4559 c7 -7 15 -10 18 -7 3 3 -2 9 -12 12 -14 6 -15 5 -6 -5z"/>
<path d="M5305 4480 c-3 -5 -1 -10 4 -10 6 0 11 5 11 10 0 6 -2 10 -4 10 -3 0
-8 -4 -11 -10z"/>
<path d="M5907 4483 c-4 -3 -7 -11 -7 -17 0 -6 5 -5 12 2 6 6 9 14 7 17 -3 3
-9 2 -12 -2z"/>
<path d="M3600 4476 c0 -3 9 -10 19 -16 15 -7 22 -7 27 2 4 7 4 10 -1 6 -4 -4
-16 -3 -26 3 -11 5 -19 7 -19 5z"/>
<path d="M5886 4438 c3 -5 10 -6 15 -3 13 9 11 12 -6 12 -8 0 -12 -4 -9 -9z"/>
<path d="M1896 4398 c3 -5 10 -6 15 -3 13 9 11 12 -6 12 -8 0 -12 -4 -9 -9z"/>
<path d="M7330 4400 c-9 -6 -10 -10 -3 -10 6 0 15 5 18 10 8 12 4 12 -15 0z"/>
<path d="M7269 4343 c-12 -16 -12 -17 2 -6 9 7 20 9 24 5 5 -4 5 -1 1 6 -9 16
-11 15 -27 -5z"/>
<path d="M1890 4341 c0 -6 4 -12 8 -15 5 -3 9 1 9 9 0 8 -4 15 -9 15 -4 0 -8
-4 -8 -9z"/>
<path d="M3750 4319 c0 -5 5 -7 10 -4 6 3 10 8 10 11 0 2 -4 4 -10 4 -5 0 -10
-5 -10 -11z"/>
<path d="M3954 4222 c3 -6 -2 -15 -11 -21 -10 -6 -13 -11 -7 -11 20 0 37 27
23 36 -7 4 -9 3 -5 -4z"/>
<path d="M1896 4198 c3 -5 10 -6 15 -3 13 9 11 12 -6 12 -8 0 -12 -4 -9 -9z"/>
<path d="M4915 4121 c-3 -5 -2 -12 3 -15 5 -3 9 1 9 9 0 17 -3 19 -12 6z"/>
<path d="M1906 3975 c-9 -26 -7 -32 5 -12 6 10 9 21 6 23 -2 3 -7 -2 -11 -11z"/>
<path d="M2986 3978 c3 -5 10 -6 15 -3 13 9 11 12 -6 12 -8 0 -12 -4 -9 -9z"/>
<path d="M3060 3925 c-7 -9 -8 -15 -2 -15 5 0 12 7 16 15 3 8 4 15 2 15 -2 0
-9 -7 -16 -15z"/>
<path d="M4590 3780 c0 -5 5 -10 11 -10 5 0 7 5 4 10 -3 6 -8 10 -11 10 -2 0
-4 -4 -4 -10z"/>
<path d="M6727 3696 c-4 -10 -1 -13 8 -9 8 3 12 9 9 14 -7 12 -11 11 -17 -5z"/>
<path d="M1160 3481 c0 -6 4 -13 10 -16 6 -3 7 1 4 9 -7 18 -14 21 -14 7z"/>
<path d="M4401 3393 c-1 -17 16 -25 25 -12 4 7 3 9 -4 5 -5 -3 -13 0 -15 6 -4
9 -6 10 -6 1z"/>
<path d="M1936 3273 c-6 -14 -5 -15 5 -6 7 7 10 15 7 18 -3 3 -9 -2 -12 -12z"/>
<path d="M6520 3199 c0 -5 5 -7 10 -4 6 3 10 8 10 11 0 2 -4 4 -10 4 -5 0 -10
-5 -10 -11z"/>
<path d="M1940 3140 c0 -5 5 -10 11 -10 5 0 7 5 4 10 -3 6 -8 10 -11 10 -2 0
-4 -4 -4 -10z"/>
<path d="M1446 2727 c3 -10 9 -15 12 -12 3 3 0 11 -7 18 -10 9 -11 8 -5 -6z"/>
<path d="M1500 2595 c-11 -13 -10 -14 4 -9 9 3 16 10 16 15 0 13 -6 11 -20 -6z"/>
<path d="M4630 2560 c-9 -6 -10 -10 -3 -10 6 0 15 5 18 10 8 12 4 12 -15 0z"/>
<path d="M2040 2540 c-9 -6 -10 -10 -3 -10 6 0 15 5 18 10 8 12 4 12 -15 0z"/>
<path d="M2060 2422 c0 -5 7 -15 15 -22 8 -7 15 -9 15 -6 0 4 -7 14 -15 22 -8
9 -15 11 -15 6z"/>
<path d="M1600 2401 c0 -6 4 -13 10 -16 6 -3 7 1 4 9 -7 18 -14 21 -14 7z"/>
<path d="M4589 2338 c-6 -21 -5 -37 2 -32 5 3 7 9 4 14 -3 4 1 11 7 13 10 4
10 6 1 6 -7 1 -13 0 -14 -1z"/>
<path d="M1659 2297 c6 -8 7 -18 3 -22 -4 -5 -1 -5 6 -1 10 6 10 11 1 22 -6 8
-14 14 -16 14 -3 0 0 -6 6 -13z"/>
<path d="M5676 2298 c3 -5 10 -6 15 -3 13 9 11 12 -6 12 -8 0 -12 -4 -9 -9z"/>
<path d="M6114 2289 c-4 -7 -3 -9 4 -5 5 3 13 0 15 -6 4 -9 6 -10 6 -1 1 17
-16 25 -25 12z"/>
<path d="M2104 2282 c4 -3 14 -7 22 -8 9 -1 13 0 10 4 -4 3 -14 7 -22 8 -9 1
-13 0 -10 -4z"/>
<path d="M3305 2109 c-4 -6 -5 -12 -2 -15 2 -3 7 2 10 11 7 17 1 20 -8 4z"/>
<path d="M4426 2053 c-6 -14 -5 -15 5 -6 7 7 10 15 7 18 -3 3 -9 -2 -12 -12z"/>
<path d="M2200 2025 c0 -7 30 -13 34 -7 3 4 -4 9 -15 9 -10 1 -19 0 -19 -2z"/>
<path d="M5927 1996 c-4 -10 -1 -13 8 -9 8 3 12 9 9 14 -7 12 -11 11 -17 -5z"/>
<path d="M2247 1949 c7 -7 15 -10 18 -7 3 3 -2 9 -12 12 -14 6 -15 5 -6 -5z"/>
<path d="M3590 1910 c0 -5 5 -10 11 -10 5 0 7 5 4 10 -3 6 -8 10 -11 10 -2 0
-4 -4 -4 -10z"/>
<path d="M5830 1855 c-11 -13 -10 -14 4 -9 9 3 16 10 16 15 0 13 -6 11 -20 -6z"/>
<path d="M5429 1773 c-13 -16 -12 -17 4 -4 16 13 21 21 13 21 -2 0 -10 -8 -17
-17z"/>
<path d="M2060 1720 c0 -6 7 -10 15 -10 8 0 15 2 15 4 0 2 -7 6 -15 10 -8 3
-15 1 -15 -4z"/>
<path d="M5621 1606 c-8 -10 -9 -16 -1 -21 6 -4 9 -1 8 7 -2 7 3 12 10 10 8
-1 11 2 7 8 -8 13 -10 13 -24 -4z"/>
<path d="M2256 1505 c4 -8 11 -15 16 -15 6 0 5 6 -2 15 -7 8 -14 15 -16 15 -2
0 -1 -7 2 -15z"/>
<path d="M2418 1333 c7 -3 16 -2 19 1 4 3 -2 6 -13 5 -11 0 -14 -3 -6 -6z"/>
<path d="M2646 1328 c3 -5 10 -6 15 -3 13 9 11 12 -6 12 -8 0 -12 -4 -9 -9z"/>
<path d="M5140 1329 c0 -5 5 -7 10 -4 6 3 10 8 10 11 0 2 -4 4 -10 4 -5 0 -10
-5 -10 -11z"/>
<path d="M4986 1138 c3 -5 10 -6 15 -3 13 9 11 12 -6 12 -8 0 -12 -4 -9 -9z"/>
</g>
</svg>
