<svg width="0" height="0" class="hidden">
    <symbol fill="none" xmlns="http://www.w3.org/2000/svg" viewBox="0 0 9 14" id="icon-arrow">
        <path d="m8 1-6 6 6 6" stroke="#5101a6" stroke-linecap="round" stroke-width="2"></path>
    </symbol>
    <symbol fill="none" xmlns="http://www.w3.org/2000/svg" viewBox="0 0 190 40" id="icon-logo">
        <g clip-rule="evenodd" fill-rule="evenodd">
            <g fill="#f2f2f2">
                <path
                    d="m10.1801 17.3341c1.8907 0 3.4036-.53 4.5385-1.59 1.1555-1.06 1.7335-2.5253 1.7335-4.3959 0-1.87058-.578-3.33587-1.7335-4.39586-1.1349-1.06-2.6478-1.58999-4.5385-1.58999h-3.93975v11.97175zm-10.1801-16.897485h10.4324c2.4164 0 4.5596.446763 6.4296 1.340585 1.8699.89382 3.3197 2.16146 4.3494 3.80351s1.5444 3.5644 1.5444 5.76759c0 2.2033-.5147 4.1256-1.5444 5.7677-1.0297 1.642-2.4795 2.9096-4.3494 3.8035-1.87.8938-4.0132 1.3408-6.4296 1.3408h-10.4324z"></path>
                <path d="m27.2995 22.26h6.2402v-21.823385h-6.2402z"></path>
                <path
                    d="m54.6168 13.2335h4.9212v9.0264c-1.5337 0-3.8892-.0135-5.5159 0-1.8158.015-2.1099 0-3.7485 0-2.3115 0-4.3935-.0415-6.2426-.9976-1.8489-.9768-3.2987-2.328-4.3492-4.053-1.0507-1.725-1.5758-3.6788-1.5758-5.8611 0-2.18236.5251-4.13617 1.5758-5.86117 1.0505-1.72499 2.5111-3.06557 4.381-4.02174 1.87-.976763 3.9816-1.46529 6.3351-1.46529 2.0587 0 3.9079.34294 5.5471 1.02882 1.6389.68588 3.0043 1.67323 4.097 2.96175l-3.971 3.5541c-1.492-1.62117-3.2781-2.43175-5.3583-2.43175-1.8907 0-3.414.57147-4.57 1.7147-1.1558 1.12234-1.7332 2.6291-1.7332 4.52058 0 1.2056.2625 2.2861.7876 3.2423.5257.9353 1.261 1.6733 2.2063 2.2135.9458.5197 2.0278.7794 3.2463.7794h3.9671z"></path>
                <path d="m64.755 22.26h6.2405v-21.823385h-6.2405z"></path>
                <path
                    d="m96.6152 22.26-.063-11.5667-5.6732 9.4156h-2.7733l-5.6419-9.1038v11.2549h-5.7675v-21.823385h5.1371l7.7534 12.595285 7.5645-12.595285h5.1367l.064 21.823385z"></path>
                <path
                    d="m120.982 13.4684-2.837-6.98352-2.836 6.98352zm1.828 4.5517h-9.33l-1.733 4.2402h-6.367l9.739-21.823685h6.146l9.771 21.823685h-6.493z"></path>
                <path d="m137.654 5.3313h-6.776v-4.894685h19.761v4.894685h-6.745v16.929h-6.24z"></path>
                <path d="m155.414 22.26h6.24v-21.823385h-6.24z"></path>
                <path
                    d="m181.881 22.26-4.57-6.7652-4.507 6.7652h-7.123l8.037-11.0364-7.691-10.786985h7.029l4.412 6.297325 4.35-6.297325h6.745l-7.691 10.537285 8.195 11.2861z"></path>
                <path
                    d="m123.91 36.3175-.633-1.7461-.25-.7824h-.025l-.233.7662-.65 1.7623zm.266.7167h-2.314l-.525 1.4244h-.915l2.072-5.435h1.066l2.073 5.435h-.94z"></path>
                <path
                    d="m138.152 35.6505v2.8082h-.657l-.025-.6918c-.161.2471-.383.4391-.666.5765-.283.1318-.622.1976-1.016.1976-.51 0-.957-.1126-1.34-.3373-.383-.2253-.68-.5465-.891-.9638-.211-.4227-.317-.9221-.317-1.4985 0-.5712.109-1.0653.325-1.4824.217-.4229.522-.747.916-.972.394-.2303.852-.3459 1.374-.3459.566 0 1.032.1047 1.399.3132.366.2085.655.5324.865.9715l-.815.3873c-.106-.2967-.284-.5217-.533-.6756-.25-.1538-.55-.2303-.9-.2303-.521 0-.934.1783-1.24.535-.306.3568-.458.8565-.458 1.4992 0 .6529.144 1.1582.433 1.5149.294.3515.722.5271 1.282.5271.439 0 .794-.1068 1.066-.3212.272-.2138.408-.5244.408-.9306v-.1564h-1.682v-.7247z"></path>
                <path
                    d="m150.806 37.7012v.7574h-4.096v-5.435h3.979v.7577h-3.089v1.5644h2.415v.7414h-2.415v1.6141z"></path>
                <path
                    d="m163.642 38.4586h-1.058l-2.122-3.4256-.533-1.0047h-.009l.034.9221v3.5082h-.816v-5.435h1.049l2.114 3.4177.542 1.0126h.008l-.033-.9224v-3.5079h.824z"></path>
                <path
                    d="m176.958 37.0179c-.166.4885-.452.8644-.857 1.1282-.4.2632-.871.3953-1.415.3953-.528 0-.985-.1127-1.374-.3377-.388-.225-.688-.5491-.899-.9717-.211-.4227-.317-.9197-.317-1.4906s.106-1.0682.317-1.4906c.211-.4226.511-.7467.899-.9717.389-.2253.843-.3377 1.365-.3377.55 0 1.011.1124 1.383.3377.377.225.649.5573.815.9964l-.84.3706c-.112-.3238-.272-.56-.483-.7085-.211-.1536-.486-.2303-.825-.2303-.516 0-.93.1809-1.24.5435-.305.3568-.458.8538-.458 1.4906 0 .6423.147 1.142.441 1.4988s.702.5353 1.224.5353c.355 0 .652-.0882.891-.2635.244-.1756.419-.4338.525-.7741z"></path>
                <path
                    d="m187.265 36.3754v2.0835h-.89v-2.0835l-1.957-3.3518h.991l.982 1.7459.433.8153.433-.8153.974-1.7459h.999z"></path>
                <path
                    d="m35.2417 37.7093c.5768 0 1.0213-.1703 1.3317-.5103.3108-.3462.4666-.8317.4666-1.4576s-.1558-1.1094-.4666-1.4497c-.3104-.3459-.7549-.5188-1.3317-.5188h-1.049v3.9364zm0-4.6836c.8655 0 1.5375.2362 2.0144.7086.4776.4717.7163 1.1417.7163 2.0094 0 .867-.2387 1.537-.7163 2.0094-.4769.4717-1.1489.7079-2.0144.7079h-1.9399v-5.4353z"></path>
                <path d="m46.4299 38.4586h.8908v-5.435h-.8908z"></path>
                <path
                    d="m60.6905 35.6505v2.8082h-.6577l-.025-.6918c-.1608.2471-.3829.4391-.666.5765-.2831.1318-.6217.1976-1.0157.1976-.5105 0-.9574-.1126-1.3404-.3373-.383-.2253-.68-.5465-.8908-.9638-.2108-.4227-.3167-.9221-.3167-1.4985 0-.5712.1085-1.0653.3247-1.4824.2168-.4229.5221-.747.9158-.972.3943-.2303.8522-.3459 1.3737-.3459.5664 0 1.0326.1047 1.399.3132.3663.2085.655.5324.8658.9715l-.8159.3873c-.1055-.2967-.2833-.5217-.5328-.6756-.2498-.1538-.5495-.2303-.8992-.2303-.5221 0-.9351.1783-1.2407.535-.3051.3568-.4579.8565-.4579 1.4992 0 .6529.1445 1.1582.4329 1.5149.2943.3515.7219.5271 1.2824.5271.4383 0 .7936-.1068 1.0657-.3212.272-.2138.4079-.5244.4079-.9306v-.1564h-1.6817v-.7247z"></path>
                <path d="m69.2471 38.4586h.8908v-5.435h-.8908z"></path>
                <path d="m82.9912 33.7813h-1.8816v4.6773h-.8908v-4.6773h-1.8816v-.7577h4.654z"></path>
                <path
                    d="m93.2854 36.3175-.633-1.7461-.2498-.7824h-.025l-.2331.7662-.6494 1.7623zm.2663.7167h-2.3148l-.5245 1.4244h-.9158l2.0728-5.435h1.0656l2.0734 5.435h-.9408z"></path>
                <path d="m107.04 37.7012v.7574h-3.921v-5.435h.891v4.6776z"></path>
            </g>
            <path d="m0 31.1765h3.75864l3.97212 4.4697-3.97212 4.3538h-3.75864l3.6843-4.3614z"
                fill="#5101a6"></path>
            <path d="m7.4334 31.1761h3.7586l3.9722 4.4697-3.9722 4.3538h-3.7586l3.6843-4.3614z"
                fill="#5101a6"></path>
            <path d="m15.1641 31.1761h3.7586l3.9722 4.4697-3.9722 4.3538h-3.7586l3.6843-4.3614z"
                fill="#5101a6"></path>
        </g>
    </symbol>
    <symbol fill="none" xmlns="http://www.w3.org/2000/svg" viewBox="0 0 24 24" id="icon-play">
        <g stroke="#fff" stroke-linecap="round" stroke-width="2">
            <path
                d="m12 22c5.5228 0 10-4.4772 10-10 0-5.52285-4.4772-10-10-10-5.52285 0-10 4.47715-10 10 0 5.5228 4.47715 10 10 10z"></path>
            <path d="m10 8 6 4-6 4z"></path>
        </g>
    </symbol>
</svg>
