<?xml version="1.0" standalone="no"?>
<!DOCTYPE svg PUBLIC "-//W3C//DTD SVG 20010904//EN"
 "http://www.w3.org/TR/2001/REC-SVG-20010904/DTD/svg10.dtd">
<svg version="1.0" xmlns="http://www.w3.org/2000/svg"
 width="1216.000000pt" height="1216.000000pt" viewBox="0 0 1216.000000 1216.000000"
 preserveAspectRatio="xMidYMid meet">
<metadata>
Created by potrace 1.14, written by Peter Selinger 2001-2017
</metadata>
<g transform="translate(0.000000,1216.000000) scale(0.100000,-0.100000)"
fill="#000000" stroke="none">
<path d="M736 9323 c-1 -2 -34 -5 -72 -8 -38 -2 -76 -6 -84 -8 -39 -9 -128
-42 -155 -58 -16 -11 -40 -23 -52 -28 -20 -9 -153 -137 -179 -172 -27 -36 -84
-169 -97 -224 -8 -33 -14 -99 -13 -148 1 -48 -3 -87 -7 -87 -5 0 -5 -4 -2 -10
3 -5 6 -53 6 -107 -1 -182 -1 -197 4 -201 2 -2 0 -15 -5 -28 -5 -13 -6 -24 -2
-24 4 0 6 -28 5 -62 -2 -58 -2 -94 -3 -218 0 -108 1 -144 5 -148 2 -2 0 -15
-5 -28 -5 -13 -6 -24 -2 -24 4 0 6 -28 5 -62 -2 -58 -2 -94 -3 -218 0 -108 1
-144 5 -148 2 -2 0 -15 -5 -28 -5 -13 -6 -24 -2 -24 4 0 6 -28 5 -62 -2 -58
-2 -94 -3 -218 0 -108 1 -144 5 -148 2 -2 0 -15 -5 -28 -5 -13 -6 -24 -2 -24
4 0 6 -28 5 -62 -2 -58 -2 -94 -3 -218 0 -108 1 -144 5 -148 2 -2 0 -15 -5
-28 -5 -13 -6 -24 -2 -24 4 0 6 -28 5 -62 -2 -58 -2 -94 -3 -218 0 -108 1
-144 5 -148 2 -2 0 -15 -5 -28 -5 -13 -6 -24 -2 -24 4 0 6 -28 5 -62 -2 -58
-2 -94 -3 -218 0 -108 1 -144 5 -148 2 -2 0 -15 -5 -28 -5 -13 -6 -24 -2 -24
4 0 6 -28 5 -62 -2 -58 -2 -94 -3 -218 0 -108 1 -144 5 -148 2 -2 0 -15 -5
-28 -5 -13 -6 -24 -2 -24 4 0 6 -28 5 -62 -2 -58 -2 -94 -3 -218 0 -108 1
-144 5 -148 2 -2 0 -15 -5 -28 -5 -13 -6 -24 -2 -24 4 0 6 -28 5 -62 -2 -58
-2 -94 -3 -218 0 -108 1 -144 5 -148 2 -2 0 -15 -5 -28 -5 -13 -6 -24 -2 -24
4 0 6 -28 5 -62 -2 -58 -2 -94 -3 -218 -1 -245 12 -317 78 -445 37 -70 147
-193 207 -231 28 -17 83 -46 95 -48 3 -1 11 -5 17 -9 24 -15 109 -36 168 -42
69 -7 10795 -8 10840 -1 105 16 154 33 241 81 169 95 284 265 314 465 12 77 8
5379 -3 5425 -43 167 -142 310 -275 398 -73 49 -189 93 -268 102 -45 5 -10753
13 -10758 8z m994 -863 c8 5 17 7 21 4 4 -2 94 -4 201 -4 106 1 201 1 211 0
26 0 45 0 60 1 37 2 231 -3 241 -7 16 -6 15 -732 -1 -742 -7 -4 -99 -7 -205
-6 -106 0 -200 -3 -208 -7 -13 -6 -19 -56 -10 -79 1 -3 1 -9 0 -15 -2 -11 -2
-457 1 -465 1 -3 0 -9 -1 -15 -5 -22 -2 -457 3 -462 3 -3 3 -11 0 -19 -8 -22
-9 -374 -1 -374 4 0 5 -7 1 -16 -9 -24 -9 -304 0 -304 5 0 5 -5 1 -11 -8 -13
-9 -227 -1 -235 3 -3 2 -18 -2 -32 -4 -15 -7 -43 -5 -62 1 -19 -2 -41 -8 -47
-8 -10 -105 -13 -423 -13 -347 0 -414 2 -425 14 -17 22 -17 2860 0 2882 10 12
54 14 252 13 132 0 242 2 245 5 3 3 13 1 22 -4 10 -5 23 -5 31 0z m1120 0 c8
5 17 7 21 4 4 -2 94 -4 201 -4 106 1 201 1 211 0 26 0 45 0 60 1 12 1 386 0
420 -1 9 0 24 0 32 0 8 0 22 0 30 0 8 0 21 -1 28 -1 6 -1 17 0 22 1 28 7 95
-2 107 -14 12 -11 14 -242 14 -1445 -1 -1261 -3 -1433 -16 -1441 -19 -13 -820
-13 -839 -1 -13 8 -15 159 -15 1075 0 739 -3 1066 -10 1067 -6 1 -100 2 -208
3 -122 1 -201 5 -208 12 -7 7 -9 131 -8 375 l3 364 48 1 c26 1 51 4 54 8 3 3
13 1 22 -4 10 -5 23 -5 31 0z m3360 0 c8 5 17 7 21 5 3 -3 57 -5 120 -5 63 0
122 0 132 0 9 0 24 0 32 0 8 0 23 0 33 0 9 0 26 0 38 0 21 0 45 -43 112 -201
11 -24 33 -73 49 -109 17 -36 54 -119 83 -185 29 -66 57 -129 63 -140 6 -11
12 -22 12 -25 3 -13 27 -66 54 -120 17 -33 27 -60 24 -60 -3 0 -1 -6 5 -12 5
-7 34 -69 65 -138 30 -69 69 -154 85 -190 17 -36 58 -128 92 -205 34 -77 72
-160 83 -185 11 -25 21 -47 22 -50 0 -3 18 -41 38 -84 20 -43 37 -80 37 -82 0
-2 14 -34 31 -71 17 -38 51 -113 76 -168 25 -55 53 -118 63 -140 10 -22 39
-87 65 -145 25 -58 55 -124 66 -147 30 -68 56 -124 79 -178 13 -27 36 -79 51
-115 16 -36 34 -73 39 -82 14 -25 12 -54 -4 -67 -9 -8 -129 -10 -422 -9 l-409
3 -26 50 c-15 28 -29 59 -33 71 -3 11 -28 69 -56 128 -27 58 -50 108 -50 110
0 6 -66 151 -91 199 -10 22 -19 45 -19 53 0 8 -5 14 -10 14 -6 0 -9 3 -8 8 2
9 -19 59 -90 212 -11 25 -33 72 -47 105 -15 33 -37 80 -48 105 -11 25 -21 47
-22 50 -4 11 -25 59 -54 123 -70 152 -91 199 -91 202 0 2 -16 39 -36 82 -20
43 -65 143 -101 223 -36 80 -80 178 -99 218 -19 40 -34 74 -34 76 0 3 -16 38
-35 79 -19 41 -35 77 -35 80 0 2 -20 47 -44 98 -39 84 -76 165 -81 179 -4 10
-37 86 -64 145 -115 250 -125 276 -110 285 7 5 99 9 202 9 104 0 191 2 194 5
3 3 13 1 22 -4 10 -5 23 -5 31 0z m4191 0 c123 1 232 1 242 0 25 0 45 0 60 1
6 0 62 0 124 -1 128 -1 135 -6 133 -75 0 -25 -1 -52 0 -60 0 -24 0 -43 0 -82
0 -21 1 -71 2 -111 2 -39 1 -72 -2 -72 -6 0 -3 -118 4 -136 3 -8 1 -14 -3 -14
-5 0 -6 -15 -2 -32 4 -18 5 -44 4 -58 -4 -33 -4 -78 -1 -168 2 -39 1 -72 -2
-72 -6 0 -3 -118 4 -136 3 -8 1 -14 -3 -14 -5 0 -6 -15 -2 -32 4 -18 5 -44 4
-58 -4 -33 -4 -78 -1 -168 2 -39 0 -72 -3 -72 -3 0 -3 -19 1 -43 3 -24 3 -55
-1 -71 -4 -15 -5 -34 -3 -41 7 -17 10 -165 4 -165 -6 0 -3 -118 4 -136 3 -8 1
-14 -3 -14 -5 0 -6 -15 -2 -32 4 -18 5 -44 4 -58 -4 -33 -4 -78 -1 -168 2 -39
1 -72 -2 -72 -6 0 -3 -118 4 -136 3 -8 1 -14 -3 -14 -5 0 -6 -15 -2 -32 4 -18
5 -44 4 -58 -4 -33 -4 -78 -1 -168 2 -39 0 -72 -3 -72 -3 0 -3 -19 1 -43 3
-24 3 -56 -1 -72 -5 -15 -6 -32 -2 -38 10 -16 5 -88 -8 -103 -10 -12 -79 -14
-423 -14 -307 0 -415 3 -424 12 -9 9 -12 142 -12 539 l0 527 -210 0 c-116 0
-214 3 -218 6 -9 9 -10 723 -1 737 4 7 81 11 218 11 l211 0 0 528 c0 450 2
529 15 540 8 6 18 9 23 7 4 -3 14 -2 22 3 8 5 17 7 21 4 4 -2 108 -4 230 -4z
m-1411 -15 c11 -13 19 -206 10 -240 -1 -5 -1 -14 0 -20 1 -5 2 -188 2 -406 l1
-396 208 -1 c115 0 212 -3 217 -6 10 -6 10 -731 0 -741 -3 -4 -100 -8 -215 -8
l-208 -2 -1 -481 c0 -265 -4 -488 -7 -497 -3 -9 -2 -19 2 -21 11 -7 1 -59 -13
-68 -6 -4 -196 -8 -423 -8 -397 0 -413 1 -423 19 -14 27 -14 2845 0 2872 10
18 27 19 424 19 354 0 415 -2 426 -15z m-3452 -27 c7 -7 12 -20 12 -30 0 -10
5 -18 10 -18 6 0 10 -4 10 -10 0 -11 97 -231 202 -460 28 -61 49 -109 53 -120
1 -3 11 -25 22 -50 11 -25 35 -76 52 -115 17 -38 36 -78 41 -87 17 -29 12 -47
-46 -193 -31 -77 -57 -144 -58 -150 -2 -5 -8 -21 -13 -35 -6 -14 -27 -68 -48
-120 -20 -52 -41 -104 -45 -115 -5 -11 -30 -74 -55 -140 -96 -246 -157 -401
-165 -420 -5 -11 -18 -42 -28 -70 -10 -27 -22 -59 -27 -70 -4 -11 -9 -24 -11
-30 -14 -51 -248 -622 -257 -627 -18 -12 -805 -10 -827 2 -26 14 -22 29 64
236 94 229 89 218 88 227 -1 4 2 7 8 7 5 0 10 8 10 18 0 10 4 22 8 28 5 5 17
32 27 59 10 28 28 74 41 103 13 29 24 55 24 58 0 3 8 24 19 47 19 44 28 67 30
80 0 4 10 24 21 44 11 21 20 42 20 46 0 5 6 23 14 40 23 50 166 396 166 402 0
2 11 29 25 59 14 30 25 58 25 61 0 3 9 25 19 48 11 23 33 76 49 117 17 41 38
93 48 115 10 22 19 45 20 50 5 20 51 126 58 132 3 3 6 12 6 19 0 8 11 37 25
66 13 29 34 78 45 108 12 30 27 69 35 85 7 17 27 66 45 110 18 44 44 109 60
145 26 63 41 100 45 110 5 16 27 68 35 85 10 20 32 76 35 85 4 18 39 80 44 80
4 0 12 -5 19 -12z m800 -1713 c8 -17 40 -84 70 -150 29 -66 65 -142 79 -170
13 -27 24 -51 24 -52 -1 -4 35 -85 58 -133 33 -65 35 -87 11 -100 -28 -15
-948 -14 -967 1 -12 11 -10 36 7 84 4 11 8 23 9 27 1 5 12 33 26 63 13 30 22
55 19 55 -2 0 4 17 15 38 10 20 19 41 19 45 0 7 39 114 61 172 5 11 19 47 31
80 13 33 27 62 32 66 4 3 116 5 249 4 l241 0 16 -30z m4637 -1698 c14 -20 13
-91 -3 -109 -8 -11 -980 -13 -4900 -13 -2690 0 -4894 4 -4898 8 -13 12 -9 118
4 126 6 4 2210 7 4898 6 4655 0 4886 -1 4899 -18z m-1854 -677 c1 -8 1 -103 0
-120 -1 -13 -15 -15 -68 -15 l-68 1 -3 71 -3 72 71 -2 c38 0 70 -4 71 -7z
m204 -65 l0 -69 -63 -1 c-35 0 -66 2 -70 5 -11 8 -10 124 2 132 6 4 37 6 71 5
l60 -2 0 -70z m-7875 -181 l0 -72 -40 2 c-22 1 -45 -1 -51 -4 -7 -5 -10 -81
-10 -233 l0 -225 -74 -4 c-122 -5 -110 -36 -109 297 1 160 2 295 3 300 1 7 54
10 141 10 l140 0 0 -71z m316 67 c9 -1 12 -84 12 -301 l-1 -300 -28 -1 c-16 0
-47 -1 -69 -1 -22 0 -51 1 -63 1 l-24 1 1 230 c1 147 -3 230 -9 231 -5 1 -28
2 -50 3 l-40 1 -1 65 c-1 36 2 67 7 70 7 5 225 5 265 1z m1344 -36 c23 -50 78
-173 90 -200 4 -11 24 -55 44 -98 20 -43 36 -80 36 -82 0 -2 13 -32 30 -67 16
-35 34 -76 39 -91 l11 -27 -53 -1 c-28 0 -67 -1 -86 -2 -34 -2 -35 -1 -78 90
-24 51 -43 94 -43 97 0 2 -16 39 -35 80 -19 42 -35 81 -35 86 0 6 -5 10 -12
10 -6 0 -8 3 -5 6 4 4 1 19 -7 33 -45 88 -87 191 -82 199 3 5 42 8 87 7 l81 0
18 -40z m1346 -263 l2 -302 -47 -1 c-25 0 -65 -1 -88 -2 -24 -1 -44 3 -46 8
-3 9 -1 600 2 600 0 0 40 0 89 0 l87 0 1 -303z m275 284 c115 -49 166 -182
114 -294 -26 -56 -80 -104 -134 -121 -21 -6 -77 -11 -125 -11 -82 0 -86 1 -87
23 -2 51 0 109 3 113 3 2 33 4 69 5 81 2 105 11 122 46 17 36 12 65 -18 93
-20 18 -36 23 -92 24 -37 1 -72 4 -78 8 -6 3 -9 35 -7 70 l4 65 96 -3 c62 -1
110 -7 133 -18z m1645 12 c8 -8 9 -133 1 -146 -7 -11 -592 -10 -603 1 -11 11
-6 139 5 147 14 8 588 6 597 -2z m1146 3 c3 0 6 -49 5 -108 l-2 -108 40 -1
c22 -1 46 -2 53 -3 8 -1 12 -22 12 -71 l0 -70 -50 0 c-37 0 -50 -4 -51 -15 0
-8 -1 -59 -1 -112 0 -54 -4 -102 -9 -108 -4 -5 -36 -9 -71 -8 -34 1 -77 2 -94
2 l-31 1 2 303 c1 166 3 302 3 303 3 0 187 -4 194 -5z m429 -1 c1 -3 3 -139 4
-302 l1 -298 -35 -1 c-20 0 -65 -1 -101 -1 l-65 -1 -2 94 c-1 52 -2 106 -2
122 -1 26 -3 27 -51 27 l-50 0 0 70 c0 69 0 70 28 71 15 1 31 1 36 0 4 -1 15
1 25 4 14 4 16 19 13 100 -2 54 1 102 6 108 10 12 190 19 193 7z m1492 1 c13
-2 8 -131 -5 -133 -7 0 -98 -2 -203 -2 l-190 -2 -1 -142 c-1 -79 -4 -146 -7
-149 -3 -3 -3 -11 0 -19 4 -11 43 -14 209 -14 l204 0 0 -70 c0 -70 0 -70 -27
-71 -144 -3 -556 1 -561 5 -8 9 -9 579 -1 591 5 7 109 10 291 9 156 -1 286 -2
291 -3z m1147 0 c4 -1 5 -584 1 -601 -1 -4 -109 -4 -168 -1 -14 1 -17 593 -2
601 7 5 147 5 169 1z m285 -19 c51 -27 66 -40 91 -77 83 -121 19 -298 -121
-334 -11 -3 -63 -5 -115 -6 l-94 0 -1 58 c0 32 3 64 7 70 4 6 28 10 57 8 68
-3 120 14 132 46 14 38 11 60 -14 89 -21 24 -30 26 -102 28 l-80 1 0 65 c0 36
4 68 8 71 4 3 49 5 100 4 72 -2 101 -7 132 -23z m-7975 3 c0 -8 5 -23 10 -33
33 -56 66 -149 59 -162 -9 -17 -70 -170 -73 -185 -1 -5 -10 -27 -19 -49 -9
-21 -17 -41 -17 -45 -1 -3 -9 -24 -20 -46 -11 -22 -19 -46 -20 -52 0 -15 -1
-15 -93 -17 -98 -2 -100 -1 -75 59 11 28 24 59 29 70 18 41 161 391 171 420
18 50 48 75 48 40z m3265 -164 c12 -1 15 -405 3 -417 -6 -5 -107 -8 -184 -5
-8 1 -12 63 -12 210 l0 210 26 3 c22 2 120 2 167 -1z m3188 -40 c15 -1 17 -10
15 -68 l-3 -68 -141 -3 -141 -3 -1 70 c-1 68 0 70 26 73 23 3 186 2 245 -1z
m-6303 -130 c0 -5 5 -22 12 -38 6 -15 12 -30 13 -33 0 -3 6 -15 13 -27 7 -13
9 -24 5 -24 -4 -1 -50 -2 -101 -3 -100 -1 -100 -1 -78 59 5 11 12 32 18 48 10
25 15 27 64 27 30 0 54 -4 54 -9z"/>
</g>
</svg>
