<svg width="0" height="0" class="hidden">
    <symbol fill="none" xmlns="http://www.w3.org/2000/svg" viewBox="0 0 20 16" id="icon-mail">
        <g fill="#000">
            <path
                d="m5.28924.907491c3.13464-.272488 6.28706-.272488 9.42166 0l1.5102.131279c1.0054.0874 1.8665.68707 2.3126 1.54484.0571.10974.0143.2426-.0909.30771l-6.2659 3.87892c-1.3439.83192-3.0384.84938-4.39912.04532l-6.30783-3.72736c-.10191-.06022-.14869-.18418-.10276-.29328.40816-.96956 1.32579-1.66174 2.41182-1.75615z"></path>
            <path
                d="m1.36206 4.76676c-.15597-.09216-.35497.00701-.373148.18726-.253736 2.51563-.192325 5.05508.184228 7.55918.19852 1.3201 1.27593 2.3322 2.60587 2.4478l1.51023.1313c3.13464.2724 6.28706.2724 9.42166 0l1.5102-.1313c1.33-.1156 2.4074-1.1277 2.6059-2.4478.3875-2.57707.4413-5.19158.1612-7.77905-.0196-.18151-.222-.27886-.3772-.18276l-5.6446 3.49425c-1.8182 1.12554-4.11074 1.14915-5.95172.06131z"></path>
        </g>
    </symbol>
    <symbol fill="none" xmlns="http://www.w3.org/2000/svg" viewBox="0 0 16 16" id="icon-warning">
        <circle cx="8" cy="8" r="6.5" stroke="#372E11"></circle>
        <path d="M8 6V11.5" stroke="#372E11"></path>
        <path d="M8 3.5V4.5" stroke="#372E11"></path>
    </symbol>
</svg>