<?xml version="1.0" standalone="no"?>
<!DOCTYPE svg PUBLIC "-//W3C//DTD SVG 20010904//EN"
 "http://www.w3.org/TR/2001/REC-SVG-20010904/DTD/svg10.dtd">
<svg version="1.0" xmlns="http://www.w3.org/2000/svg"
 width="512.000000pt" height="512.000000pt" viewBox="0 0 512.000000 512.000000"
 preserveAspectRatio="xMidYMid meet">
<metadata>
Created by potrace 1.14, written by Peter Selinger 2001-2017
</metadata>
<g transform="translate(0.000000,512.000000) scale(0.100000,-0.100000)"
fill="#000000" stroke="none">
<path d="M3813 5068 c-55 -12 -83 -46 -77 -94 4 -32 -2 -42 -50 -96 -60 -66
-126 -206 -162 -343 -26 -98 -26 -300 0 -370 l18 -50 -35 -135 c-84 -321 -100
-380 -124 -465 -32 -117 -113 -367 -123 -380 -4 -5 -13 -28 -20 -50 -18 -57
-87 -186 -108 -201 -13 -11 -100 -13 -408 -14 l-391 0 -27 -25 c-14 -13 -26
-30 -26 -38 0 -11 -32 -13 -165 -13 -132 0 -165 2 -165 13 0 8 -11 25 -25 39
l-25 25 -375 -1 c-276 -1 -388 -5 -425 -15 -27 -7 -50 -12 -50 -10 0 7 -116
-37 -172 -65 -117 -58 -218 -143 -297 -248 l-50 -66 -85 3 c-154 5 -259 -32
-343 -122 -75 -80 -120 -221 -92 -288 10 -26 30 -41 54 -43 13 -1 18 -306 5
-306 -18 0 -25 -4 -45 -23 -16 -15 -20 -30 -18 -83 4 -177 170 -333 355 -334
l47 0 3 -288 3 -289 27 -41 c31 -46 69 -70 131 -80 l41 -7 1 -239 1 -239 26
-22 c26 -22 34 -23 220 -23 228 -1 254 2 275 35 24 36 21 177 -4 234 -19 42
-92 119 -113 119 -6 0 -10 36 -10 89 0 103 7 111 66 75 22 -14 55 -24 76 -24
20 0 40 -5 44 -11 4 -7 7 -115 8 -240 1 -299 -23 -273 254 -276 124 -1 218 2
233 8 43 17 52 47 47 151 -4 79 -9 100 -32 136 -15 24 -44 55 -66 70 -38 26
-39 29 -41 87 -2 96 1 119 19 130 56 34 126 115 159 183 31 65 36 85 40 175
l6 102 462 0 c255 0 466 -3 469 -6 3 -3 -8 -39 -24 -80 -46 -117 -36 -226 30
-317 16 -23 30 -44 30 -47 0 -4 -9 -25 -19 -48 -106 -232 -114 -258 -120 -366
-7 -117 3 -155 43 -171 14 -5 119 -8 235 -7 201 2 211 3 232 23 41 42 30 212
-19 286 -21 32 -23 42 -14 61 6 12 18 39 26 59 11 27 22 39 43 43 110 23 188
61 245 118 30 30 41 33 60 14 7 -7 32 -24 56 -37 l42 -24 0 -238 c0 -275 4
-292 67 -302 63 -9 406 -4 430 7 33 15 45 65 39 158 -6 96 -36 156 -101 200
l-39 27 -1 87 0 87 42 29 c84 58 150 160 171 264 5 28 9 100 8 160 l-1 110 70
46 c203 131 348 363 371 589 3 25 7 61 9 81 5 43 -26 99 -54 99 -17 0 -20 8
-23 58 -2 31 -2 105 0 164 3 96 5 108 21 108 10 0 26 9 37 21 18 20 19 46 19
695 0 591 2 675 15 679 8 2 56 11 105 19 50 9 105 20 123 25 18 5 33 10 35 10
15 -1 62 26 91 52 53 46 77 99 83 183 11 141 -32 213 -173 291 -261 145 -255
141 -307 219 l-26 40 33 22 c91 62 138 223 91 314 -41 80 -174 149 -335 176
-76 12 -238 11 -319 -1 -50 -8 -82 -9 -94 -3 -26 13 -123 17 -174 6z"/>
</g>
</svg>
