<?xml version="1.0" standalone="no"?>
<!DOCTYPE svg PUBLIC "-//W3C//DTD SVG 20010904//EN"
 "http://www.w3.org/TR/2001/REC-SVG-20010904/DTD/svg10.dtd">
<svg version="1.0" xmlns="http://www.w3.org/2000/svg"
 width="1024.000000pt" height="1024.000000pt" viewBox="0 0 1024.000000 1024.000000"
 preserveAspectRatio="xMidYMid meet">
<metadata>
Created by potrace 1.14, written by Peter Selinger 2001-2017
</metadata>
<g transform="translate(0.000000,1024.000000) scale(0.100000,-0.100000)"
fill="#000000" stroke="none">
<path d="M37 7841 c21 -25 40 -48 43 -51 3 -3 25 -30 50 -60 25 -30 53 -62 62
-71 10 -9 18 -20 18 -25 0 -5 17 -27 38 -49 20 -23 50 -58 65 -78 16 -21 39
-48 53 -62 13 -13 24 -27 24 -30 0 -3 13 -20 29 -38 17 -17 57 -66 91 -107 34
-41 80 -97 103 -124 23 -27 49 -59 57 -70 8 -12 23 -30 33 -41 11 -11 31 -36
45 -55 15 -19 29 -37 33 -40 3 -3 70 -84 149 -180 79 -96 158 -191 174 -211
17 -20 47 -56 66 -79 19 -24 40 -48 45 -54 6 -6 30 -36 55 -66 25 -30 49 -58
55 -62 5 -4 7 -8 3 -8 -4 0 3 -10 15 -23 42 -43 87 -96 87 -102 0 -3 8 -13 18
-23 9 -10 35 -40 57 -67 107 -132 191 -230 197 -233 5 -2 8 -10 8 -18 0 -8 4
-14 9 -14 5 0 22 -17 38 -38 15 -21 45 -58 65 -83 21 -24 77 -91 124 -149 48
-58 91 -106 96 -108 4 -2 8 -8 8 -14 0 -5 6 -15 13 -22 14 -14 50 -58 195
-233 l101 -121 -71 -84 c-39 -45 -73 -85 -77 -88 -3 -3 -20 -23 -36 -45 -16
-22 -39 -49 -50 -60 -11 -11 -37 -40 -57 -65 -19 -25 -46 -56 -57 -70 -12 -14
-30 -34 -39 -45 -37 -45 -177 -211 -187 -221 -5 -6 -28 -33 -50 -60 -22 -26
-56 -67 -75 -89 -19 -23 -55 -66 -80 -95 -25 -29 -49 -58 -55 -64 -5 -6 -32
-38 -60 -71 -27 -33 -52 -62 -55 -65 -5 -5 -135 -160 -175 -209 -11 -13 -27
-32 -35 -41 -16 -17 -109 -127 -125 -148 -5 -7 -17 -21 -26 -30 -8 -9 -62 -73
-120 -142 -138 -165 -141 -169 -164 -194 -11 -13 -38 -44 -60 -71 -22 -27 -44
-53 -50 -59 -5 -6 -32 -38 -59 -71 -28 -33 -57 -67 -65 -76 -9 -9 -23 -25 -31
-35 -21 -27 -114 -138 -120 -144 -3 -3 -27 -32 -54 -65 -28 -33 -57 -67 -65
-76 -9 -9 -29 -33 -46 -55 -16 -21 -44 -54 -61 -74 -18 -19 -60 -68 -93 -108
l-62 -72 1204 0 1204 0 59 66 c32 36 75 82 94 103 19 20 67 72 105 115 39 44
84 93 100 111 17 17 68 73 115 125 47 51 96 105 110 120 14 15 45 49 69 76 43
49 178 197 236 259 84 90 186 203 203 222 11 13 61 68 112 123 51 55 101 110
112 123 11 12 56 62 101 111 98 107 81 88 197 216 52 57 104 114 115 126 38
40 190 207 208 228 16 18 129 142 207 226 77 84 197 215 210 230 48 55 158
176 172 190 16 15 15 19 -25 62 -23 25 -67 74 -97 109 -30 34 -59 67 -65 73
-5 6 -39 44 -75 85 -36 41 -76 87 -90 102 -14 15 -54 60 -90 100 -36 40 -72
80 -80 89 -8 9 -36 40 -61 70 -26 30 -60 69 -75 85 -16 17 -44 48 -63 70 -41
48 -165 187 -203 228 -15 16 -42 47 -60 69 -18 23 -47 55 -63 72 -17 17 -62
67 -100 111 -39 44 -81 92 -95 106 -14 15 -45 50 -70 79 -25 29 -56 65 -70 80
-14 15 -50 55 -80 90 -90 102 -133 150 -170 190 -19 21 -55 62 -80 91 -25 29
-52 59 -61 68 -8 9 -44 49 -80 90 -35 41 -75 86 -89 101 -14 15 -43 48 -65 73
-22 26 -56 64 -75 85 -58 63 -122 135 -180 202 -30 35 -66 75 -80 90 -14 15
-52 58 -85 95 -33 37 -69 78 -80 90 l-20 23 -1202 -1 -1203 0 37 -46z"/>
<path d="M4770 7878 c0 -4 50 -68 110 -141 61 -72 125 -150 143 -172 18 -22
42 -50 55 -63 12 -12 22 -25 22 -27 0 -4 266 -328 295 -359 6 -6 40 -47 75
-91 36 -44 72 -89 82 -100 9 -11 56 -67 103 -125 48 -58 99 -119 114 -136 14
-17 37 -46 51 -64 14 -18 32 -41 40 -50 69 -81 189 -226 350 -424 8 -10 20
-23 25 -30 6 -6 42 -49 80 -96 38 -47 74 -90 80 -96 5 -6 24 -28 40 -49 17
-20 35 -42 40 -49 6 -6 41 -49 80 -96 38 -47 76 -92 85 -102 8 -9 25 -29 37
-45 12 -16 33 -41 45 -54 13 -14 36 -42 51 -62 16 -21 39 -48 51 -60 13 -13
25 -28 27 -34 2 -5 23 -32 46 -59 24 -27 70 -83 104 -124 34 -41 72 -87 85
-102 30 -35 30 -41 -3 -76 -16 -16 -37 -40 -47 -53 -32 -40 -119 -143 -136
-160 -8 -9 -22 -25 -30 -35 -62 -77 -98 -121 -119 -143 -13 -14 -37 -44 -55
-65 -17 -22 -38 -46 -46 -55 -8 -9 -28 -32 -44 -51 -44 -54 -227 -271 -269
-320 -7 -8 -33 -40 -58 -70 -24 -30 -55 -66 -69 -80 -14 -14 -41 -45 -59 -70
-19 -25 -42 -52 -50 -61 -9 -8 -34 -37 -56 -63 -22 -27 -47 -56 -55 -66 -8
-10 -31 -37 -50 -60 -19 -23 -46 -55 -60 -71 -14 -15 -35 -40 -47 -56 -12 -15
-34 -41 -48 -58 -15 -16 -45 -52 -68 -79 -23 -28 -49 -57 -57 -66 -8 -9 -33
-38 -55 -65 -22 -28 -50 -61 -61 -75 -12 -14 -41 -47 -64 -75 -24 -27 -47 -51
-51 -53 -5 -2 -9 -8 -9 -14 0 -5 -12 -22 -27 -38 -16 -15 -35 -36 -43 -46 -94
-116 -135 -164 -142 -164 -4 0 -8 -6 -8 -14 0 -8 -4 -16 -9 -18 -4 -1 -72 -79
-150 -173 -78 -93 -152 -181 -164 -195 -13 -14 -45 -51 -71 -82 l-48 -58 1205
0 c1162 0 1206 1 1219 19 7 10 54 63 105 117 50 54 101 110 113 124 12 14 40
45 63 70 107 116 167 181 232 253 39 43 84 93 100 110 17 18 68 74 115 125 47
52 99 108 115 126 17 18 64 70 105 116 41 46 89 98 105 116 17 18 62 67 100
109 39 42 84 91 100 109 25 28 90 98 215 236 14 15 62 68 106 116 45 49 106
116 135 148 30 33 65 71 78 85 12 14 55 61 95 105 39 43 87 95 106 116 19 21
64 70 100 110 36 39 79 86 95 104 36 39 100 110 215 236 47 52 93 102 103 112
23 24 22 27 -21 74 -20 22 -66 74 -102 114 -36 41 -74 84 -85 96 -24 26 -132
147 -158 178 -10 12 -35 39 -55 62 -20 22 -66 73 -102 114 -36 41 -76 86 -90
101 -14 15 -50 55 -80 90 -30 35 -93 106 -140 159 -47 52 -98 110 -115 129
-16 19 -35 39 -40 45 -6 6 -46 52 -90 101 -44 50 -94 106 -112 125 -17 19 -41
46 -53 60 -24 27 -117 132 -195 220 -27 30 -81 91 -120 134 -38 44 -74 84 -80
90 -5 6 -41 47 -80 91 -38 44 -81 92 -95 106 -14 14 -47 52 -74 83 -27 31 -61
70 -75 86 -32 35 -147 164 -181 203 -14 16 -41 46 -60 67 -19 21 -50 56 -69
77 -92 105 -157 179 -171 193 -8 9 -29 32 -46 51 l-31 36 -1196 0 c-670 0
-1197 -4 -1197 -9z"/>
</g>
</svg>
