<?xml version="1.0" standalone="no"?>
<!DOCTYPE svg PUBLIC "-//W3C//DTD SVG 20010904//EN"
 "http://www.w3.org/TR/2001/REC-SVG-20010904/DTD/svg10.dtd">
<svg version="1.0" xmlns="http://www.w3.org/2000/svg"
 width="240.000000pt" height="240.000000pt" viewBox="0 0 240.000000 240.000000"
 preserveAspectRatio="xMidYMid meet">
<metadata>
Created by potrace 1.14, written by Peter Selinger 2001-2017
</metadata>
<g transform="translate(0.000000,240.000000) scale(0.100000,-0.100000)"
fill="#000000" stroke="none">
<path d="M428 2317 c-36 -38 -32 -69 21 -147 22 -34 41 -70 41 -79 0 -11 -18
-26 -49 -41 -123 -57 -201 -192 -195 -336 2 -50 0 -56 -22 -66 -13 -6 -24 -15
-24 -20 0 -4 -6 -8 -14 -8 -15 0 -29 -34 -26 -65 3 -31 28 -79 59 -114 27 -31
28 -34 27 -149 l-1 -118 -47 -47 c-65 -64 -65 -94 0 -157 l48 -46 -1 -121 c0
-119 -1 -122 -28 -151 -15 -16 -36 -51 -46 -78 -17 -43 -17 -52 -5 -76 7 -14
32 -34 54 -44 28 -12 43 -26 47 -44 14 -56 116 -180 149 -180 8 0 14 -5 14
-10 0 -6 3 -9 7 -8 5 1 22 -5 38 -13 25 -12 147 -14 725 -14 l695 0 45 22 c56
28 139 94 140 111 0 6 5 12 10 12 6 0 10 7 10 15 0 8 5 15 10 15 6 0 9 3 8 7
-5 27 18 67 46 78 17 8 42 23 54 35 20 19 23 29 17 58 -8 44 -25 78 -59 117
-25 29 -26 35 -26 149 l0 120 39 35 c76 71 78 99 11 164 l-50 49 0 117 c0 119
4 136 48 181 23 23 43 78 38 106 -6 33 -20 49 -55 64 -28 11 -29 14 -33 103
-9 167 -73 254 -246 333 -8 4 30 78 58 112 33 42 38 61 27 104 -9 35 -58 62
-97 53 -50 -11 -120 -106 -150 -203 l-17 -56 -504 0 c-277 -1 -514 1 -526 3
-17 2 -26 14 -34 45 -11 40 -42 107 -60 130 -73 92 -120 107 -171 53z"/>
</g>
</svg>
