<svg fill="none" height="18" viewBox="0 0 18 18" width="18" xmlns="http://www.w3.org/2000/svg"><path d="m8.07668.719931c.34159-.821293 1.50505-.821295 1.84664-.000002l1.75168 4.211471c.144.34624.4696.58281.8434.61278l4.5466.3645c.8867.07108 1.2462 1.17759.5707 1.75626l-3.4641 2.96736c-.2848.2439-.4092.6267-.3221.9915l1.0583 4.4367c.2064.8652-.7349 1.5491-1.494 1.0854l-3.89255-2.3775c-.32001-.1955-.72249-.1955-1.0425 0l-3.89256 2.3775c-.7591.4637-1.70036-.2202-1.49397-1.0854l1.05833-4.4367c.08701-.3648-.03737-.7476-.32215-.9915l-3.464064-2.96736c-.675537-.57867-.3160126-1.68518.570642-1.75626l4.546642-.3645c.37379-.02997.6994-.26654.84341-.61277z" fill="#ff2d23"/></svg>