<svg fill="none" height="15" viewBox="0 0 21 15" width="21" xmlns="http://www.w3.org/2000/svg"><g clip-rule="evenodd" fill="#8f95ac" fill-rule="evenodd"><path d="m5.13127 8.40723v-2.21131c0-2.05967-.94292-3.02093-2.96757-3.02093h-.1637v-1.5797c0-.655345.52908-1.188063 1.17865-1.188063h14.64135c.6509 0 1.18.532718 1.18 1.188063v1.50717h-.165c-1.9749 0-3.0082 1.55596-3.0082 3.09346v2.21131z" fill-opacity=".5"/><path d="m17.3934 14.4072c-.0901 0-.1633-.0694-.1633-.1535v-.9812h-13.46154v.9812c0 .0841-.07312.1535-.16322.1535h-1.41811c-.0888 0-.16323-.0694-.16323-.1535v-.9812h-.84877c-.64899 0-1.17523-.4912-1.17523-1.097v-6.1296c0-.47779.191954-.63867.75998-.63867h1.85033c.50012 0 .75345.25961.75345.77031v3.16292c0 .43635.3813.79104.84878.79104h12.57366c.4687 0 .8487-.35469.8487-.79104v-2.83505c0-.25718.064-1.09818.9128-1.09818h1.6101c.696 0 .8422.59601.8422 1.09818v5.67009c0 .6058-.5275 1.097-1.1765 1.097h-.8475v.9812c0 .0828-.0757.1535-.1645.1535z"/></g></svg>