<svg fill="none" height="42" viewBox="0 0 76 42" width="76" xmlns="http://www.w3.org/2000/svg" xmlns:xlink="http://www.w3.org/1999/xlink"><mask id="a" height="42" maskUnits="userSpaceOnUse" width="76" x="0" y="0"><path clip-rule="evenodd" d="m.5 4.74072c0-2.20914 1.79086-3.999997 4-3.999997h66.8026c2.2091 0 4 1.790857 4 3.999997v32.51808c0 2.2091-1.7909 4-4 4h-66.8026c-2.20914 0-4-1.7909-4-4z" fill="#fff" fill-rule="evenodd"/></mask><g mask="url(#a)"><path clip-rule="evenodd" d="m39.8832 33.9117v-.7533c0-.0456-.0085-.0613-.0243-.0776-.0164-.0169-.0394-.0299-.0696-.0384-.0288-.0091-.0584-.0137-.1397-.0137h-3.3679c-.0814 0-.1109.0046-.1411.0137-.0295.0085-.0531.0215-.0695.0384-.0151.0163-.0243.032-.0243.0776v.7533c0 .045.0092.0613.0243.0776.0164.0169.04.03.0695.0391.0302.0085.0597.013.1411.013h3.3679c.0813 0 .1109-.0045.1397-.013.0302-.0091.0532-.0222.0696-.0391.0158-.0163.0243-.0326.0243-.0776zm7.9326.5344c-.0046.0098-.0046.0222-.0046.0476v.7416c0 .0254 0 .0385.0046.0476.0046.0085.0112.0156.0197.0202.0105.0052.0223.0052.0479.0052h.567v1.4468c0 .0247 0 .0378.0053.0475.0039.0085.0105.015.0197.0196.0091.0052.0223.0052.0472.0052h1.134c.0256 0 .0381 0 .0479-.0052.0085-.0046.0151-.0111.0197-.0196.0046-.0097.0046-.0228.0046-.0475v-3.6541c0-.0254 0-.0384-.0046-.0475-.0046-.0092-.0112-.0157-.0197-.0202-.0098-.0046-.0223-.0046-.0479-.0046h-1.134c-.0249 0-.0381 0-.0472.0046-.0053.0026-.0099.0065-.0138.0104-.0013.0019-.0033.0039-.0046.0059l-.0013.0039c-.0053.0091-.0053.0221-.0053.0475v1.3204h-.567c-.0256 0-.0374 0-.0479.0052-.0085.0045-.0151.0111-.0197.0195zm8.69 1.4943v-2.0254h2.4846c.0255 0 .0387 0 .0479-.0052.0092-.0046.0157-.0111.0203-.0196.0053-.0097.0053-.0221.0053-.0469v-.7423c0-.0254 0-.0384-.0053-.0475-.0046-.0092-.0111-.0157-.0203-.0202-.0092-.0046-.0224-.0046-.0479-.0046h-2.5568-.1102-.8958c-.0256 0-.0381 0-.0479.0046-.0079.0045-.0151.011-.0197.0202-.0052.0091-.0052.0221-.0052.0475v3.6541c0 .0247 0 .0378.0052.0475.0046.0085.0118.015.0197.0196.0098.0052.0223.0052.0479.0052h1.006.0138 2.543c.0255 0 .0387 0 .0479-.0052.0092-.0046.0157-.0111.0203-.0196.0053-.0097.0053-.0228.0053-.0482v-.7416c0-.0248 0-.0378-.0053-.0476-.0046-.0078-.0111-.015-.0203-.0195-.0092-.0053-.0224-.0053-.0479-.0053zm-.3786-4.0268c-.0046.0098-.0046.0221-.0046.0476v.7422c0 .0255 0 .0378.0046.0476.0045.0078.0118.015.0203.0196.0098.0052.0217.0052.0472.0052h.7501c.0256 0 .0381 0 .0479-.0052.0086-.0046.0158-.0118.0204-.0196.0039-.0098.0039-.0221.0039-.0476v-.7422c0-.0255 0-.0378-.0039-.0476-.0033-.0059-.0079-.0111-.0125-.015-.0026-.002-.0052-.0033-.0079-.0052-.0098-.0046-.0223-.0046-.0479-.0046h-.7501c-.0255 0-.0374 0-.0472.0046-.0085.0045-.0158.0117-.0203.0202zm1.2737.0476c0-.0255 0-.0378.0046-.0476.0046-.0085.0118-.0157.0197-.0202.0099-.0046.023-.0046.0486-.0046h.7494c.0256 0 .0387 0 .0486.0046.0078.0045.0151.0117.0196.0202.0046.0098.0046.0221.0046.0476v.7422c0 .0255 0 .0378-.0046.0476-.0045.0078-.0118.015-.0196.0196-.0099.0052-.023.0052-.0486.0052h-.7494c-.0256 0-.0387 0-.0486-.0052-.0079-.0046-.0151-.0118-.0197-.0196-.0046-.0098-.0046-.0221-.0046-.0476zm-.6339 2.4845c-.0046.0098-.0046.0222-.0046.0476v.7416c0 .0254 0 .0385.0046.0476.0039.0085.0111.0156.0197.0202.0091.0052.0223.0052.0472.0052h1.6459c.0249 0 .038 0 .0472-.0052.0085-.0046.0158-.0117.0197-.0202.0053-.0091.0053-.0222.0053-.0476v-.7416c0-.0254 0-.0378-.0053-.0476-.0039-.0085-.0112-.015-.0197-.0195-.0092-.0052-.0223-.0052-.0472-.0052h-1.6459c-.0249 0-.0381 0-.0472.0052-.0086.0045-.0158.011-.0197.0195zm-10.9967-1.3922c-.0052.0091-.0052.0221-.0052.0475v3.6541c0 .0247 0 .0378.0052.0475.0046.0085.0112.015.0197.0196.0099.0052.0223.0052.0479.0052h1.1334c.0255 0 .038 0 .0479-.0052.0085-.0046.0151-.0111.0196-.0196.0053-.0097.0053-.0228.0053-.0475v-1.4468h.5663c.0256 0 .0381 0 .0486-.0052.0079-.0046.0151-.0117.019-.0202.0053-.0091.0053-.0222.0053-.0476v-.7416c0-.0254 0-.0378-.0053-.0476-.0039-.0084-.0111-.015-.019-.0195-.0105-.0052-.023-.0052-.0486-.0052h-.5663v-1.3204c0-.0254 0-.0384-.0053-.0475-.0045-.0092-.0111-.0157-.0196-.0202-.0099-.0046-.0224-.0046-.0479-.0046h-1.1334c-.0256 0-.038 0-.0479.0046-.0085.0045-.0151.011-.0197.0202zm-8.4439 1.1868c0-.0255 0-.0378.0039-.0476.0046-.0085.0119-.0156.0204-.0202.0092-.0039.0223-.0039.0479-.0039h1.1333c.025 0 .0381 0 .0479.0039.0079.0046.0151.0117.0197.0202.0053.0098.0053.0221.0053.0476v2.5148c0 .0248 0 .0378-.0053.0476-.0046.0085-.0118.015-.0197.0196-.0098.0052-.0229.0052-.0479.0052h-1.1333c-.0256 0-.0387 0-.0479-.0052-.0085-.0046-.0158-.0111-.0204-.0196-.0039-.0098-.0039-.0228-.0039-.0476zm29.176-1.2116c-.0125 0-.023.0098-.023.0228v.8426c0 .0111.0098.0209.0217.0209h.7468c.2821 0 .5105.2268.5105.5064 0 .2795-.2284.5063-.5105.5063h-.7468c-.0119 0-.0217.0091-.0217.0209v.8426c0 .0124.0105.0228.023.0228h.8761c.775 0 1.4023-.623 1.4023-1.3926 0-.769-.6273-1.3927-1.4023-1.3927zm-38.3831.0228c0-.013.0105-.0228.023-.0228h.8761c.7743 0 1.4024.6237 1.4024 1.3927 0 .7696-.6281 1.3926-1.4024 1.3926h-.8761c-.0125 0-.023-.0104-.023-.0228v-.8426c0-.0118.0092-.0209.0204-.0209h.7481c.2822 0 .5099-.2268.5099-.5063 0-.2796-.2277-.5064-.5099-.5064h-.7481c-.0112 0-.0204-.0098-.0204-.0209zm36.959.002c-.0052.0091-.0052.0221-.0052.0475v3.6541c0 .0247 0 .0378.0052.0475.0039.0085.0112.015.0197.0196.0098.0052.0223.0052.0479.0052h1.0054c.0256 0 .038 0 .0479-.0052.0085-.0046.0157-.0111.0203-.0196.0046-.0097.0046-.0228.0046-.0475v-3.6541c0-.0254 0-.0384-.0046-.0475-.0046-.0092-.0118-.0157-.0203-.0202-.0099-.0046-.0223-.0046-.0479-.0046h-1.0054c-.0256 0-.0381 0-.0479.0046-.0085.0045-.0158.011-.0197.0202zm-38.3653.0475c0-.0254 0-.0384.0046-.0475.0046-.0092.0118-.0157.0203-.0202.0092-.0046.0223-.0046.0479-.0046h1.0054c.0249 0 .0381 0 .0472.0046.0092.0045.0158.011.0204.0202.0052.0091.0052.0221.0052.0475v3.6541c0 .0247 0 .0378-.0052.0475-.0046.0085-.0112.015-.0204.0196-.0091.0052-.0223.0052-.0472.0052h-1.0054c-.0256 0-.0387 0-.0479-.0052-.0085-.0046-.0157-.0111-.0203-.0196-.0046-.0097-.0046-.0228-.0046-.0475zm-8.2949 2.08c-.0191 0-.0368.0124-.0427.03l-.2677.7586c-.0099.0299.0118.0606.0433.0606h1.151c.0322 0 .0545-.0333.0414-.0633l-.3262-.7585c-.0072-.0163-.0236-.0274-.0413-.0274zm-.1845-2.0891c-.0131-.03.0085-.0632.0414-.0632h1.0263c.0177 0 .0335.0104.0414.0267l1.6478 3.7081c.0131.03-.0092.0639-.042.0639h-1.0257c-.0177 0-.0341-.0111-.042-.0267zm.3564 1.1433c.0053.0111.0059.0228.0013.0346l-.9981 2.5396c-.0066.0182-.0236.0293-.042.0293h-1.0618c-.0328 0-.0545-.0326-.0427-.0619l1.5304-3.7198c.0157-.0372.0676-.0378.0833-.0013zm-9.19465-1.2065h.63985.8774.128c.0255 0 .0374 0 .0479.0046.0085.0045.0151.011.0196.0202.0046.0091.0046.0221.0046.0475v3.6541c0 .0247 0 .0378-.0046.0475-.0045.0085-.0111.015-.0196.0196-.0105.0052-.0224.0052-.0479.0052h-1.0054c-.0256 0-.03873 0-.04857-.0052-.00788-.0046-.0151-.0111-.01969-.0196-.00459-.0097-.00459-.0228-.00459-.0475v-2.8401h-.567c-.02493 0-.03806 0-.04725-.0052-.00918-.0046-.0164-.0111-.02034-.0196-.00459-.0097-.00459-.0221-.00459-.0469v-.7423c0-.0254 0-.0384.00459-.0475.00394-.0092.01116-.0157.02034-.0202.00919-.0046.02232-.0046.04725-.0046zm-2.11369.0248c-.00459.0091-.00459.0221-.00459.0475v3.6541c0 .0247 0 .0378.00459.0475.0046.0085.01182.015.02035.0196.00918.0052.02231.0052.0479.0052h1.00537c.02559 0 .03806 0 .0479-.0052.00853-.0046.01575-.0111.02035-.0196.00393-.0097.00393-.0228.00393-.0475v-2.8401h.56766c.02493 0 .0374 0 .04724-.0052.00854-.0046.0151-.0111.01969-.0196.00525-.0097.00525-.0221.00525-.0469v-.7423c0-.0254 0-.0384-.00525-.0475-.00459-.0092-.01115-.0157-.01969-.0202-.00984-.0046-.02231-.0046-.04724-.0046h-.63984-.87806-.12731c-.02559 0-.03872 0-.0479.0046-.00853.0045-.01575.011-.02035.0202zm-.00459-5.1087c0-.1271 0-.1896.02494-.2378.02165-.0424.05578-.0769.09909-.0984.04856-.0248.11222-.0248.23887-.0248h60.65073c.1266 0 .1903 0 .2388.0248.0427.0215.0781.056.0991.0984.025.0482.025.1107.025.2378v.1655c0 .1258 0 .189-.025.2373-.021.0417-.0564.0769-.0991.0984-.0485.0241-.1122.0241-.2388.0241h-60.65073c-.12665 0-.19031 0-.23887-.0241-.04331-.0215-.07744-.0567-.09909-.0984-.02494-.0483-.02494-.1115-.02494-.2373zm29.90303-15.8486c.0269.0586.0282.1251.0046.1851l-4.6639 11.875c-.0355.0919-.1254.1525-.2251.1525h-4.916c-.1706 0-.2874-.1727-.2231-.3304l7.2233-17.55843c.0459-.11013.2021-.11209.2507-.00326zm-1.2338-5.77832c-.04-.08928.0263-.19029.1241-.19029h5.0747c.0945 0 .1811.0554.2198.14207l7.9452 17.70184c.0715.159-.0453.3375-.2205.3375h-4.9113c-.0958 0-.1818-.0553-.2205-.142zm27.3568-.19029c-.1332 0-.2408.10688-.2408.23917v6.49474h-2.5843c-.0748 0-.1358.0606-.1358.1349v4.4438c0 .0743.061.1356.1358.1356h2.5843v6.4934c0 .133.1076.2398.2408.2398h4.9579c.1326 0 .2409-.1068.2409-.2398v-17.70244c0-.13229-.1083-.23917-.2409-.23917zm-12.4817.23917c0-.13229.1083-.23917.2415-.23917h4.958c.1332 0 .2408.10688.2408.23917v6.49474h2.5843c.0755 0 .1365.0606.1365.1349v4.4438c0 .0743-.061.1356-.1365.1356h-2.5843v6.4934c0 .133-.1076.2398-.2408.2398h-4.958c-.1332 0-.2415-.1068-.2415-.2398zm-31.2805 17.70244v-13.2279h-2.5843c-.0754 0-.1365-.0607-.1365-.1349v-4.44391c0-.07429.0611-.1349.1365-.1349h2.8252 1.5572 3.4007c.1332 0 .2415.10688.2415.23917v17.70244c0 .133-.1083.2398-.2415.2398h-4.9579c-.1333 0-.2409-.1068-.2409-.2398zm-12.24033-17.70244c0-.13229.10762-.23917.24084-.23917h2.72009 2.2372 2.8258c.0748 0 .1358.06061.1358.1349v4.44391c0 .0742-.061.1349-.1358.1349h-2.5837v13.2279c0 .133-.1083.2398-.2421.2398h-4.95729c-.13322 0-.24084-.1068-.24084-.2398zm29.20753 10.53454c-.0564 0-.1076.0352-.1273.0887l-1.3512 3.6299c-.0584.1557.0577.3226.2257.3226h5.7402c.1759 0 .2927-.1806.2199-.3389l-1.6459-3.6221c-.0223-.0489-.0709-.0802-.124-.0802zm-35.929351-15.76826c-.078749.1538-.078749.35517-.078749.75791v38.21765c0 .4027 0 .6041.078749.7579.069562.1349.180467.245.31631.3134.154871.0789.357651.0789.763211.0789h72.48603c.4056 0 .6084 0 .7632-.0789.1359-.0684.2468-.1785.3163-.3134.0788-.1538.0788-.3552.0788-.7579v-38.21765c0-.40274 0-.60411-.0788-.75791-.0695-.135552-.1804-.245036-.3163-.314115-.1548-.078202-.3576-.078202-.7632-.078202h-72.48603c-.40556 0-.60834 0-.763211.078202-.135843.069079-.246748.178563-.31631.314115z" fill="#fff" fill-rule="evenodd"/></g></svg>