<svg xmlns="http://www.w3.org/2000/svg" xmlns:xlink="http://www.w3.org/1999/xlink"><symbol id="icon-arrow-gray" viewBox="0 0 10 7"><path d="m1 1.49438 4 4 4-4" stroke="#8f95ac" stroke-linecap="round"/></symbol><symbol id="icon-arrow-white" viewBox="0 0 8 5"><path d="m7.10913 4.42065-3.05454-3-3.05455 3" stroke="#fff" stroke-linecap="round"/></symbol><symbol id="icon-arrow" viewBox="0 0 10 6"><path d="m8.78955 5-4-4-3.999999 4" stroke="#fff" stroke-linecap="round"/></symbol><symbol id="icon-check" viewBox="0 0 13 11"><path d="m0 5.50622.854782-.7998 4.189308 2.27144 7.22351-6.236649.7324.665359-7.64024 9.33463z" fill="#fff"/></symbol><symbol id="icon-couch" viewBox="0 0 21 15"><g clip-rule="evenodd" fill="#8f95ac" fill-rule="evenodd"><path d="m5.13127 8.40723v-2.21131c0-2.05967-.94292-3.02093-2.96757-3.02093h-.1637v-1.5797c0-.655345.52908-1.188063 1.17865-1.188063h14.64135c.6509 0 1.18.532718 1.18 1.188063v1.50717h-.165c-1.9749 0-3.0082 1.55596-3.0082 3.09346v2.21131z" fill-opacity=".5"/><path d="m17.3934 14.4072c-.0901 0-.1633-.0694-.1633-.1535v-.9812h-13.46154v.9812c0 .0841-.07312.1535-.16322.1535h-1.41811c-.0888 0-.16323-.0694-.16323-.1535v-.9812h-.84877c-.64899 0-1.17523-.4912-1.17523-1.097v-6.1296c0-.47779.191954-.63867.75998-.63867h1.85033c.50012 0 .75345.25961.75345.77031v3.16292c0 .43635.3813.79104.84878.79104h12.57366c.4687 0 .8487-.35469.8487-.79104v-2.83505c0-.25718.064-1.09818.9128-1.09818h1.6101c.696 0 .8422.59601.8422 1.09818v5.67009c0 .6058-.5275 1.097-1.1765 1.097h-.8475v.9812c0 .0828-.0757.1535-.1645.1535z"/></g></symbol><symbol id="icon-logo" viewBox="0 0 76 42"><mask id="a" height="42" maskUnits="userSpaceOnUse" width="76" x="0" y="0"><path clip-rule="evenodd" d="m.5 4.74072c0-2.20914 1.79086-3.999997 4-3.999997h66.8026c2.2091 0 4 1.790857 4 3.999997v32.51808c0 2.2091-1.7909 4-4 4h-66.8026c-2.20914 0-4-1.7909-4-4z" fill="#fff" fill-rule="evenodd"/></mask><g mask="url(#a)"><path clip-rule="evenodd" d="m39.8832 33.9117v-.7533c0-.0456-.0085-.0613-.0243-.0776-.0164-.0169-.0394-.0299-.0696-.0384-.0288-.0091-.0584-.0137-.1397-.0137h-3.3679c-.0814 0-.1109.0046-.1411.0137-.0295.0085-.0531.0215-.0695.0384-.0151.0163-.0243.032-.0243.0776v.7533c0 .045.0092.0613.0243.0776.0164.0169.04.03.0695.0391.0302.0085.0597.013.1411.013h3.3679c.0813 0 .1109-.0045.1397-.013.0302-.0091.0532-.0222.0696-.0391.0158-.0163.0243-.0326.0243-.0776zm7.9326.5344c-.0046.0098-.0046.0222-.0046.0476v.7416c0 .0254 0 .0385.0046.0476.0046.0085.0112.0156.0197.0202.0105.0052.0223.0052.0479.0052h.567v1.4468c0 .0247 0 .0378.0053.0475.0039.0085.0105.015.0197.0196.0091.0052.0223.0052.0472.0052h1.134c.0256 0 .0381 0 .0479-.0052.0085-.0046.0151-.0111.0197-.0196.0046-.0097.0046-.0228.0046-.0475v-3.6541c0-.0254 0-.0384-.0046-.0475-.0046-.0092-.0112-.0157-.0197-.0202-.0098-.0046-.0223-.0046-.0479-.0046h-1.134c-.0249 0-.0381 0-.0472.0046-.0053.0026-.0099.0065-.0138.0104-.0013.0019-.0033.0039-.0046.0059l-.0013.0039c-.0053.0091-.0053.0221-.0053.0475v1.3204h-.567c-.0256 0-.0374 0-.0479.0052-.0085.0045-.0151.0111-.0197.0195zm8.69 1.4943v-2.0254h2.4846c.0255 0 .0387 0 .0479-.0052.0092-.0046.0157-.0111.0203-.0196.0053-.0097.0053-.0221.0053-.0469v-.7423c0-.0254 0-.0384-.0053-.0475-.0046-.0092-.0111-.0157-.0203-.0202-.0092-.0046-.0224-.0046-.0479-.0046h-2.5568-.1102-.8958c-.0256 0-.0381 0-.0479.0046-.0079.0045-.0151.011-.0197.0202-.0052.0091-.0052.0221-.0052.0475v3.6541c0 .0247 0 .0378.0052.0475.0046.0085.0118.015.0197.0196.0098.0052.0223.0052.0479.0052h1.006.0138 2.543c.0255 0 .0387 0 .0479-.0052.0092-.0046.0157-.0111.0203-.0196.0053-.0097.0053-.0228.0053-.0482v-.7416c0-.0248 0-.0378-.0053-.0476-.0046-.0078-.0111-.015-.0203-.0195-.0092-.0053-.0224-.0053-.0479-.0053zm-.3786-4.0268c-.0046.0098-.0046.0221-.0046.0476v.7422c0 .0255 0 .0378.0046.0476.0045.0078.0118.015.0203.0196.0098.0052.0217.0052.0472.0052h.7501c.0256 0 .0381 0 .0479-.0052.0086-.0046.0158-.0118.0204-.0196.0039-.0098.0039-.0221.0039-.0476v-.7422c0-.0255 0-.0378-.0039-.0476-.0033-.0059-.0079-.0111-.0125-.015-.0026-.002-.0052-.0033-.0079-.0052-.0098-.0046-.0223-.0046-.0479-.0046h-.7501c-.0255 0-.0374 0-.0472.0046-.0085.0045-.0158.0117-.0203.0202zm1.2737.0476c0-.0255 0-.0378.0046-.0476.0046-.0085.0118-.0157.0197-.0202.0099-.0046.023-.0046.0486-.0046h.7494c.0256 0 .0387 0 .0486.0046.0078.0045.0151.0117.0196.0202.0046.0098.0046.0221.0046.0476v.7422c0 .0255 0 .0378-.0046.0476-.0045.0078-.0118.015-.0196.0196-.0099.0052-.023.0052-.0486.0052h-.7494c-.0256 0-.0387 0-.0486-.0052-.0079-.0046-.0151-.0118-.0197-.0196-.0046-.0098-.0046-.0221-.0046-.0476zm-.6339 2.4845c-.0046.0098-.0046.0222-.0046.0476v.7416c0 .0254 0 .0385.0046.0476.0039.0085.0111.0156.0197.0202.0091.0052.0223.0052.0472.0052h1.6459c.0249 0 .038 0 .0472-.0052.0085-.0046.0158-.0117.0197-.0202.0053-.0091.0053-.0222.0053-.0476v-.7416c0-.0254 0-.0378-.0053-.0476-.0039-.0085-.0112-.015-.0197-.0195-.0092-.0052-.0223-.0052-.0472-.0052h-1.6459c-.0249 0-.0381 0-.0472.0052-.0086.0045-.0158.011-.0197.0195zm-10.9967-1.3922c-.0052.0091-.0052.0221-.0052.0475v3.6541c0 .0247 0 .0378.0052.0475.0046.0085.0112.015.0197.0196.0099.0052.0223.0052.0479.0052h1.1334c.0255 0 .038 0 .0479-.0052.0085-.0046.0151-.0111.0196-.0196.0053-.0097.0053-.0228.0053-.0475v-1.4468h.5663c.0256 0 .0381 0 .0486-.0052.0079-.0046.0151-.0117.019-.0202.0053-.0091.0053-.0222.0053-.0476v-.7416c0-.0254 0-.0378-.0053-.0476-.0039-.0084-.0111-.015-.019-.0195-.0105-.0052-.023-.0052-.0486-.0052h-.5663v-1.3204c0-.0254 0-.0384-.0053-.0475-.0045-.0092-.0111-.0157-.0196-.0202-.0099-.0046-.0224-.0046-.0479-.0046h-1.1334c-.0256 0-.038 0-.0479.0046-.0085.0045-.0151.011-.0197.0202zm-8.4439 1.1868c0-.0255 0-.0378.0039-.0476.0046-.0085.0119-.0156.0204-.0202.0092-.0039.0223-.0039.0479-.0039h1.1333c.025 0 .0381 0 .0479.0039.0079.0046.0151.0117.0197.0202.0053.0098.0053.0221.0053.0476v2.5148c0 .0248 0 .0378-.0053.0476-.0046.0085-.0118.015-.0197.0196-.0098.0052-.0229.0052-.0479.0052h-1.1333c-.0256 0-.0387 0-.0479-.0052-.0085-.0046-.0158-.0111-.0204-.0196-.0039-.0098-.0039-.0228-.0039-.0476zm29.176-1.2116c-.0125 0-.023.0098-.023.0228v.8426c0 .0111.0098.0209.0217.0209h.7468c.2821 0 .5105.2268.5105.5064 0 .2795-.2284.5063-.5105.5063h-.7468c-.0119 0-.0217.0091-.0217.0209v.8426c0 .0124.0105.0228.023.0228h.8761c.775 0 1.4023-.623 1.4023-1.3926 0-.769-.6273-1.3927-1.4023-1.3927zm-38.3831.0228c0-.013.0105-.0228.023-.0228h.8761c.7743 0 1.4024.6237 1.4024 1.3927 0 .7696-.6281 1.3926-1.4024 1.3926h-.8761c-.0125 0-.023-.0104-.023-.0228v-.8426c0-.0118.0092-.0209.0204-.0209h.7481c.2822 0 .5099-.2268.5099-.5063 0-.2796-.2277-.5064-.5099-.5064h-.7481c-.0112 0-.0204-.0098-.0204-.0209zm36.959.002c-.0052.0091-.0052.0221-.0052.0475v3.6541c0 .0247 0 .0378.0052.0475.0039.0085.0112.015.0197.0196.0098.0052.0223.0052.0479.0052h1.0054c.0256 0 .038 0 .0479-.0052.0085-.0046.0157-.0111.0203-.0196.0046-.0097.0046-.0228.0046-.0475v-3.6541c0-.0254 0-.0384-.0046-.0475-.0046-.0092-.0118-.0157-.0203-.0202-.0099-.0046-.0223-.0046-.0479-.0046h-1.0054c-.0256 0-.0381 0-.0479.0046-.0085.0045-.0158.011-.0197.0202zm-38.3653.0475c0-.0254 0-.0384.0046-.0475.0046-.0092.0118-.0157.0203-.0202.0092-.0046.0223-.0046.0479-.0046h1.0054c.0249 0 .0381 0 .0472.0046.0092.0045.0158.011.0204.0202.0052.0091.0052.0221.0052.0475v3.6541c0 .0247 0 .0378-.0052.0475-.0046.0085-.0112.015-.0204.0196-.0091.0052-.0223.0052-.0472.0052h-1.0054c-.0256 0-.0387 0-.0479-.0052-.0085-.0046-.0157-.0111-.0203-.0196-.0046-.0097-.0046-.0228-.0046-.0475zm-8.2949 2.08c-.0191 0-.0368.0124-.0427.03l-.2677.7586c-.0099.0299.0118.0606.0433.0606h1.151c.0322 0 .0545-.0333.0414-.0633l-.3262-.7585c-.0072-.0163-.0236-.0274-.0413-.0274zm-.1845-2.0891c-.0131-.03.0085-.0632.0414-.0632h1.0263c.0177 0 .0335.0104.0414.0267l1.6478 3.7081c.0131.03-.0092.0639-.042.0639h-1.0257c-.0177 0-.0341-.0111-.042-.0267zm.3564 1.1433c.0053.0111.0059.0228.0013.0346l-.9981 2.5396c-.0066.0182-.0236.0293-.042.0293h-1.0618c-.0328 0-.0545-.0326-.0427-.0619l1.5304-3.7198c.0157-.0372.0676-.0378.0833-.0013zm-9.19465-1.2065h.63985.8774.128c.0255 0 .0374 0 .0479.0046.0085.0045.0151.011.0196.0202.0046.0091.0046.0221.0046.0475v3.6541c0 .0247 0 .0378-.0046.0475-.0045.0085-.0111.015-.0196.0196-.0105.0052-.0224.0052-.0479.0052h-1.0054c-.0256 0-.03873 0-.04857-.0052-.00788-.0046-.0151-.0111-.01969-.0196-.00459-.0097-.00459-.0228-.00459-.0475v-2.8401h-.567c-.02493 0-.03806 0-.04725-.0052-.00918-.0046-.0164-.0111-.02034-.0196-.00459-.0097-.00459-.0221-.00459-.0469v-.7423c0-.0254 0-.0384.00459-.0475.00394-.0092.01116-.0157.02034-.0202.00919-.0046.02232-.0046.04725-.0046zm-2.11369.0248c-.00459.0091-.00459.0221-.00459.0475v3.6541c0 .0247 0 .0378.00459.0475.0046.0085.01182.015.02035.0196.00918.0052.02231.0052.0479.0052h1.00537c.02559 0 .03806 0 .0479-.0052.00853-.0046.01575-.0111.02035-.0196.00393-.0097.00393-.0228.00393-.0475v-2.8401h.56766c.02493 0 .0374 0 .04724-.0052.00854-.0046.0151-.0111.01969-.0196.00525-.0097.00525-.0221.00525-.0469v-.7423c0-.0254 0-.0384-.00525-.0475-.00459-.0092-.01115-.0157-.01969-.0202-.00984-.0046-.02231-.0046-.04724-.0046h-.63984-.87806-.12731c-.02559 0-.03872 0-.0479.0046-.00853.0045-.01575.011-.02035.0202zm-.00459-5.1087c0-.1271 0-.1896.02494-.2378.02165-.0424.05578-.0769.09909-.0984.04856-.0248.11222-.0248.23887-.0248h60.65073c.1266 0 .1903 0 .2388.0248.0427.0215.0781.056.0991.0984.025.0482.025.1107.025.2378v.1655c0 .1258 0 .189-.025.2373-.021.0417-.0564.0769-.0991.0984-.0485.0241-.1122.0241-.2388.0241h-60.65073c-.12665 0-.19031 0-.23887-.0241-.04331-.0215-.07744-.0567-.09909-.0984-.02494-.0483-.02494-.1115-.02494-.2373zm29.90303-15.8486c.0269.0586.0282.1251.0046.1851l-4.6639 11.875c-.0355.0919-.1254.1525-.2251.1525h-4.916c-.1706 0-.2874-.1727-.2231-.3304l7.2233-17.55843c.0459-.11013.2021-.11209.2507-.00326zm-1.2338-5.77832c-.04-.08928.0263-.19029.1241-.19029h5.0747c.0945 0 .1811.0554.2198.14207l7.9452 17.70184c.0715.159-.0453.3375-.2205.3375h-4.9113c-.0958 0-.1818-.0553-.2205-.142zm27.3568-.19029c-.1332 0-.2408.10688-.2408.23917v6.49474h-2.5843c-.0748 0-.1358.0606-.1358.1349v4.4438c0 .0743.061.1356.1358.1356h2.5843v6.4934c0 .133.1076.2398.2408.2398h4.9579c.1326 0 .2409-.1068.2409-.2398v-17.70244c0-.13229-.1083-.23917-.2409-.23917zm-12.4817.23917c0-.13229.1083-.23917.2415-.23917h4.958c.1332 0 .2408.10688.2408.23917v6.49474h2.5843c.0755 0 .1365.0606.1365.1349v4.4438c0 .0743-.061.1356-.1365.1356h-2.5843v6.4934c0 .133-.1076.2398-.2408.2398h-4.958c-.1332 0-.2415-.1068-.2415-.2398zm-31.2805 17.70244v-13.2279h-2.5843c-.0754 0-.1365-.0607-.1365-.1349v-4.44391c0-.07429.0611-.1349.1365-.1349h2.8252 1.5572 3.4007c.1332 0 .2415.10688.2415.23917v17.70244c0 .133-.1083.2398-.2415.2398h-4.9579c-.1333 0-.2409-.1068-.2409-.2398zm-12.24033-17.70244c0-.13229.10762-.23917.24084-.23917h2.72009 2.2372 2.8258c.0748 0 .1358.06061.1358.1349v4.44391c0 .0742-.061.1349-.1358.1349h-2.5837v13.2279c0 .133-.1083.2398-.2421.2398h-4.95729c-.13322 0-.24084-.1068-.24084-.2398zm29.20753 10.53454c-.0564 0-.1076.0352-.1273.0887l-1.3512 3.6299c-.0584.1557.0577.3226.2257.3226h5.7402c.1759 0 .2927-.1806.2199-.3389l-1.6459-3.6221c-.0223-.0489-.0709-.0802-.124-.0802zm-35.929351-15.76826c-.078749.1538-.078749.35517-.078749.75791v38.21765c0 .4027 0 .6041.078749.7579.069562.1349.180467.245.31631.3134.154871.0789.357651.0789.763211.0789h72.48603c.4056 0 .6084 0 .7632-.0789.1359-.0684.2468-.1785.3163-.3134.0788-.1538.0788-.3552.0788-.7579v-38.21765c0-.40274 0-.60411-.0788-.75791-.0695-.135552-.1804-.245036-.3163-.314115-.1548-.078202-.3576-.078202-.7632-.078202h-72.48603c-.40556 0-.60834 0-.763211.078202-.135843.069079-.246748.178563-.31631.314115z" fill="#fff" fill-rule="evenodd"/></g></symbol><symbol id="icon-main-image" viewBox="0 0 469 503"><path d="m206.99 125.253c44.235-61.04 139.242-67.4172 170.1 3.796 30.858 71.213 72.965 203.921 43.171 244.462-29.794 40.693-97.287-36.745-167.668-4.403-70.533 32.342-219.9598-6.529-220.7198-91.104-.6081-84.727 120.3928-77.287 175.1168-152.751z" fill="#ff2d23"/><path d="m94.7673 149.07-63.3702 17.511c-1.303.354-2.7243-.355-3.0797-1.775l-24.99273-89.9202c-.35535-1.3015.35535-2.7213 1.77673-3.0763l63.3702-17.3924c1.303-.3549 2.7243.355 3.0797 1.7748l24.9927 89.9201c.2369 1.301-.4738 2.603-1.7767 2.958z" fill="#2c2e3e" stroke="#fff" stroke-miterlimit="10" stroke-width=".5"/><path d="m93.5828 154.631-65.1469 9.229c-1.303.236-2.6059-.71-2.8428-2.13l-13.0294-92.4048c-.2369-1.3015.7107-2.603 2.1321-2.8396l65.1469-9.2287c1.303-.2366 2.6059.7099 2.8428 2.1297l13.0294 92.4044c.2369 1.302-.7107 2.603-2.1321 2.84z" fill="#2c2e3e" stroke="#fff" stroke-miterlimit="10" stroke-width=".5"/><path d="m91.3323 158.417-64.9101 10.885c-1.3029.236-2.6058-.71-2.8427-2.012l-15.51684-92.0495c-.2369-1.3015.71069-2.603 2.01364-2.8396l64.91-10.885c1.303-.2367 2.6059.7099 2.8428 2.0113l15.5168 92.0498c.2369 1.301-.7107 2.603-2.0136 2.84z" fill="#2c2e3e" stroke="#fff" stroke-miterlimit="10" stroke-width=".5"/><path d="m90.3847 163.15-63.844 15.617c-1.303.355-2.6059-.473-2.9612-1.774l-22.26845-90.7485c-.355351-1.3015.47379-2.603 1.77673-2.9579l63.84402-15.6177c1.3029-.355 2.6059.4732 2.9612 1.7747l22.2684 90.6304c.3554 1.419-.4738 2.721-1.7767 3.076z" fill="#2c2e3e" stroke="#fff" stroke-miterlimit="10" stroke-width=".5"/><path d="m29.6204 120.556-6.5147 1.538c-.7107.236-1.5399-.237-1.7767-1.065l-4.5011-18.457c-.2369-.71.2369-1.539 1.066-1.775l6.5147-1.5383c.7107-.2367 1.5399.2366 1.7768 1.0653l4.501 18.457c.2369.828-.2369 1.538-1.066 1.775z" fill="#2c2e3e" stroke="#fff" stroke-miterlimit="10" stroke-width=".5"/><path d="m42.6498 117.361-6.5147 1.538c-.7107.237-1.5399-.236-1.7768-1.065l-6.0409-24.491c-.2369-.7099.2369-1.5381 1.0661-1.7747l6.5147-1.5381c.7107-.2367 1.5398.2366 1.7767 1.0648l6.0409 24.491c.1185.829-.3553 1.538-1.066 1.775z" fill="#2c2e3e" stroke="#fff" stroke-miterlimit="10" stroke-width=".5"/><path d="m55.2054 114.285-6.5147 1.538c-.7107.237-1.5399-.237-1.6583-.947l-1.1845-4.732c-.2369-.71.2369-1.538 1.066-1.775l6.5147-1.538c.7107-.237 1.5399.237 1.7768 1.065l1.1845 4.732c.1184.71-.3554 1.42-1.1845 1.657z" fill="#2c2e3e" stroke="#fff" stroke-miterlimit="10" stroke-width=".5"/><path d="m67.9979 111.209-6.5147 1.538c-.7107.236-1.5399-.237-1.7768-1.065l-3.6719-14.7897c-.2369-.7099.2369-1.5381 1.0661-1.7747l6.6331-1.5381c.7107-.2367 1.5398.2366 1.7767 1.0648l3.672 14.7897c.1184.71-.3554 1.538-1.1845 1.775z" fill="#2c2e3e" stroke="#fff" stroke-miterlimit="10" stroke-width=".5"/><path d="m18.723 123.159 52.8283-12.897" stroke="#fff" stroke-miterlimit="10" stroke-width=".5"/><path d="m18.723 123.158-7.936-32.5364" stroke="#fff" stroke-miterlimit="10" stroke-width=".5"/><path d="m21.5658 134.517 20.6101-4.969" stroke="#fff" stroke-miterlimit="10" stroke-width=".5"/><path d="m45.7295 128.601 28.5462-6.981" stroke="#fff" stroke-miterlimit="10" stroke-width=".5"/><path d="m23.461 142.089 8.6468-2.011" stroke="#fff" stroke-miterlimit="10" stroke-width=".5"/><path d="m61.8385 132.742 14.3323-3.431" stroke="#fff" stroke-miterlimit="10" stroke-width=".5"/><path d="m35.069 139.368 23.4529-5.798" stroke="#fff" stroke-miterlimit="10" stroke-width=".5"/><path d="m25.2377 149.779 52.8283-12.896" stroke="#fff" stroke-miterlimit="10" stroke-width=".5"/><path d="m27.1329 157.352 15.9906-3.904" stroke="#fff" stroke-miterlimit="10" stroke-width=".5"/><path d="m45.4925 152.856 21.5577-5.206" stroke="#fff" stroke-miterlimit="10" stroke-width=".5"/><path d="m29.0281 164.924 39.9174-9.702" stroke="#fff" stroke-miterlimit="10" stroke-width=".5"/><path d="m199.239 459.058s4.146 16.091 9.832 22.598c5.685 6.507 15.872 11.477 20.847 6.271 4.974-5.206-3.672-30.881-5.686-36.797-2.961-8.4-12.082-30.88-12.082-30.88l-9.831 9.465-1.185 13.843z" fill="#2c2e3e"/><path d="m202.674 446.398s9.95 25.556 15.754 26.502c12.437 2.012 3.317-21.533 3.317-21.533l-10.661-33.957-6.751 6.744-2.133 15.973z" fill="#2c2e3e" stroke="#fff" stroke-miterlimit="10" stroke-width=".5"/><path d="m185.025 437.405s-13.503 37.388-15.398 47.918-1.421 16.091 5.212 17.392c6.633 1.302 20.018-7.572 22.387-19.758 2.369-12.187 7.107-49.22 7.107-49.22z" fill="#2c2e3e"/><path d="m186.684 431.016s-8.41 32.182-10.187 40.346c-2.014 8.637-1.184 14.553 5.449 14.553 5.804 0 13.384-7.927 15.28-20.35 1.895-12.424 3.198-22.362 5.093-30.881-.118 0-2.961-7.572-15.635-3.668z" fill="#2c2e3e" stroke="#fff" stroke-miterlimit="10" stroke-width=".5"/><path d="m169.627 284.896s4.383 17.274 6.278 25.083c1.895 7.69 3.198 30.171 2.606 38.216-.593 8.045 11.489 55.608 11.489 55.608l-4.856 25.793s6.396 7.573 19.189 4.378c0 0 5.33-11.713 8.291-18.102s23.334-48.273 25.23-64.956c1.895-16.801 1.303-31.472 2.132-34.075.71-2.603 9.949-31.827 9.949-31.827h-80.308z" fill="#fff" stroke="#2c2e3e" stroke-miterlimit="10" stroke-width=".5"/><path d="m208.478 285.843s-2.25 23.781-2.842 35.258c-.593 11.477-15.636 82.703-15.636 82.703" stroke="#2c2e3e" stroke-miterlimit="10" stroke-width=".5"/><path d="m272.204 258.629s3.08.71 4.264 3.55l19.189 42.475s2.487 6.153-4.62 6.153h-166.42s-5.686-.119-3.317-6.981l18.36-41.529s1.302-3.668 6.396-3.668" fill="#fff"/><g stroke-width=".5"><path d="m272.204 258.629s3.08.71 4.264 3.55l19.189 42.475s2.487 6.153-4.62 6.153h-166.42s-5.686-.119-3.317-6.981l18.36-41.529s1.302-3.668 6.396-3.668" stroke="#2c2e3e" stroke-miterlimit="10"/><path d="m146.174 182.671h126.148c2.369 0 4.265 1.893 4.265 4.259v67.322c0 2.366-1.896 4.259-4.265 4.259h-126.148c-2.369 0-4.264-1.893-4.264-4.259v-67.322c0-2.366 1.895-4.259 4.264-4.259z" fill="#fff" stroke="#2c2e3e" stroke-miterlimit="10"/><path d="m264.031 244.432h2.843c.592 0 1.184.473 1.184 1.183v2.839c0 .592-.474 1.184-1.184 1.184h-2.843c-.592 0-1.185-.474-1.185-1.184v-2.839c.119-.71.593-1.183 1.185-1.183z" fill="#fff" stroke="#2c2e3e" stroke-miterlimit="10"/><path d="m256.924 244.432h2.843c.592 0 1.184.473 1.184 1.183v2.839c0 .592-.474 1.184-1.184 1.184h-2.843c-.592 0-1.184-.474-1.184-1.184v-2.839c0-.71.473-1.183 1.184-1.183z" fill="#fff" stroke="#2c2e3e" stroke-miterlimit="10"/><path d="m249.699 244.432h2.842c.593 0 1.185.473 1.185 1.183v2.839c0 .592-.474 1.184-1.185 1.184h-2.842c-.593 0-1.185-.474-1.185-1.184v-2.839c.119-.71.592-1.183 1.185-1.183z" fill="#fff" stroke="#2c2e3e" stroke-miterlimit="10"/><path d="m242.592 244.432h2.842c.593 0 1.185.473 1.185 1.183v2.839c0 .592-.474 1.184-1.185 1.184h-2.842c-.593 0-1.185-.474-1.185-1.184v-2.839c0-.71.592-1.183 1.185-1.183z" fill="#fff" stroke="#2c2e3e" stroke-miterlimit="10"/><path d="m235.485 244.432h2.842c.593 0 1.185.473 1.185 1.183v2.839c0 .592-.474 1.184-1.185 1.184h-2.842c-.593 0-1.185-.474-1.185-1.184v-2.839c0-.71.474-1.183 1.185-1.183z" fill="#fff" stroke="#2c2e3e" stroke-miterlimit="10"/><path d="m228.259 244.432h2.843c.592 0 1.185.473 1.185 1.183v2.839c0 .592-.474 1.184-1.185 1.184h-2.843c-.592 0-1.184-.474-1.184-1.184v-2.839c0-.71.592-1.183 1.184-1.183z" fill="#fff" stroke="#2c2e3e" stroke-miterlimit="10"/><path d="m221.152 244.432h2.843c.592 0 1.185.473 1.185 1.183v2.839c0 .592-.474 1.184-1.185 1.184h-2.843c-.592 0-1.184-.474-1.184-1.184v-2.839c0-.71.474-1.183 1.184-1.183z" fill="#fff" stroke="#2c2e3e" stroke-miterlimit="10"/><path d="m213.927 244.432h2.843c.592 0 1.184.473 1.184 1.183v2.839c0 .592-.474 1.184-1.184 1.184h-2.843c-.592 0-1.184-.474-1.184-1.184v-2.839c.118-.71.592-1.183 1.184-1.183z" fill="#fff" stroke="#2c2e3e" stroke-miterlimit="10"/><path d="m206.82 244.432h2.843c.592 0 1.184.473 1.184 1.183v2.839c0 .592-.473 1.184-1.184 1.184h-2.843c-.592 0-1.184-.474-1.184-1.184v-2.839c0-.71.592-1.183 1.184-1.183z" fill="#fff" stroke="#2c2e3e" stroke-miterlimit="10"/><path d="m199.713 244.432h2.843c.592 0 1.184.473 1.184 1.183v2.839c0 .592-.473 1.184-1.184 1.184h-2.843c-.592 0-1.184-.474-1.184-1.184v-2.839c0-.71.473-1.183 1.184-1.183z" fill="#fff" stroke="#2c2e3e" stroke-miterlimit="10"/><path d="m254.91 237.451h2.843c.592 0 1.185.473 1.185 1.183v2.84c0 .591-.474 1.183-1.185 1.183h-2.843c-.592 0-1.184-.473-1.184-1.183v-2.84c0-.591.474-1.183 1.184-1.183z" fill="#fff" stroke="#2c2e3e" stroke-miterlimit="10"/><path d="m261.425 237.451h5.567c.592 0 1.066.473 1.066 1.065v3.076c0 .592-.474 1.065-1.066 1.065h-5.567c-.592 0-1.066-.473-1.066-1.065v-3.076c.119-.592.592-1.065 1.066-1.065z" fill="#fff" stroke="#2c2e3e" stroke-miterlimit="10"/><path d="m197.226 223.963h24.756c.473 0 .947.473.947.946v3.313c0 .474-.474.947-.947.947h-24.756c-.474 0-.948-.473-.948-.947v-3.313c0-.473.474-.946.948-.946z" fill="#fff" stroke="#2c2e3e" stroke-miterlimit="10"/><path d="m196.16 197.697h26.177c1.303 0 2.25 1.065 2.25 2.248v15.144c0 1.302-1.066 2.248-2.25 2.248h-26.177c-1.303 0-2.251-1.065-2.251-2.248v-15.144c0-1.302.948-2.248 2.251-2.248z" fill="#fff" stroke="#2c2e3e" stroke-miterlimit="10"/><path d="m247.685 237.451h2.843c.592 0 1.184.473 1.184 1.183v2.84c0 .591-.474 1.183-1.184 1.183h-2.843c-.592 0-1.184-.473-1.184-1.183v-2.84c0-.591.592-1.183 1.184-1.183z" fill="#fff" stroke="#2c2e3e" stroke-miterlimit="10"/><path d="m240.46 237.451h2.842c.593 0 1.185.473 1.185 1.183v2.84c0 .591-.474 1.183-1.185 1.183h-2.842c-.593 0-1.185-.473-1.185-1.183v-2.84c.119-.591.592-1.183 1.185-1.183z" fill="#fff" stroke="#2c2e3e" stroke-miterlimit="10"/><path d="m233.353 237.451h2.843c.592 0 1.184.473 1.184 1.183v2.84c0 .591-.474 1.183-1.184 1.183h-2.843c-.593 0-1.185-.473-1.185-1.183v-2.84c0-.591.474-1.183 1.185-1.183z" fill="#fff" stroke="#2c2e3e" stroke-miterlimit="10"/><path d="m226.127 237.451h2.843c.592 0 1.185.473 1.185 1.183v2.84c0 .591-.474 1.183-1.185 1.183h-2.843c-.592 0-1.184-.473-1.184-1.183v-2.84c.118-.591.592-1.183 1.184-1.183z" fill="#fff" stroke="#2c2e3e" stroke-miterlimit="10"/><path d="m219.02 237.451h2.843c.592 0 1.185.473 1.185 1.183v2.84c0 .591-.474 1.183-1.185 1.183h-2.843c-.592 0-1.184-.473-1.184-1.183v-2.84c0-.591.474-1.183 1.184-1.183z" fill="#fff" stroke="#2c2e3e" stroke-miterlimit="10"/><path d="m211.795 237.451h2.843c.592 0 1.184.473 1.184 1.183v2.84c0 .591-.474 1.183-1.184 1.183h-2.843c-.592 0-1.184-.473-1.184-1.183v-2.84c0-.591.592-1.183 1.184-1.183z" fill="#fff" stroke="#2c2e3e" stroke-miterlimit="10"/><path d="m204.688 237.451h2.843c.592 0 1.184.473 1.184 1.183v2.84c0 .591-.473 1.183-1.184 1.183h-2.843c-.592 0-1.184-.473-1.184-1.183v-2.84c0-.591.473-1.183 1.184-1.183z" fill="#fff" stroke="#2c2e3e" stroke-miterlimit="10"/><path d="m197.463 237.451h2.842c.593 0 1.185.473 1.185 1.183v2.84c0 .591-.474 1.183-1.185 1.183h-2.842c-.593 0-1.185-.473-1.185-1.183v-2.84c0-.591.592-1.183 1.185-1.183z" fill="#fff" stroke="#2c2e3e" stroke-miterlimit="10"/><path d="m264.031 230.826h2.843c.592 0 1.184.473 1.184 1.183v2.839c0 .592-.474 1.184-1.184 1.184h-2.843c-.592 0-1.185-.474-1.185-1.184v-2.839c.119-.592.593-1.183 1.185-1.183z" fill="#fff" stroke="#2c2e3e" stroke-miterlimit="10"/><path d="m256.924 230.826h2.843c.592 0 1.184.473 1.184 1.183v2.839c0 .592-.474 1.184-1.184 1.184h-2.843c-.592 0-1.184-.474-1.184-1.184v-2.839c0-.592.473-1.183 1.184-1.183z" fill="#fff" stroke="#2c2e3e" stroke-miterlimit="10"/><path d="m249.699 230.826h2.842c.593 0 1.185.473 1.185 1.183v2.839c0 .592-.474 1.184-1.185 1.184h-2.842c-.593 0-1.185-.474-1.185-1.184v-2.839c.119-.592.592-1.183 1.185-1.183z" fill="#fff" stroke="#2c2e3e" stroke-miterlimit="10"/><path d="m242.592 230.826h2.842c.593 0 1.185.473 1.185 1.183v2.839c0 .592-.474 1.184-1.185 1.184h-2.842c-.593 0-1.185-.474-1.185-1.184v-2.839c0-.592.592-1.183 1.185-1.183z" fill="#fff" stroke="#2c2e3e" stroke-miterlimit="10"/><path d="m235.485 230.826h2.842c.593 0 1.185.473 1.185 1.183v2.839c0 .592-.474 1.184-1.185 1.184h-2.842c-.593 0-1.185-.474-1.185-1.184v-2.839c0-.592.474-1.183 1.185-1.183z" fill="#fff" stroke="#2c2e3e" stroke-miterlimit="10"/><path d="m228.259 230.826h2.843c.592 0 1.185.473 1.185 1.183v2.839c0 .592-.474 1.184-1.185 1.184h-2.843c-.592 0-1.184-.474-1.184-1.184v-2.839c0-.592.592-1.183 1.184-1.183z" fill="#fff" stroke="#2c2e3e" stroke-miterlimit="10"/><path d="m221.152 230.826h2.843c.592 0 1.185.473 1.185 1.183v2.839c0 .592-.474 1.184-1.185 1.184h-2.843c-.592 0-1.184-.474-1.184-1.184v-2.839c0-.592.474-1.183 1.184-1.183z" fill="#fff" stroke="#2c2e3e" stroke-miterlimit="10"/><path d="m213.927 230.826h2.843c.592 0 1.184.473 1.184 1.183v2.839c0 .592-.474 1.184-1.184 1.184h-2.843c-.592 0-1.184-.474-1.184-1.184v-2.839c.118-.592.592-1.183 1.184-1.183z" fill="#fff" stroke="#2c2e3e" stroke-miterlimit="10"/><path d="m206.82 230.826h2.843c.592 0 1.184.473 1.184 1.183v2.839c0 .592-.473 1.184-1.184 1.184h-2.843c-.592 0-1.184-.474-1.184-1.184v-2.839c0-.592.592-1.183 1.184-1.183z" fill="#fff" stroke="#2c2e3e" stroke-miterlimit="10"/><path d="m199.713 230.826h2.843c.592 0 1.184.473 1.184 1.183v2.839c0 .592-.473 1.184-1.184 1.184h-2.843c-.592 0-1.184-.474-1.184-1.184v-2.839c0-.592.473-1.183 1.184-1.183z" fill="#fff" stroke="#2c2e3e" stroke-miterlimit="10"/><path d="m192.488 230.826h2.843c.592 0 1.184.473 1.184 1.183v2.839c0 .592-.474 1.184-1.184 1.184h-2.843c-.592 0-1.185-.474-1.185-1.184v-2.839c0-.592.593-1.183 1.185-1.183z" fill="#fff" stroke="#2c2e3e" stroke-miterlimit="10"/><path d="m190.237 223.963h2.843c.592 0 1.185.473 1.185 1.183v2.84c0 .591-.474 1.183-1.185 1.183h-2.843c-.592 0-1.184-.473-1.184-1.183v-2.84c.118-.592.592-1.183 1.184-1.183z" fill="#fff" stroke="#2c2e3e" stroke-miterlimit="10"/><path d="m183.13 223.963h2.843c.592 0 1.185.473 1.185 1.183v2.84c0 .591-.474 1.183-1.185 1.183h-2.843c-.592 0-1.184-.473-1.184-1.183v-2.84c0-.592.474-1.183 1.184-1.183z" fill="#fff" stroke="#2c2e3e" stroke-miterlimit="10"/><path d="m175.905 223.963h2.843c.592 0 1.184.473 1.184 1.183v2.84c0 .591-.474 1.183-1.184 1.183h-2.843c-.592 0-1.185-.473-1.185-1.183v-2.84c0-.592.593-1.183 1.185-1.183z" fill="#fff" stroke="#2c2e3e" stroke-miterlimit="10"/><path d="m168.798 223.963h2.843c.592 0 1.184.473 1.184 1.183v2.84c0 .591-.474 1.183-1.184 1.183h-2.843c-.592 0-1.184-.473-1.184-1.183v-2.84c0-.592.473-1.183 1.184-1.183z" fill="#fff" stroke="#2c2e3e" stroke-miterlimit="10"/><path d="m247.093 223.963h2.843c.592 0 1.184.473 1.184 1.183v2.84c0 .591-.474 1.183-1.184 1.183h-2.843c-.592 0-1.185-.473-1.185-1.183v-2.84c.119-.592.593-1.183 1.185-1.183z" fill="#fff" stroke="#2c2e3e" stroke-miterlimit="10"/><path d="m254.081 223.963h2.843c.592 0 1.184.473 1.184 1.183v2.84c0 .591-.473 1.183-1.184 1.183h-2.843c-.592 0-1.184-.473-1.184-1.183v-2.84c.118-.592.592-1.183 1.184-1.183z" fill="#fff" stroke="#2c2e3e" stroke-miterlimit="10"/><path d="m261.07 223.963h5.804c.592 0 1.184.473 1.184 1.183v2.84c0 .591-.474 1.183-1.184 1.183h-5.804c-.593 0-1.185-.473-1.185-1.183v-2.84c.119-.592.592-1.183 1.185-1.183z" fill="#fff" stroke="#2c2e3e" stroke-miterlimit="10"/><path d="m240.104 223.963h2.843c.592 0 1.185.473 1.185 1.183v2.84c0 .591-.474 1.183-1.185 1.183h-2.843c-.592 0-1.184-.473-1.184-1.183v-2.84c.118-.592.592-1.183 1.184-1.183z" fill="#fff" stroke="#2c2e3e" stroke-miterlimit="10"/><path d="m233.116 223.963h2.843c.592 0 1.184.473 1.184 1.183v2.84c0 .591-.474 1.183-1.184 1.183h-2.843c-.592 0-1.185-.473-1.185-1.183v-2.84c.119-.592.593-1.183 1.185-1.183z" fill="#fff" stroke="#2c2e3e" stroke-miterlimit="10"/><path d="m226.127 223.963h2.843c.592 0 1.185.473 1.185 1.183v2.84c0 .591-.474 1.183-1.185 1.183h-2.843c-.592 0-1.184-.473-1.184-1.183v-2.84c.118-.592.592-1.183 1.184-1.183z" fill="#fff" stroke="#2c2e3e" stroke-miterlimit="10"/><path d="m161.573 223.963h2.842c.593 0 1.185.473 1.185 1.183v2.84c0 .591-.474 1.183-1.185 1.183h-2.842c-.593 0-1.185-.473-1.185-1.183v-2.84c0-.592.592-1.183 1.185-1.183z" fill="#fff" stroke="#2c2e3e" stroke-miterlimit="10"/><path d="m185.381 230.826h2.843c.592 0 1.184.473 1.184 1.183v2.839c0 .592-.474 1.184-1.184 1.184h-2.843c-.592 0-1.185-.474-1.185-1.184v-2.839c0-.592.474-1.183 1.185-1.183z" fill="#fff" stroke="#2c2e3e" stroke-miterlimit="10"/><path d="m178.155 230.826h2.843c.592 0 1.185.473 1.185 1.183v2.839c0 .592-.474 1.184-1.185 1.184h-2.843c-.592 0-1.184-.474-1.184-1.184v-2.839c.118-.592.592-1.183 1.184-1.183z" fill="#fff" stroke="#2c2e3e" stroke-miterlimit="10"/><path d="m171.048 230.826h2.843c.593 0 1.185.473 1.185 1.183v2.839c0 .592-.474 1.184-1.185 1.184h-2.843c-.592 0-1.184-.474-1.184-1.184v-2.839c0-.592.592-1.183 1.184-1.183z" fill="#fff" stroke="#2c2e3e" stroke-miterlimit="10"/><path d="m163.942 230.826h2.842c.593 0 1.185.473 1.185 1.183v2.839c0 .592-.474 1.184-1.185 1.184h-2.842c-.593 0-1.185-.474-1.185-1.184v-2.839c0-.592.474-1.183 1.185-1.183z" fill="#fff" stroke="#2c2e3e" stroke-miterlimit="10"/><path d="m156.716 230.826h2.843c.592 0 1.184.473 1.184 1.183v2.839c0 .592-.473 1.184-1.184 1.184h-2.843c-.592 0-1.184-.474-1.184-1.184v-2.839c0-.592.592-1.183 1.184-1.183z" fill="#fff" stroke="#2c2e3e" stroke-miterlimit="10"/><path d="m149.609 237.569h7.936c.593 0 1.185.474 1.185 1.183v2.84c0 .592-.474 1.183-1.185 1.183h-7.936c-.592 0-1.184-.473-1.184-1.183v-2.84c0-.591.474-1.183 1.184-1.183z" fill="#fff" stroke="#2c2e3e" stroke-miterlimit="10"/><path d="m149.609 223.963h7.936c.593 0 1.185.473 1.185 1.183v2.84c0 .591-.474 1.183-1.185 1.183h-7.936c-.592 0-1.184-.473-1.184-1.183v-2.84c0-.592.474-1.183 1.184-1.183z" fill="#fff" stroke="#2c2e3e" stroke-miterlimit="10"/><path d="m149.609 230.826h2.843c.592 0 1.184.473 1.184 1.183v2.839c0 .592-.473 1.184-1.184 1.184h-2.843c-.592 0-1.184-.474-1.184-1.184v-2.839c0-.592.474-1.183 1.184-1.183z" fill="#fff" stroke="#2c2e3e" stroke-miterlimit="10"/><path d="m190.237 237.451h2.843c.592 0 1.185.473 1.185 1.183v2.84c0 .591-.474 1.183-1.185 1.183h-2.843c-.592 0-1.184-.473-1.184-1.183v-2.84c.118-.591.592-1.183 1.184-1.183z" fill="#fff" stroke="#2c2e3e" stroke-miterlimit="10"/><path d="m183.13 237.451h2.843c.592 0 1.185.473 1.185 1.183v2.84c0 .591-.474 1.183-1.185 1.183h-2.843c-.592 0-1.184-.473-1.184-1.183v-2.84c0-.591.474-1.183 1.184-1.183z" fill="#fff" stroke="#2c2e3e" stroke-miterlimit="10"/><path d="m175.905 237.451h2.843c.592 0 1.184.473 1.184 1.183v2.84c0 .591-.474 1.183-1.184 1.183h-2.843c-.592 0-1.185-.473-1.185-1.183v-2.84c0-.591.593-1.183 1.185-1.183z" fill="#fff" stroke="#2c2e3e" stroke-miterlimit="10"/><path d="m168.798 237.451h2.843c.592 0 1.184.473 1.184 1.183v2.84c0 .591-.474 1.183-1.184 1.183h-2.843c-.592 0-1.184-.473-1.184-1.183v-2.84c0-.591.473-1.183 1.184-1.183z" fill="#fff" stroke="#2c2e3e" stroke-miterlimit="10"/><path d="m161.573 237.451h2.842c.593 0 1.185.473 1.185 1.183v2.84c0 .591-.474 1.183-1.185 1.183h-2.842c-.593 0-1.185-.473-1.185-1.183v-2.84c0-.591.592-1.183 1.185-1.183z" fill="#fff" stroke="#2c2e3e" stroke-miterlimit="10"/><path d="m192.488 244.432h2.843c.592 0 1.184.473 1.184 1.183v2.839c0 .592-.474 1.184-1.184 1.184h-2.843c-.592 0-1.185-.474-1.185-1.184v-2.839c0-.71.593-1.183 1.185-1.183z" fill="#fff" stroke="#2c2e3e" stroke-miterlimit="10"/><path d="m185.381 244.432h2.843c.592 0 1.184.473 1.184 1.183v2.839c0 .592-.474 1.184-1.184 1.184h-2.843c-.592 0-1.185-.474-1.185-1.184v-2.839c0-.71.474-1.183 1.185-1.183z" fill="#fff" stroke="#2c2e3e" stroke-miterlimit="10"/><path d="m178.155 244.432h2.843c.592 0 1.185.473 1.185 1.183v2.839c0 .592-.474 1.184-1.185 1.184h-2.843c-.592 0-1.184-.474-1.184-1.184v-2.839c.118-.71.592-1.183 1.184-1.183z" fill="#fff" stroke="#2c2e3e" stroke-miterlimit="10"/><path d="m171.048 244.432h2.843c.593 0 1.185.473 1.185 1.183v2.839c0 .592-.474 1.184-1.185 1.184h-2.843c-.592 0-1.184-.474-1.184-1.184v-2.839c0-.71.592-1.183 1.184-1.183z" fill="#fff" stroke="#2c2e3e" stroke-miterlimit="10"/><path d="m163.942 244.432h2.842c.593 0 1.185.473 1.185 1.183v2.839c0 .592-.474 1.184-1.185 1.184h-2.842c-.593 0-1.185-.474-1.185-1.184v-2.839c0-.71.474-1.183 1.185-1.183z" fill="#fff" stroke="#2c2e3e" stroke-miterlimit="10"/><path d="m156.716 244.432h2.843c.592 0 1.184.473 1.184 1.183v2.839c0 .592-.473 1.184-1.184 1.184h-2.843c-.592 0-1.184-.474-1.184-1.184v-2.839c0-.71.592-1.183 1.184-1.183z" fill="#fff" stroke="#2c2e3e" stroke-miterlimit="10"/><path d="m149.609 244.432h2.843c.592 0 1.184.473 1.184 1.183v2.839c0 .592-.473 1.184-1.184 1.184h-2.843c-.592 0-1.184-.474-1.184-1.184v-2.839c0-.71.474-1.183 1.184-1.183z" fill="#fff" stroke="#2c2e3e" stroke-miterlimit="10"/><path d="m290.445 307.258h-165.118s-1.54.236-.829-1.657l17.649-40.7s1.303-3.55 6.159-3.55h120.581s3.08 0 4.383 2.485l18.596 40.937s.948 2.485-1.421 2.485z" stroke="#5a5f64" stroke-miterlimit="10"/></g><path d="m285.352 57.1383c-.474-2.7212-8.884-5.6791-17.294-8.992-8.41-3.3128-26.059-6.744-26.059-6.744s-48.682-2.7212-59.816 0c-11.135 2.7213-33.403 14.5529-36.838 16.8009s-3.554 3.7861-5.212 13.0147-4.738 75.4851-4.738 75.4851l13.622 36.323 96.891-43.067 23.453-23.899.237 19.167 23.097-4.615c.119-.118-6.87-70.7524-7.343-73.4737zm-121.411 111.5717-5.685-27.449 2.25-24.846s3.791 11.121 8.41 15.499z" fill="#fff"/><path d="m269.006 137.237-15.043 33.484s8.883 5.324 11.371 6.152c2.487.947 7.699 1.656 7.699 1.656l20.373-37.742v-3.55l-2.369-25.083-21.913 19.286z" fill="#fff"/><path d="m165.955 182.316s-2.132-1.775-2.132-5.561c0-10.649 2.487-32.774 4.62-41.647 0 0 1.066-2.485 0-4.023-1.067-1.42-8.884-14.435-10.424-22.48-1.54-8.046 20.492-7.691 20.492-7.691l90.85 8.638v7.453l-10.305 17.748s-.355 15.263.474 22.007l-5.567 13.724 4.856 2.958-7.936 8.874z" fill="#fff"/><path d="m148.069 180.305s3.198 8.282 4.028 10.885c.829 2.603 5.448 17.51 5.448 17.51s1.303 2.958 1.185 6.39c-.119 3.431-2.132 23.189-2.132 25.082 0 1.894.947 3.787 2.013 3.077s4.146-15.263 4.146-15.263l-.711 15.973s.119 5.679 4.62 6.862c0 0 .355 4.851 4.619 2.603 0 0 .119-12.423.119-13.961.118-1.539 1.066-11.004 1.066-11.004s2.369 17.038 3.079 19.049c.711 2.011 1.422 4.141 2.606 3.786 1.185-.473 1.303-3.668 1.303-7.69 0-4.023-.474-22.717-.474-22.717l3.554 9.939s1.303 4.496 3.435 4.141 0-11.004 0-11.004-2.132-11.95-2.369-12.423-9.476-12.068-9.476-12.068-4.383-5.206-5.686-8.874c-1.302-3.786-3.553-15.973-3.553-15.973z" fill="#fff"/><path d="m161.691 95.2361s-2.251 41.7659-3.435 46.0249c0 0 6.278 26.621 7.107 38.334 0 0-8.292 6.271-14.333 8.637 0 0-14.924-37.151-15.753-41.529-.829-4.259 3.435-77.8513 6.278-84.7137 2.842-6.8623 33.758-18.3389 33.758-18.3389" stroke="#2c2e3e" stroke-miterlimit="10" stroke-width=".5"/><path d="m165.481 179.595s1.422 9.465 4.975 14.908c3.554 5.442 12.556 15.736 13.148 17.037s2.487 11.358 2.843 15.618c.355 4.259.71 8.755-1.303 7.69-2.014-1.183-5.567-11.831-6.16-14.908 0 0 .948 26.503.356 29.461s-2.606 2.603-3.791-1.893c-1.066-4.496-2.961-17.511-3.198-20.35" stroke="#2c2e3e" stroke-miterlimit="10" stroke-width=".5"/><path d="m153.281 195.331-2.132-7.099" stroke="#2c2e3e" stroke-miterlimit="10" stroke-width=".5"/><path d="m169.035 191.899s-.948.947-3.554 1.657-4.382-.118-7.699 0c-4.975.236-5.685 4.614-5.685 4.614s-.593 4.141 2.132 6.626c2.724 2.484 6.988 1.301 8.646 0 3.672-3.076 4.383-7.099 9.121-8.164" stroke="#2c2e3e" stroke-miterlimit="10" stroke-width=".5"/><path d="m158.256 204.678c2.747 0 4.975-2.225 4.975-4.969 0-2.745-2.228-4.97-4.975-4.97-2.748 0-4.975 2.225-4.975 4.97 0 2.744 2.227 4.969 4.975 4.969z" stroke="#2c2e3e" stroke-miterlimit="10" stroke-width=".5"/><path d="m253.015 177.347s-4.501 12.186-6.633 13.488c-2.014 1.301-9.002 7.927-9.594 8.518-.593.592-4.857 4.496-6.989 10.294-2.132 5.797-3.198 10.412-3.198 10.412s3.435 2.129 5.449-2.367c2.013-4.496 5.922-7.454 5.922-7.454s1.421 5.325 1.185 9.111c-.237 3.786-1.303 8.992-2.014 12.068s-2.843 8.755-1.303 9.465c1.54.592 3.909-2.248 5.686-6.034 2.605-5.561 4.145-10.767 4.145-10.767l-.947 9.347s-1.777 8.164-1.303 9.229c.474.947 2.013 2.485 3.553.71 0 0 .948-.473 1.658-.947.711-.355 2.843-2.484 4.028-6.507 1.184-3.904 2.961-13.606 2.961-13.606l.711 11.121s-.119 1.893 1.421 1.775 1.777-4.023 1.777-4.023l2.724-34.666 4.264-9.347 5.449-10.175-16.228-6.863z" fill="#fff"/><path d="m255.147 171.431s-5.33 15.144-8.765 19.403c-3.435 4.26-9.95 7.099-14.451 14.672-4.382 7.572-5.33 14.552-5.33 14.552s3.435 2.13 5.449-2.366c2.013-4.496 5.922-7.454 5.922-7.454s1.895 5.443.948 12.897c-.948 7.454-4.146 15.381-3.791 16.919.356 1.538 2.962 1.183 5.212-2.603 2.487-4.259 5.33-11.95 5.686-18.457" stroke="#2c2e3e" stroke-miterlimit="10" stroke-width=".5"/><path d="m247.448 242.539s2.132.355 3.317-2.603c1.184-2.958 4.027-10.767 5.093-20.232 0 0 .118 14.553.829 15.145.711.591 2.369 1.064 2.843-3.668.355-4.733 2.132-31.827 2.724-34.667.592-2.958 9.121-17.984 9.121-17.984" stroke="#2c2e3e" stroke-miterlimit="10" stroke-width=".5"/><path d="m269.716 99.732s-.592 35.495-.592 37.506c0 0-7.462 13.133-15.043 33.483 0 0 12.437 8.519 19.07 7.809 0 0 19.426-34.193 20.374-37.742.947-3.432-6.989-79.7453-8.173-83.6497-1.185-3.9045-24.164-11.4767-24.164-11.4767" stroke="#2c2e3e" stroke-miterlimit="10" stroke-width=".5"/><path d="m175.431 49.9209s-2.961 4.0227-1.421 13.1331c1.658 9.2286 9.949 31.3537 25.466 46.38 15.517 15.026 32.1-8.874 32.1-8.874" stroke="#2c2e3e" stroke-miterlimit="10" stroke-width=".5"/><path d="m184.078 71.2173s10.897 29.8157 26.532 29.8157c12.437 0 28.191-14.4347 28.547-16.6827" stroke="#2c2e3e" stroke-miterlimit="10" stroke-width=".5"/><path d="m184.078 71.2175s-8.292-9.7019-9.239-25.5562c-.948-15.736 6.515-36.08634 18.004-40.58234 11.49-4.496003 33.166-8.40043 45.129 1.41979 11.963 9.82025 8.884 17.03745 19.781 22.24335 10.779 5.2059-.237 19.2855 3.08 27.0944 3.316 7.6905 14.095 15.736 5.922 33.2467-8.173 17.5108-9.713 16.9188-11.252 29.9338-1.54 13.015-7.818 17.629-16.228 15.026 0 0 2.014-10.057-3.909-18.22-5.922-8.283-2.013-25.32-2.013-25.32s6.514-5.6792 6.633-7.5722c.118-1.8931 0-8.1638-8.173-11.8316s-6.633-10.8851-14.925-10.6484c-8.41.2366-18.833-3.5495-21.913-8.6371-.118.1183-8.765 4.851-10.897 19.4038z" fill="#2c2e3e"/><path d="m164.415 171.432c-1.066-8.164 4.62-39.518 4.62-39.518s-8.765-11.595-8.41-17.511" stroke="#2c2e3e" stroke-miterlimit="10" stroke-width=".5"/><path d="m169.035 131.914s11.726 6.152 21.321 6.389" stroke="#2c2e3e" stroke-miterlimit="10" stroke-width=".5"/><path d="m260.004 155.932s-1.185-7.336-1.303-13.015c-.119-5.798.355-8.046.355-8.046s3.909-7.453 10.423-18.93" stroke="#2c2e3e" stroke-miterlimit="10" stroke-width=".5"/><path d="m166.547 250.229s-4.856-.118-4.619-6.152c.237-6.035 1.066-15.145.711-15.973-.356-.828-2.962 13.961-4.146 15.263-1.066 1.301-2.014-1.302-2.014-1.302s2.961-26.621 1.895-30.407-1.658-5.206-1.658-5.206" stroke="#2c2e3e" stroke-miterlimit="10" stroke-width=".5"/><path d="m171.996 230.589s-1.303 16.091-.711 22.954c0 0-4.145 2.839-4.619-3.313-.474-6.153-.592-17.393 0-20.351" stroke="#2c2e3e" stroke-miterlimit="10" stroke-width=".5"/><path d="m245.671 222.544s-1.184 13.961-2.132 18.22c-.947 4.26 2.369 4.26 3.909 1.775 1.421-2.485 4.501-16.091 4.619-22.125" stroke="#2c2e3e" stroke-miterlimit="10" stroke-width=".5"/><path d="m365.779 186.812 54.249-20.232c1.777-.71 2.725-2.722 2.014-4.496l-28.665-76.7872c-.71-1.7748-2.724-2.7213-4.501-2.0114l-54.249 20.2316c-1.777.71-2.725 2.722-2.014 4.496l28.665 76.787c.71 1.775 2.606 2.722 4.501 2.012z" fill="#fff" stroke="#2c2e3e" stroke-miterlimit="10" stroke-width=".5"/><path d="m388.047 99.377-36.719 13.843" stroke="#2c2e3e" stroke-miterlimit="10" stroke-width=".5"/><path d="m365.305 121.856-9.358 3.55" stroke="#2c2e3e" stroke-miterlimit="10" stroke-width=".5"/><path d="m392.548 111.563-5.567 2.13" stroke="#2c2e3e" stroke-miterlimit="10" stroke-width=".5"/><path d="m385.204 114.403-17.53 6.508" stroke="#2c2e3e" stroke-miterlimit="10" stroke-width=".5"/><path d="m390.298 105.529-36.601 13.725" stroke="#2c2e3e" stroke-miterlimit="10" stroke-width=".5"/><path d="m379.4 123.395-21.202 8.045" stroke="#2c2e3e" stroke-miterlimit="10" stroke-width=".5"/><path d="m394.917 117.598-13.621 5.206" stroke="#2c2e3e" stroke-miterlimit="10" stroke-width=".5"/><path d="m368.977 134.28-8.529 3.194" stroke="#2c2e3e" stroke-miterlimit="10" stroke-width=".5"/><path d="m399.892 131.558-36.601 13.843" stroke="#2c2e3e" stroke-miterlimit="10" stroke-width=".5"/><path d="m377.268 154.038-9.357 3.431" stroke="#2c2e3e" stroke-miterlimit="10" stroke-width=".5"/><path d="m404.511 143.745-5.567 2.13" stroke="#2c2e3e" stroke-miterlimit="10" stroke-width=".5"/><path d="m397.049 146.466-17.412 6.626" stroke="#2c2e3e" stroke-miterlimit="10" stroke-width=".5"/><path d="m402.261 137.711-36.719 13.725" stroke="#2c2e3e" stroke-miterlimit="10" stroke-width=".5"/><path d="m391.364 155.577-21.203 8.045" stroke="#2c2e3e" stroke-miterlimit="10" stroke-width=".5"/><path d="m406.762 149.779-13.622 5.206" stroke="#2c2e3e" stroke-miterlimit="10" stroke-width=".5"/><path d="m380.94 166.461-8.528 3.195" stroke="#2c2e3e" stroke-miterlimit="10" stroke-width=".5"/><path d="m409.131 155.813-25.703 9.702" stroke="#2c2e3e" stroke-miterlimit="10" stroke-width=".5"/><path d="m333.442 112.273 1.422-.947.592 1.42-1.303.946-.356.71.474.355.593-.118.473 1.301-1.658.119-1.066-.355-.474-1.065.237-1.183z" fill="#fff"/><path d="m336.522 110.261c0-.236-.119-.355-.119-.591 0-1.183.948-2.13 2.132-2.13 1.185 0 2.132.947 2.132 2.13s-.947 2.129-2.132 2.129c-.473 0-.829-.118-1.184-.355" fill="#fff"/><path d="m336.522 110.261c0-.236-.119-.355-.119-.591 0-1.183.948-2.13 2.132-2.13 1.185 0 2.132.947 2.132 2.13s-.947 2.129-2.132 2.129c-.473 0-.829-.118-1.184-.355" stroke="#2c2e3e" stroke-miterlimit="10" stroke-width=".5"/><path d="m336.64 108.841s.711.947-.355 1.657-4.027 2.011-4.146 3.549c-.118 1.302.592 2.485 3.317 1.893" stroke="#2c2e3e" stroke-miterlimit="10" stroke-width=".5"/><path d="m334.982 114.639s-.948.355-1.184-.237c-.237-.71 1.895-1.775 2.368-2.129 1.303-.829 2.014-1.184 2.133-2.485.118-1.183-.474-2.13-.474-2.13" stroke="#2c2e3e" stroke-miterlimit="10" stroke-width=".5"/><path d="m336.522 120.674 1.421-.947.592 1.42-1.303.946-.355.71.474.355.592-.118.474 1.301-1.658.119-1.066-.474-.474-.946.237-1.302z" fill="#fff"/><path d="m339.601 118.662c0-.237-.118-.355-.118-.592 0-1.183.948-2.13 2.132-2.13 1.185 0 2.132.947 2.132 2.13s-.947 2.13-2.132 2.13c-.474 0-.829-.119-1.184-.355" fill="#fff"/><path d="m339.601 118.662c0-.237-.118-.355-.118-.592 0-1.183.948-2.13 2.132-2.13 1.185 0 2.132.947 2.132 2.13s-.947 2.13-2.132 2.13c-.474 0-.829-.119-1.184-.355" stroke="#2c2e3e" stroke-miterlimit="10" stroke-width=".5"/><path d="m339.72 117.242s.711.947-.355 1.657c-1.067.71-4.028 2.011-4.146 3.549-.119 1.302.592 2.485 3.316 1.893" stroke="#2c2e3e" stroke-miterlimit="10" stroke-width=".5"/><path d="m338.062 123.04s-.948.355-1.185-.237c-.237-.71 1.895-1.775 2.369-2.13 1.303-.828 2.014-1.183 2.132-2.484.119-1.183-.474-2.13-.474-2.13" stroke="#2c2e3e" stroke-miterlimit="10" stroke-width=".5"/><path d="m339.601 129.074 1.422-.946.592 1.42-1.303.946-.355.71.474.355.71-.118.474 1.301-1.777.119-1.066-.474-.474-.946.237-1.302z" fill="#fff"/><path d="m342.681 127.063c0-.237-.118-.355-.118-.592 0-1.183.947-2.13 2.132-2.13 1.184 0 2.132.947 2.132 2.13s-.948 2.13-2.132 2.13c-.474 0-.829-.119-1.185-.355" fill="#fff"/><path d="m342.681 127.063c0-.237-.118-.355-.118-.592 0-1.183.947-2.13 2.132-2.13 1.184 0 2.132.947 2.132 2.13s-.948 2.13-2.132 2.13c-.474 0-.829-.119-1.185-.355" stroke="#2c2e3e" stroke-miterlimit="10" stroke-width=".5"/><path d="m342.8 125.643s.71.947-.356 1.656c-1.066.71-4.027 2.012-4.146 3.55-.118 1.301.593 2.485 3.317 1.893" stroke="#2c2e3e" stroke-miterlimit="10" stroke-width=".5"/><path d="m341.26 131.322s-.948.355-1.185-.237c-.237-.71 1.895-1.774 2.369-2.129 1.303-.829 2.014-1.184 2.132-2.485.119-1.183-.474-2.13-.474-2.13" stroke="#2c2e3e" stroke-miterlimit="10" stroke-width=".5"/><path d="m342.681 137.474 1.54-.946.592 1.301-1.421.947-.237.71.474.355h.592l.474 1.183-1.659.236-1.066-.473-.592-.946.355-1.302z" fill="#fff"/><path d="m345.879 135.462c0-.236-.118-.354-.118-.591 0-1.183.947-2.13 2.132-2.13 1.184 0 2.132.947 2.132 2.13s-.948 2.13-2.132 2.13c-.474 0-.829-.119-1.185-.355" fill="#fff"/><path d="m345.879 135.462c0-.236-.118-.354-.118-.591 0-1.183.947-2.13 2.132-2.13 1.184 0 2.132.947 2.132 2.13s-.948 2.13-2.132 2.13c-.474 0-.829-.119-1.185-.355" stroke="#2c2e3e" stroke-miterlimit="10" stroke-width=".5"/><path d="m345.998 133.924s.71.947-.356 1.657-4.027 2.011-4.146 3.549c-.118 1.302.593 2.485 3.317 1.893" stroke="#2c2e3e" stroke-miterlimit="10" stroke-width=".5"/><path d="m344.339 139.722s-.947.355-1.184-.237c-.237-.71 1.895-1.775 2.369-2.129 1.303-.829 2.013-1.184 2.132-2.485.118-1.183-.474-2.13-.474-2.13" stroke="#2c2e3e" stroke-miterlimit="10" stroke-width=".5"/><path d="m345.879 145.756 1.422-.946.592 1.301-1.303.947-.355.709.473.355h.593l.473 1.184-1.658.236-1.066-.473-.474-.947.237-1.301z" fill="#fff"/><path d="m348.959 143.744c0-.236-.119-.355-.119-.591 0-1.184.948-2.13 2.133-2.13 1.184 0 2.132.946 2.132 2.13 0 1.183-.948 2.129-2.132 2.129-.474 0-.83-.118-1.185-.355" fill="#fff"/><path d="m348.959 143.744c0-.236-.119-.355-.119-.591 0-1.184.948-2.13 2.133-2.13 1.184 0 2.132.946 2.132 2.13 0 1.183-.948 2.129-2.132 2.129-.474 0-.83-.118-1.185-.355" stroke="#2c2e3e" stroke-miterlimit="10" stroke-width=".5"/><path d="m349.077 142.324s.711.947-.355 1.657-4.027 2.011-4.146 3.549c-.118 1.302.593 2.485 3.317 1.893" stroke="#2c2e3e" stroke-miterlimit="10" stroke-width=".5"/><path d="m347.419 148.004s-.947.355-1.184-.237c-.237-.71 1.895-1.775 2.369-2.13 1.303-.828 2.013-1.183 2.132-2.484.118-1.184-.474-2.13-.474-2.13" stroke="#2c2e3e" stroke-miterlimit="10" stroke-width=".5"/><path d="m348.959 154.158 1.421-1.065.593 1.42-1.303.946-.237.71.355.355.711-.118.474 1.301-1.777.237-.948-.474-.592-1.064.355-1.184z" fill="#fff"/><path d="m352.157 152.027c0-.236-.118-.355-.118-.591 0-1.183.947-2.13 2.132-2.13 1.184 0 2.132.947 2.132 2.13s-.948 2.13-2.132 2.13c-.474 0-.829-.119-1.185-.355" fill="#fff"/><path d="m352.157 152.027c0-.236-.118-.355-.118-.591 0-1.183.947-2.13 2.132-2.13 1.184 0 2.132.947 2.132 2.13s-.948 2.13-2.132 2.13c-.474 0-.829-.119-1.185-.355" stroke="#2c2e3e" stroke-miterlimit="10" stroke-width=".5"/><path d="m352.275 150.607s.711.947-.355 1.657-4.027 2.011-4.146 3.549c-.118 1.302.593 2.485 3.317 1.893" stroke="#2c2e3e" stroke-miterlimit="10" stroke-width=".5"/><path d="m350.617 156.405s-.947.355-1.184-.237c-.237-.71 1.895-1.774 2.369-2.129 1.303-.829 2.013-1.184 2.132-2.485.118-1.183-.474-2.13-.474-2.13" stroke="#2c2e3e" stroke-miterlimit="10" stroke-width=".5"/><path d="m352.039 162.439 1.539-.947.474 1.42-1.303.947-.237.709.356.355.71-.118.474 1.302-1.777.118-.947-.473-.592-.947.355-1.301z" fill="#fff"/><path d="m355.237 160.427c0-.236-.119-.355-.119-.591 0-1.183.948-2.13 2.132-2.13 1.185 0 2.132.947 2.132 2.13s-.947 2.129-2.132 2.129c-.473 0-.829-.118-1.184-.355" fill="#fff"/><path d="m355.237 160.427c0-.236-.119-.355-.119-.591 0-1.183.948-2.13 2.132-2.13 1.185 0 2.132.947 2.132 2.13s-.947 2.129-2.132 2.129c-.473 0-.829-.118-1.184-.355" stroke="#2c2e3e" stroke-miterlimit="10" stroke-width=".5"/><path d="m355.355 159.008s.711.946-.355 1.656-4.027 2.012-4.146 3.55c-.118 1.301.592 2.484 3.317 1.893" stroke="#2c2e3e" stroke-miterlimit="10" stroke-width=".5"/><path d="m353.697 164.805s-.948.355-1.185-.236c-.237-.71 1.896-1.775 2.369-2.13 1.303-.828 2.014-1.183 2.132-2.485.119-1.183-.473-2.129-.473-2.129" stroke="#2c2e3e" stroke-miterlimit="10" stroke-width=".5"/><path d="m355.237 170.839 1.421-.946.592 1.419-1.303.829-.355.709.474.355h.71l.474 1.184-1.776.236-1.066-.473-.474-.947.237-1.301z" fill="#fff"/><path d="m358.316 168.828c0-.237-.118-.355-.118-.592 0-1.183.947-2.13 2.132-2.13 1.184 0 2.132.947 2.132 2.13s-.948 2.13-2.132 2.13c-.474 0-.829-.118-1.185-.355" fill="#fff"/><path d="m358.316 168.828c0-.237-.118-.355-.118-.592 0-1.183.947-2.13 2.132-2.13 1.184 0 2.132.947 2.132 2.13s-.948 2.13-2.132 2.13c-.474 0-.829-.118-1.185-.355" stroke="#2c2e3e" stroke-miterlimit="10" stroke-width=".5"/><path d="m358.435 167.408s.71.947-.356 1.657-4.027 2.011-4.145 3.549c-.119 1.302.592 2.485 3.316 1.893" stroke="#2c2e3e" stroke-miterlimit="10" stroke-width=".5"/><path d="m356.776 173.087s-.947.355-1.184-.237c-.237-.709 1.895-1.774 2.369-2.129 1.303-.828 2.014-1.183 2.132-2.485.119-1.183-.474-2.13-.474-2.13" stroke="#2c2e3e" stroke-miterlimit="10" stroke-width=".5"/><path d="m358.316 179.241 1.422-1.065.592 1.42-1.303.946-.237.71.355.355.711-.118.474 1.301-1.777.237-1.066-.474-.474-1.064.237-1.184z" fill="#fff"/><path d="m361.514 177.11c0-.236-.118-.355-.118-.591 0-1.183.948-2.13 2.132-2.13 1.185 0 2.132.947 2.132 2.13s-.947 2.13-2.132 2.13c-.474 0-.829-.119-1.184-.355" fill="#fff"/><path d="m361.514 177.11c0-.236-.118-.355-.118-.591 0-1.183.948-2.13 2.132-2.13 1.185 0 2.132.947 2.132 2.13s-.947 2.13-2.132 2.13c-.474 0-.829-.119-1.184-.355" stroke="#2c2e3e" stroke-miterlimit="10" stroke-width=".5"/><path d="m361.515 175.691s.71.947-.356 1.657-4.027 2.011-4.145 3.549c-.119 1.302.592 2.485 3.316 1.893" stroke="#2c2e3e" stroke-miterlimit="10" stroke-width=".5"/><path d="m359.975 181.489s-.948.355-1.185-.237c-.237-.71 1.895-1.774 2.369-2.129 1.303-.829 2.014-1.184 2.132-2.485.119-1.183-.474-2.13-.474-2.13" stroke="#2c2e3e" stroke-miterlimit="10" stroke-width=".5"/><path d="m434.005 193.556c18.775 0 33.995-15.203 33.995-33.956 0-18.754-15.22-33.957-33.995-33.957s-33.995 15.203-33.995 33.957c0 18.753 15.22 33.956 33.995 33.956z" fill="#fff" stroke="#2c2e3e" stroke-miterlimit="10" stroke-width=".5"/><path d="m413.395 161.966h-4.738c-1.303 0-2.369-1.065-2.369-2.366 0-1.302 1.066-2.367 2.369-2.367h4.738" fill="#fff"/><path d="m413.395 161.966h-4.738c-1.303 0-2.369-1.065-2.369-2.366 0-1.302 1.066-2.367 2.369-2.367h4.738" stroke="#2c2e3e" stroke-miterlimit="10" stroke-width=".5"/><path d="m434.005 180.187c11.383 0 20.61-9.217 20.61-20.587s-9.227-20.587-20.61-20.587c-11.382 0-20.61 9.217-20.61 20.587s9.228 20.587 20.61 20.587z" fill="#fff" stroke="#2c2e3e" stroke-miterlimit="10" stroke-width=".5"/><path d="m434.005 175.809c8.962 0 16.228-7.257 16.228-16.209s-7.266-16.209-16.228-16.209-16.227 7.257-16.227 16.209 7.265 16.209 16.227 16.209z" fill="#fff" stroke="#2c2e3e" stroke-miterlimit="10" stroke-width=".5"/><path d="m434.005 174.508c8.243 0 14.925-6.674 14.925-14.908 0-8.233-6.682-14.908-14.925-14.908s-14.924 6.675-14.924 14.908c0 8.234 6.681 14.908 14.924 14.908z" fill="#2c2e3e"/><path d="m352.986 410.31-31.152-8.992c-1.777-.473-2.724-2.366-2.251-4.141l18.715-64.363c.474-1.775 2.369-2.722 4.146-2.248l31.152 8.992c1.777.473 2.725 2.366 2.251 4.141l-18.715 64.363c-.592 1.775-2.369 2.722-4.146 2.248z" fill="#fff" stroke="#2c2e3e" stroke-miterlimit="10" stroke-width=".5"/><path d="m354.881 401.201-29.849-8.637c-1.303-.355-2.014-1.775-1.658-3.077l16.227-55.726c.356-1.302 1.777-2.012 3.08-1.657l29.849 8.637c1.303.355 2.014 1.775 1.658 3.077l-16.227 55.726c-.355 1.302-1.777 2.012-3.08 1.657z" fill="#fff" stroke="#2c2e3e" stroke-miterlimit="10" stroke-width=".4966"/><path d="m343.51 359.08-3.553-1.065c-.829-.236-1.185-1.065-1.066-1.775l1.066-3.549c.237-.828 1.066-1.183 1.776-1.065l3.554 1.065c.829.237 1.184 1.065 1.066 1.775l-1.066 3.549c-.237.828-1.066 1.302-1.777 1.065z" stroke="#2c2e3e" stroke-miterlimit="10" stroke-width=".5"/><path d="m363.291 355.057-20.728-6.034c-.83-.237-1.185-1.065-1.066-1.775l1.066-3.549c.236-.828 1.066-1.183 1.776-1.065l20.729 6.034c.829.237 1.184 1.065 1.066 1.775l-1.066 3.549c-.237.829-1.066 1.302-1.777 1.065z" stroke="#2c2e3e" stroke-miterlimit="10" stroke-width=".5"/><path d="m352.038 361.564-3.553-1.064c-.829-.237-1.184-1.065-1.066-1.775l1.066-3.55c.237-.828 1.066-1.183 1.777-1.064l3.553 1.064c.829.237 1.185 1.065 1.066 1.775l-1.066 3.55c-.118.828-.947 1.301-1.777 1.064z" stroke="#2c2e3e" stroke-miterlimit="10" stroke-width=".5"/><path d="m360.567 364.049-3.554-1.065c-.829-.237-1.184-1.065-1.066-1.775l1.066-3.549c.237-.828 1.066-1.183 1.777-1.065l3.554 1.065c.829.236 1.184 1.065 1.066 1.775l-1.066 3.549c-.119.828-.948 1.301-1.777 1.065z" stroke="#2c2e3e" stroke-miterlimit="10" stroke-width=".5"/><path d="m340.904 367.954-3.553-1.065c-.829-.237-1.185-1.065-1.066-1.775l1.066-3.549c.237-.829 1.066-1.184 1.777-1.065l3.553 1.065c.829.236 1.184 1.064 1.066 1.774l-1.066 3.55c-.118.828-.948 1.301-1.777 1.065z" stroke="#2c2e3e" stroke-miterlimit="10" stroke-width=".5"/><path d="m349.433 370.438-3.554-1.065c-.829-.237-1.184-1.065-1.066-1.775l1.066-3.549c.237-.828 1.066-1.183 1.777-1.065l3.553 1.065c.83.237 1.185 1.065 1.066 1.775l-1.066 3.549c-.118.828-.947 1.302-1.776 1.065z" stroke="#2c2e3e" stroke-miterlimit="10" stroke-width=".5"/><path d="m358.079 372.922-3.553-1.064c-.829-.237-1.185-1.065-1.066-1.775l1.066-3.55c.237-.828 1.066-1.183 1.777-1.065l3.553 1.065c.829.237 1.185 1.065 1.066 1.775l-1.066 3.55c-.237.828-1.066 1.301-1.777 1.064z" stroke="#2c2e3e" stroke-miterlimit="10" stroke-width=".5"/><path d="m338.298 376.827-3.553-1.065c-.829-.236-1.185-1.065-1.066-1.774l1.066-3.55c.237-.828 1.066-1.183 1.777-1.065l3.553 1.065c.829.237 1.185 1.065 1.066 1.775l-1.066 3.549c-.118.829-.947 1.183-1.777 1.065z" stroke="#2c2e3e" stroke-miterlimit="10" stroke-width=".5"/><path d="m346.945 379.312-3.553-1.065c-.829-.237-1.185-1.065-1.066-1.775l1.066-3.55c.237-.828 1.066-1.183 1.777-1.064l3.553 1.064c.829.237 1.184 1.065 1.066 1.775l-1.066 3.55c-.237.828-1.066 1.183-1.777 1.065z" stroke="#2c2e3e" stroke-miterlimit="10" stroke-width=".5"/><path d="m335.811 385.583-3.553-1.065c-.83-.237-1.185-1.065-1.066-1.775l1.066-3.55c.236-.828 1.066-1.183 1.776-1.064l3.554 1.064c.829.237 1.184 1.065 1.066 1.775l-1.066 3.55c-.237.828-1.066 1.301-1.777 1.065z" stroke="#2c2e3e" stroke-miterlimit="10" stroke-width=".5"/><path d="m344.339 388.067-3.553-1.064c-.829-.237-1.185-1.065-1.066-1.775l1.066-3.55c.237-.828 1.066-1.183 1.777-1.065l3.553 1.065c.829.237 1.185 1.065 1.066 1.775l-1.066 3.55c-.118.828-.948 1.301-1.777 1.064z" stroke="#2c2e3e" stroke-miterlimit="10" stroke-width=".5"/><path d="m355.474 381.796-3.554-1.065c-.829-.237-1.184-1.065-1.066-1.775l1.066-3.549c.237-.828 1.066-1.183 1.777-1.065l3.553 1.065c.829.237 1.185 1.065 1.066 1.775l-1.066 3.549c-.118.828-.947 1.183-1.776 1.065z" stroke="#2c2e3e" stroke-miterlimit="10" stroke-width=".5"/><path d="m338.654 404.395c1.701 0 3.079-1.378 3.079-3.077s-1.378-3.076-3.079-3.076-3.08 1.377-3.08 3.076 1.379 3.077 3.08 3.077z" stroke="#2c2e3e" stroke-miterlimit="10" stroke-width=".5"/></symbol><symbol id="icon-star-red" viewBox="0 0 18 18"><path d="m8.07668.719931c.34159-.821293 1.50505-.821295 1.84664-.000002l1.75168 4.211471c.144.34624.4696.58281.8434.61278l4.5466.3645c.8867.07108 1.2462 1.17759.5707 1.75626l-3.4641 2.96736c-.2848.2439-.4092.6267-.3221.9915l1.0583 4.4367c.2064.8652-.7349 1.5491-1.494 1.0854l-3.89255-2.3775c-.32001-.1955-.72249-.1955-1.0425 0l-3.89256 2.3775c-.7591.4637-1.70036-.2202-1.49397-1.0854l1.05833-4.4367c.08701-.3648-.03737-.7476-.32215-.9915l-3.464064-2.96736c-.675537-.57867-.3160126-1.68518.570642-1.75626l4.546642-.3645c.37379-.02997.6994-.26654.84341-.61277z" fill="#ff2d23"/></symbol><symbol id="icon-star" viewBox="0 0 18 18"><path d="m8.07668.719931c.34159-.821293 1.50505-.821295 1.84664-.000002l1.75168 4.211471c.144.34624.4696.58281.8434.61278l4.5466.3645c.8867.07108 1.2462 1.17759.5707 1.75626l-3.4641 2.96736c-.2848.2439-.4092.6267-.3221.9915l1.0583 4.4367c.2064.8652-.7349 1.5491-1.494 1.0854l-3.89255-2.3775c-.32001-.1955-.72249-.1955-1.0425 0l-3.89256 2.3775c-.7591.4637-1.70036-.2202-1.49397-1.0854l1.05833-4.4367c.08701-.3648-.03737-.7476-.32215-.9915l-3.464064-2.96736c-.675537-.57867-.3160126-1.68518.570642-1.75626l4.546642-.3645c.37379-.02997.6994-.26654.84341-.61277z" fill="#fff"/></symbol></svg>