<svg fill="none" height="9" viewBox="0 0 14 9" width="14" xmlns="http://www.w3.org/2000/svg"><path d="m13.7099 7.79002c-.093.09373-.2036.16812-.3254.21889-.1219.05077-.2526.07691-.3846.07691s-.2627-.02614-.3846-.07691-.2325-.12516-.3254-.21889l-4.58002-4.57999c-.09297-.09373-.20357-.16813-.32543-.21889-.12185-.05077-.25256-.07691-.38457-.07691s-.26272.02614-.38458.07691c-.12186.05076-.23246.12516-.32542.21889l-4.58 4.57999c-.09297.09373-.20357.16812-.32543.21889s-.25256.07691-.384573.07691c-.132012 0-.262718-.02614-.384577-.07691s-.23246-.12516-.325423-.21889c-.186251-.18736-.29079253-.44082-.29079253-.705 0-.26419.10454153-.51764.29079253-.705l4.590003-4.58999c.5625-.5618 1.32499-.877359 2.12-.877359.795 0 1.5575.315559 2.12.877359l4.59002 4.58999c.1862.18736.2908.44081.2908.705 0 .26418-.1046.51764-.2908.705z" fill="#0c0c0c"/></svg>