<svg xmlns="http://www.w3.org/2000/svg" xmlns:xlink="http://www.w3.org/1999/xlink"><symbol id="icon-arrow" viewBox="0 0 14 9"><path d="m13.7099 7.79002c-.093.09373-.2036.16812-.3254.21889-.1219.05077-.2526.07691-.3846.07691s-.2627-.02614-.3846-.07691-.2325-.12516-.3254-.21889l-4.58002-4.57999c-.09297-.09373-.20357-.16813-.32543-.21889-.12185-.05077-.25256-.07691-.38457-.07691s-.26272.02614-.38458.07691c-.12186.05076-.23246.12516-.32542.21889l-4.58 4.57999c-.09297.09373-.20357.16812-.32543.21889s-.25256.07691-.384573.07691c-.132012 0-.262718-.02614-.384577-.07691s-.23246-.12516-.325423-.21889c-.186251-.18736-.29079253-.44082-.29079253-.705 0-.26419.10454153-.51764.29079253-.705l4.590003-4.58999c.5625-.5618 1.32499-.877359 2.12-.877359.795 0 1.5575.315559 2.12.877359l4.59002 4.58999c.1862.18736.2908.44081.2908.705 0 .26418-.1046.51764-.2908.705z" fill="#0c0c0c"/></symbol><symbol id="icon-bike" viewBox="0 0 20 18"><path d="m16.4859 9.06591c-.1367-.48833-.2908-1.005-.4625-1.56083-.5084-1.40148-.8518-2.8574-1.0233-4.33833 0-.22102.0878-.43298.2441-.58926.1562-.15628.3682-.24408.5892-.24408s.433.0878.5893.24408c.1562.15628.244.36824.244.58926 0 .22101.0878.43297.2441.58925s.3683.24408.5893.24408.433-.0878.5892-.24408c.1563-.15628.2441-.36824.2441-.58925 0-.66304-.2634-1.29893-.7322-1.76777-.4689-.46884-1.1048-.732232-1.7678-.732232s-1.2989.263392-1.7678.732232c-.4688.46884-.7322 1.10473-.7322 1.76777.0207.63633.1098 1.26859.2658 1.88583l-3.99996 3.11417-4.62333-3.33334h2.52416c.22102 0 .43298-.08779.58926-.24407s.24408-.36825.24408-.58926-.0878-.43297-.24408-.58925-.36824-.24408-.58926-.24408h-2.52416c-.3462-.00011-.68356.10929-.96381.31254-.28025.20324-.48904.48992-.59649.81902s-.10805.68375-.00173 1.01321c.10633.32947.31414.61686.59369.82106l4.22584 3.09333-1.19833.93249c-.74435-.70079-1.72225-1.10049-2.74437-1.12168-1.02212-.0212-2.01574.33762-2.7885 1.00698-.772752.6693-1.269661 1.6016-1.394515 2.6163-.1248538 1.0147.131229 2.0396.718667 2.8763s1.464438 1.4257 2.461208 1.6529c.99677.2273 2.04239.0766 2.93443-.4229.89203-.4995 1.56701-1.3121 1.89425-2.2807.32725-.9685.28347-2.0241-.12284-2.9622l6.07419-4.72415c.1175.39666.6058 1.98666.7133 2.3525-.9961.26007-1.8604.88005-2.426 1.74025s-.7923 1.8995-.6363 2.917c.156 1.0176.6836 1.9413 1.4809 2.5925.7973.6513 1.8077.9839 2.8359.9336 1.0282-.0502 2.0014-.4798 2.7313-1.2057.73-.7259 1.165-1.6966 1.2211-2.7245.056-1.028-.271-2.0402-.9178-2.8411-.6467-.80091-1.5674-1.33369-2.5841-1.49539zm-12.31916 6.60079c-.49445 0-.9778-.1466-1.38892-.4213-.41113-.2747-.73156-.6651-.92078-1.1219-.18922-.4569-.23872-.9595-.14226-1.4445.09646-.4849.33456-.9304.68419-1.28.34964-.3497.79509-.5878 1.28005-.6842.48495-.0965.98761-.047 1.44443.1422.45682.1893.84726.5097 1.12197.9208.2747.4111.42132.8945.42132 1.3889 0 .6631-.26339 1.299-.73223 1.7678-.46884.4689-1.10473.7322-1.76777.7322zm11.66666 0c-.4944 0-.9778-.1466-1.3889-.4213s-.7316-.6651-.9208-1.1219c-.1892-.4569-.2387-.9595-.1423-1.4445.0965-.4849.3346-.9304.6842-1.28.3497-.3497.7951-.5878 1.2801-.6842.4849-.0965.9876-.047 1.4444.1422.4568.1893.8473.5097 1.122.9208s.4213.8945.4213 1.3889c0 .6631-.2634 1.299-.7322 1.7678-.4689.4689-1.1048.7322-1.7678.7322z" fill="#3922c5"/></symbol></svg>