<svg fill="none" height="44" viewBox="5 5 47 47" width="44"
    xmlns="http://www.w3.org/2000/svg"
    xmlns:xlink="http://www.w3.org/1999/xlink">
    <filter id="a" color-interpolation-filters="sRGB" filterUnits="userSpaceOnUse" height="68" width="68" x="0" y="0">
        <feFlood flood-opacity="0" result="BackgroundImageFix"/>
        <feColorMatrix in="SourceAlpha" type="matrix" values="0 0 0 0 0 0 0 0 0 0 0 0 0 0 0 0 0 0 127 0"/>
        <feOffset dx="4" dy="6"/>
        <feGaussianBlur stdDeviation="6"/>
        <feColorMatrix type="matrix" values="0 0 0 0 0.223529 0 0 0 0 0.490196 0 0 0 0 1 0 0 0 0.12 0"/>
        <feBlend in2="BackgroundImageFix" mode="normal" result="effect1_dropShadow"/>
        <feBlend in="SourceGraphic" in2="effect1_dropShadow" mode="normal" result="shape"/>
    </filter>
    <clipPath id="b">
        <path d="m16 14h28v28h-28z"/>
    </clipPath>
    <g filter="url(#a)">
        <rect fill="#397dff" height="44" rx="8" width="44" x="8" y="6"/>
    </g>
    <g clip-path="url(#b)" fill="#fff">
        <path d="m41.4546 14h-22.9091c-1.4039 0-2.5455 1.1416-2.5455 2.5455v22.9091c0 1.4038 1.1416 2.5455 2.5455 2.5455h22.9091c1.4038 0 2.5455-1.1416 2.5455-2.5455v-22.9091c-.0001-1.4039-1.1417-2.5455-2.5455-2.5455zm1.2727 25.4546c0 .7016-.5711 1.2727-1.2727 1.2727h-22.9091c-.7016 0-1.2727-.5711-1.2727-1.2727v-22.9091c0-.7016.5711-1.2727 1.2727-1.2727h22.9091c.7016 0 1.2727.5711 1.2727 1.2727z"/>
        <path d="m31.9096 29.271h-1.2727v-10.8182c0-.3518-.2846-.6364-.6363-.6364-.3518 0-.6364.2846-.6364.6364v10.8182h-1.2727c-.3518 0-.6364.2846-.6364.6363v2.5455c0 .3518.2846.6364.6364.6364h1.2727v4.4546c0 .3517.2846.6364.6364.6364.3517 0 .6363-.2847.6363-.6364v-4.4547h1.2727c.3518 0 .6364-.2846.6364-.6363v-2.5455c0-.3517-.2847-.6363-.6364-.6363zm-.6363 2.5454h-2.5455v-1.2727h2.5455z"/>
        <path d="m39.5464 22.9073h-1.2727v-4.4545c0-.3518-.2847-.6364-.6364-.6364-.3518 0-.6364.2846-.6364.6364v4.4546h-1.2727c-.3518 0-.6364.2846-.6364.6363v2.5455c0 .3518.2846.6364.6364.6364h1.2727v10.8182c0 .3517.2846.6364.6364.6364.3517 0 .6364-.2847.6364-.6364v-10.8183h1.2727c.3517 0 .6363-.2846.6363-.6364v-2.5454c0-.3518-.2846-.6364-.6363-.6364zm-.6364 2.5455h-2.5455v-1.2727h2.5455z"/>
        <path d="m24.2729 21.6346h-1.2727v-3.1818c0-.3518-.2846-.6364-.6364-.6364-.3517 0-.6363.2846-.6363.6364v3.1818h-1.2728c-.3517 0-.6363.2846-.6363.6364v2.5455c0 .3516.2846.6363.6363.6363h1.2728v12.0909c0 .3518.2846.6364.6363.6364.3518 0 .6364-.2846.6364-.6364v-12.0909h1.2727c.3518 0 .6364-.2847.6364-.6364v-2.5455c0-.3517-.2847-.6363-.6364-.6363zm-.6364 2.5455h-2.5454v-1.2727h2.5454z"/>
    </g>
</svg>