<svg fill="none" height="24" viewBox="0 0 24 24" width="24"
    xmlns="http://www.w3.org/2000/svg"
    xmlns:xlink="http://www.w3.org/1999/xlink">
    <clipPath id="a">
        <path d="m0 0h24v24h-24z"/>
    </clipPath>
    <g clip-path="url(#a)">
        <path d="m23.4 10.392c-.0007-.0006-.0012-.0013-.0018-.0018l-9.7901-9.789796c-.4173-.417481-.9721-.647279-1.5623-.647279-.5901 0-1.1449.229798-1.5624.647279l-9.78501 9.784796c-.003296.0033-.006775.0068-.009888.0101-.856935.8619-.85547 2.2602.004212 3.1199.392766.393.911316.6204 1.465946.6444.0227.0022.04541.0033.0683.0033h.39001v7.2045c0 1.4258 1.16016 2.5858 2.58601 2.5858h3.8302c.38837 0 .70313-.315.70313-.7032v-5.6484c0-.6506.52939-1.1798 1.17989-1.1798h2.2592c.6506 0 1.1798.5292 1.1798 1.1798v5.6484c0 .3882.3147.7032.7031.7032h3.8302c1.426 0 2.586-1.16 2.586-2.5858v-7.2045h.3618c.59 0 1.1448-.2298 1.5625-.6475.8605-.861.8609-2.2619.0012-3.1234zm-.9957 2.1291c-.1518.1518-.3536.2355-.568.2355h-1.0649c-.3884 0-.7032.3148-.7032.7031v7.9077c0 .6503-.5291 1.1795-1.1797 1.1795h-3.1271v-4.9453c0-1.4258-1.16-2.586-2.586-2.586h-2.2592c-1.42598 0-2.58614 1.1602-2.58614 2.586v4.9453h-3.12708c-.65039 0-1.17975-.5292-1.17975-1.1795v-7.9077c0-.3883-.31476-.7031-.70313-.7031h-1.04663c-.01099-.0007-.02179-.0013-.03296-.0014-.20948-.0037-.40595-.0868-.55317-.2342-.31311-.3131-.31311-.8227 0-1.136.00019 0 .00019-.0002.00037-.0004l.00055-.0005 9.78974-9.78943c.1516-.1518.3532-.23529.5678-.23529.2144 0 .416.08349.5678.23529l9.7876 9.78733c.0015.0015.0031.003.0046.0044.3114.3137.3109.8222-.0015 1.1347z" fill="#397dff"/>
    </g>
</svg>