<svg fill="none" height="24" viewBox="0 0 24 24" width="24" xmlns="http://www.w3.org/2000/svg"><path d="m22 16.9201v3c.0011.2785-.0559.5542-.1675.8093-.1116.2552-.2752.4843-.4804.6726-.2053.1882-.4475.3316-.7114.4208-.2638.0892-.5433.1224-.8207.0973-3.0772-.3344-6.033-1.3859-8.63-3.07-2.41618-1.5353-4.46467-3.5838-6.00001-6-1.69002-2.6088-2.74175-5.57901-3.07-8.67-.02499-.27654.00788-.55524.0965-.81838.08863-.26313.23107-.50493.41827-.71s.41504-.36891.66903-.4811c.25398-.11219.52854-.17026.8062-.17052h3c.48531-.00478.9558.16708 1.32377.48353s.60831.75591.67623 1.23647c.12663.96006.36145 1.90272.7 2.81.13455.35792.16367.74691.08391 1.12088-.07975.37396-.26504.71723-.53391.98912l-1.27 1.27c1.42356 2.5035 3.49641 4.5764 6.00001 6l1.27-1.27c.2719-.2689.6151-.4542.9891-.5339.374-.0798.763-.0506 1.1209.0839.9073.3385 1.8499.5734 2.81.7.4858.0685.9294.3132 1.2465.6875.3172.3743.4857.8521.4735 1.3425z" stroke="#397dff" stroke-linecap="round" stroke-linejoin="round"/></svg>