<svg fill="none" height="24" viewBox="0 0 24 24" width="24"
    xmlns="http://www.w3.org/2000/svg">
    <g fill="#2b2d3a">
        <path d="m13.7143 22.7143h-3.4286c-.79999 0-1.71427-.6857-1.71427-2.0571v-2.4c0-1.1429-.57143-2.1715-1.48572-2.9715-2.05714-1.6-3.08571-3.8857-3.08571-6.39997.11429-4.34287 3.65714-7.77144 7.8857-7.88573 2.1714 0 4.2286.8 5.7143 2.28572 1.4857 1.48571 2.4 3.54286 2.4 5.71429 0 2.39999-1.0286 4.68569-2.9714 6.17149-1.0286.8-1.6 2.0571-1.6 3.2v2.6285c0 .9143-.8 1.7143-1.7143 1.7143zm-1.7143-20.57144c-3.65714 0-6.74286 3.08572-6.85714 6.74287 0 2.17147.91428 4.22857 2.62857 5.48577 1.25714 1.0285 1.94286 2.4 1.94286 3.8857v2.4c0 .2285 0 .9143.57141.9143h3.4286c.3428 0 .5714-.2286.5714-.5715v-2.6285c0-1.4858.8-3.0858 2.0572-4.1143 1.6-1.2572 2.5142-3.2 2.5142-5.25719 0-1.82857-.6857-3.54286-2.0571-4.91429-1.2571-1.25715-2.9714-1.94286-4.8-1.94286z"/>
        <path d="m14.8572 19.2857h-5.71424c-.34286 0-.57143-.2286-.57143-.5715 0-.3428.22857-.5714.57143-.5714h5.71424c.3429 0 .5715.2286.5715.5714 0 .3429-.2286.5715-.5715.5715z"/>
    </g>
</svg>