<svg fill="none" height="24" viewBox="0 0 24 24" width="24"
    xmlns="http://www.w3.org/2000/svg">
    <g stroke="#2b2d3a" stroke-linecap="round" stroke-linejoin="round">
        <path d="m20 10.6667c0 6.2223-8 11.5556-8 11.5556s-8-5.3333-8-11.5556c0-2.12168.84285-4.15652 2.34315-5.65681 1.50029-1.50029 3.53512-2.34314 5.65685-2.34314 2.1217 0 4.1566.84285 5.6569 2.34314 1.5002 1.50029 2.3431 3.53513 2.3431 5.65681z"/>
        <path d="m11.9999 13.3333c1.4728 0 2.6667-1.1939 2.6667-2.6666 0-1.47279-1.1939-2.6667-2.6667-2.6667-1.4727 0-2.66665 1.19391-2.66665 2.6667 0 1.4727 1.19395 2.6666 2.66665 2.6666z"/>
    </g>
</svg>