<svg fill="none" height="24" viewBox="0 0 24 24" width="24"
    xmlns="http://www.w3.org/2000/svg">
    <path d="m16.122 4.12212c-1.4536-.0053-2.8859.40318-4.122 1.16711-1.2361-.76393-2.66844-1.17241-4.12202-1.16711-4.34482 0-7.87798 3.53316-7.87798 7.87798 0 4.3448 3.53316 7.878 7.87798 7.878 1.45358.0053 2.88592-.4032 4.12202-1.1671 1.2361.7639 2.6684 1.1724 4.122 1.1671 4.3448 0 7.878-3.5332 7.878-7.878 0-4.34482-3.5332-7.87798-7.878-7.87798zm-8.24402 14.70028c-3.76657 0-6.82228-3.0557-6.82228-6.817 0-3.76126 3.05571-6.82227 6.82228-6.82227 1.10876 0 2.20162.26525 3.17772.78515-3.33156 2.79575-3.76658 7.76122-.9708 11.09282.2971.3501.6207.6738.9708.9708-.9761.5199-2.06896.7905-3.17772.7905zm4.12202-1.3952c-2.99735-2.2759-3.58621-6.5518-1.3103-9.54911.3766-.49337.8169-.93369 1.3103-1.31035 2.9973 2.27587 3.5862 6.55176 1.3103 9.54906-.3766.4987-.8169.939-1.3103 1.3104zm4.122 1.3899c-1.1087 0-2.2016-.2653-3.1777-.7852 3.3316-2.7957 3.7666-7.7612.9708-11.0928-.2971-.35014-.6207-.67374-.9708-.97082.9814-.5199 2.069-.79046 3.1777-.78515 3.7666 0 6.817 3.0557 6.817 6.82227 0 3.7666-3.0504 6.817-6.817 6.8117z" fill="#2b2d3a"/>
</svg>