<svg fill="none" height="24" viewBox="0 0 24 24" width="24"
    xmlns="http://www.w3.org/2000/svg"
    xmlns:xlink="http://www.w3.org/1999/xlink">
    <clipPath id="a">
        <path d="m0 0h24v24h-24z"/>
    </clipPath>
    <g clip-path="url(#a)">
        <path d="m24 12.0001c0-.5706-.3026-1.0905-.8107-1.392l-1.3364-.7862c.5148-.30569.9736-.57835 1.3375-.79486.5071-.30257.8096-.82248.8096-1.39086s-.3026-1.08828-.8096-1.39142c-1.6705-.99348-7.3349-4.35963-10.1272-5.960357-.6467-.3713016-1.4329-.386182-2.1318.003221 0 0-7.59373 4.460326-10.120735 5.956676-.508091.30145-.810665.82135-.810665 1.39188 0 .56838.302574 1.08829.809643 1.39142.363837.21636.822527.48897 1.337217.79451l-1.336143.78599c-.508143.3015-.810717.8214-.810717 1.392 0 .5683.302574 1.0882.809643 1.3914.363837.2163.822527.4889 1.337217.7945l-1.336143.786c-.508143.3015-.810717.8214-.810717 1.3919 0 .5684.302574 1.0883.809643 1.3915 2.161587 1.2853 7.474457 4.4395 10.127157 5.9603.3249.1865.6936.285 1.0632.285.3697 0 .7383-.0985 1.0643-.2855 2.6517-1.5204 7.9645-4.6745 10.1261-5.9604.5071-.3026.8097-.8225.8097-1.3909 0-.5705-.3026-1.0904-.8108-1.3919l-1.3364-.7862c.5149-.3057.9736-.5784 1.3375-.7949.5071-.3026.8096-.8225.8096-1.3908zm-22.6321-3.90865c-.0831-.05006-.27701-.19391-.27701-.45435 0-.26156.19284-.40428.27593-.45332 2.52379-1.49467 10.10688-5.94834 10.10588-5.94783.3473-.1955.7265-.18803 1.0483-.00373 2.7847 1.59642 8.4439 4.95864 10.1111 5.95048.0831.05007.277.19391.277.45435s-.1939.40428-.277.45384c-2.1584 1.28372-7.4648 4.43451-10.1101 5.95051-.3281.1875-.717.1869-1.043.0005-2.64626-1.5165-7.95274-4.66724-10.1111-5.95045zm21.2653 7.81955c.0831.049.2759.1918.2759.4533 0 .2605-.1939.4043-.277.4539-2.1584 1.2837-7.4648 4.4345-10.1101 5.9505-.3281.1875-.717.1869-1.043.0005-2.64626-1.5165-7.95274-4.6673-10.1111-5.9505-.0831-.0501-.27701-.1939-.27701-.4544 0-.2615.19284-.4042.27593-.4533l1.85109-1.0892c2.502 1.483 5.80245 3.4316 7.71889 4.5302.3249.1865.6936.285 1.0632.285.3697 0 .7383-.0985 1.0643-.2855 1.9156-1.0983 5.2158-3.0466 7.7177-4.5298zm-.0011-3.4564c-2.1584 1.2837-7.4648 4.4345-10.1101 5.9504-.3281.1876-.717.187-1.043.0006-2.64626-1.5166-7.95274-4.6673-10.1111-5.9505-.0831-.0501-.27701-.1939-.27701-.4544 0-.2615.19284-.4043.27593-.4533l1.85109-1.0893c2.502 1.4831 5.80245 3.4317 7.71889 4.5303.3249.1865.6936.285 1.0632.285.3697 0 .7383-.0985 1.0643-.2855 1.9156-1.0983 5.2158-3.0466 7.7177-4.5298l1.8512 1.0893c.0831.049.276.1918.276.4533-.0001.2605-.194.4043-.2771.4539z" fill="#2b2d3a"/>
    </g>
</svg>