<svg fill="none" height="16" width="112" xmlns="http://www.w3.org/2000/svg"><path d="m13.1 15h-3.02v-11.76h-3.5l-.26 2c-.08.72-.173 1.453-.28 2.2a66.245 66.245 0 0 1 -.3 2.1 39.205 39.205 0 0 1 -.32 1.74c-.173.827-.407 1.533-.7 2.12-.28.587-.673 1.033-1.18 1.34-.493.307-1.14.46-1.94.46-.52 0-1-.073-1.44-.22v-2.48c.173.053.34.1.5.14.173.04.36.06.56.06.387 0 .68-.2.88-.6.213-.413.427-1.18.64-2.3.08-.427.193-1.093.34-2s.307-1.967.48-3.18c.187-1.227.36-2.527.52-3.9h9.02zm3.602-14.28h2.72v6.9c0 .333-.006.707-.02 1.12l-.04 1.22c-.013.387-.026.727-.04 1.02-.013.28-.026.473-.04.58h.06l6.6-10.84h3.62v14.28h-2.7v-6.86c0-.36.007-.753.02-1.18l.04-1.26c.027-.4.047-.747.06-1.04.027-.307.047-.507.06-.6h-.08l-6.62 10.94h-3.64zm25.485 0v2.5h-6v11.78h-3.02v-14.28zm9.525 14.28-1.04-3.4h-5.2l-1.04 3.4h-3.26l5.04-14.34h3.7l5.06 14.34zm-1.76-5.94-1.04-3.32a76.767 76.767 0 0 0 -.26-.86c-.107-.347-.214-.7-.32-1.06-.107-.36-.194-.673-.26-.94-.067.267-.16.6-.28 1-.107.387-.214.76-.32 1.12-.093.347-.167.593-.22.74l-1.02 3.32zm12.551 5.94v-14.28h9.02v2.5h-6v2.98h1.2c1.347 0 2.447.187 3.3.56.867.373 1.507.887 1.92 1.54s.62 1.4.62 2.24c0 1.413-.473 2.513-1.42 3.3-.933.773-2.427 1.16-4.48 1.16zm3.02-2.48h1.02c.92 0 1.64-.147 2.16-.44.534-.293.8-.807.8-1.54 0-.76-.287-1.26-.86-1.5s-1.353-.36-2.34-.36h-.78zm13.974-8.66c1.467 0 2.587.32 3.36.96.787.627 1.18 1.593 1.18 2.9v7.28h-2.08l-.58-1.48h-.08c-.467.587-.96 1.013-1.48 1.28s-1.233.4-2.14.4c-.973 0-1.78-.28-2.42-.84-.64-.573-.96-1.447-.96-2.62 0-1.16.407-2.013 1.22-2.56.813-.56 2.033-.867 3.66-.92l1.9-.06v-.48c0-.573-.153-.993-.46-1.26-.293-.267-.707-.4-1.24-.4a5.15 5.15 0 0 0 -1.56.24 11.67 11.67 0 0 0 -1.52.56l-.98-2.02a8.587 8.587 0 0 1 1.94-.72 9.538 9.538 0 0 1 2.24-.26zm1.58 6.08-1.16.04c-.96.027-1.627.2-2 .52s-.56.74-.56 1.26c0 .453.133.78.4.98.267.187.613.28 1.04.28.64 0 1.18-.187 1.62-.56.44-.387.66-.927.66-1.62zm8.99-5.86v4.2h4.16v-4.2h2.98v10.92h-2.98v-4.5h-4.16v4.5h-2.98v-10.92zm17.423 0h3.28l-4.32 5.24 4.7 5.68h-3.38l-4.46-5.54v5.54h-2.98v-10.92h2.98v5.3z" fill="#1f1e25"/></svg>