<svg fill="none" height="32" viewBox="0 0 154 32" width="154" xmlns="http://www.w3.org/2000/svg"><g fill="#2b2d3a"><path d="m54 9.12646h5.8583c1.5211 0 2.8641.31602 4.0289.94804 1.1648.618 2.0692 1.4888 2.7133 2.6124.6441 1.1095.9661 2.3806.9661 3.8132s-.322 2.7107-.9661 3.8343c-.6441 1.1095-1.5485 1.9803-2.7133 2.6123-1.1648.618-2.5078.927-4.0289.927h-5.8583zm5.7761 13.39894c1.2607 0 2.3639-.2528 3.3094-.7584.9456-.5197 1.6787-1.229 2.1994-2.1279.5208-.9129.7811-1.9592.7811-3.139s-.2603-2.2191-.7811-3.118c-.5207-.9129-1.2538-1.6222-2.1994-2.1278-.9455-.5196-2.0487-.7795-3.3094-.7795h-4.255v12.0506z"/><path d="m72.8395 24.0001c-.8222 0-1.5827-.1826-2.2816-.5478-.6989-.3651-1.2676-.8848-1.7061-1.5589l.9044-1.0534c.7948 1.2079 1.8295 1.8118 3.1039 1.8118 1.7815 0 2.6722-1.0815 2.6722-3.2444v-8.9326h-5.2622v-1.34834h6.7628v10.21774c0 1.5449-.3563 2.7107-1.0689 3.4972-.6989.7725-1.7404 1.1587-3.1245 1.1587z"/><path d="m86.1795 24c-1.0688 0-2.0966-.1756-3.0833-.5267-.9729-.3511-1.7266-.8146-2.2611-1.3904l.5961-1.2009c.5208.5337 1.2128.9691 2.0761 1.3062.8634.323 1.7541.4846 2.6722.4846 1.2882 0 2.2543-.2388 2.8984-.7163.644-.4916.9661-1.1236.9661-1.8961 0-.5899-.1782-1.0604-.5345-1.4115-.3426-.3511-.7674-.618-1.2744-.8006-.507-.1966-1.2128-.4073-2.1172-.632-1.0826-.2809-1.9459-.5478-2.59-.8006-.6441-.2668-1.1991-.6671-1.665-1.2008-.4522-.5337-.6783-1.257-.6783-2.17 0-.7443.1918-1.4185.5755-2.0224.3837-.618.973-1.10958 1.7678-1.47475s1.7815-.54775 2.96-.54775c.8222 0 1.6239.11938 2.405.35815.7948.22472 1.48.54073 2.0555.94805l-.5139 1.243c-.6029-.4073-1.247-.7093-1.9322-.9059-.6852-.2107-1.3566-.3161-2.0144-.3161-1.2608 0-2.2132.2529-2.8572.7585-.6304.4915-.9456 1.1306-.9456 1.9171 0 .5899.1713 1.0674.5139 1.4326.3563.3511.7948.625 1.3156.8216.5344.1826 1.247.3863 2.1377.611 1.0552.2668 1.9048.5337 2.5489.8005.6578.2528 1.2128.6461 1.665 1.1798.4522.5197.6783 1.2289.6783 2.1278 0 .7444-.1987 1.4256-.5961 2.0436-.3837.6039-.9798 1.0884-1.7883 1.4536-.8085.3511-1.802.5267-2.9806.5267z"/><path d="m98.0702 10.4748h-5.0566v-1.34834h11.6344v1.34834h-5.0567v13.3989h-1.5211z"/><path d="m113.784 24c-1.425 0-2.72-.323-3.885-.9691-1.151-.6601-2.056-1.559-2.713-2.6966-.644-1.1377-.967-2.4158-.967-3.8343s.323-2.6966.967-3.8343c.657-1.1376 1.562-2.0295 2.713-2.67553 1.165-.66011 2.46-.99017 3.885-.99017s2.706.32303 3.844.9691c1.151.6461 2.055 1.5449 2.713 2.6966.658 1.1377.987 2.4158.987 3.8343s-.329 2.7037-.987 3.8553c-.658 1.1377-1.562 2.0295-2.713 2.6756-1.138.6461-2.419.9691-3.844.9691zm0-1.3904c1.137 0 2.165-.2599 3.083-.7795.918-.5338 1.638-1.2641 2.159-2.1911.52-.941.781-1.9873.781-3.139s-.261-2.191-.781-3.118c-.521-.941-1.241-1.6713-2.159-2.191-.918-.5337-1.946-.8006-3.083-.8006-1.138 0-2.172.2669-3.104.8006-.918.5197-1.644 1.25-2.179 2.191-.521.927-.781 1.9663-.781 3.118s.26 2.198.781 3.139c.535.927 1.261 1.6573 2.179 2.1911.932.5196 1.966.7795 3.104.7795z"/><path d="m135.179 23.8737-3.288-4.7402c-.37.0422-.754.0632-1.152.0632h-3.864v4.677h-1.521v-14.74724h5.385c1.837 0 3.276.44944 4.317 1.34834 1.042.8989 1.562 2.1349 1.562 3.7079 0 1.1517-.288 2.1278-.863 2.9284-.562.7865-1.37 1.3553-2.426 1.7064l3.515 5.0562zm-4.481-6.0042c1.425 0 2.515-.3231 3.269-.9691.753-.6461 1.13-1.552 1.13-2.7177 0-1.1938-.377-2.1068-1.13-2.7388-.754-.646-1.844-.9691-3.269-.9691h-3.823v7.3947z"/><path d="m151 22.5254v1.3483h-10.175v-14.74724h9.867v1.34834h-8.346v5.2458h7.441v1.3273h-7.441v5.4775z"/></g><path d="m45 6h-40c-1.65685 0-3 1.34315-3 3v14c0 1.6569 1.34315 3 3 3h40c1.6569 0 3-1.3431 3-3v-14c0-1.65685-1.3431-3-3-3z" fill="#397dff"/><path d="m15.5791 12.0559c.9042 0 1.6132.2353 2.127.7059.5138.4631.7706 1.1092.7706 1.9384 0 .8216-.2568 1.4678-.7706 1.9384-.5138.4631-1.2228.6946-2.127.6946h-2.0551v2.5659h-.524v-7.8432zm0 4.7619c.7672 0 1.3529-.183 1.7571-.549.4041-.366.6062-.8889.6062-1.5686 0-.6798-.2021-1.2026-.6062-1.5686-.4042-.3735-.9899-.5603-1.7571-.5603h-2.0551v4.2465z" fill="#fff"/><path d="m25.0332 19.8991-1.716-2.6219c-.2534.0374-.4863.056-.6987.056h-2.0551v2.5659h-.524v-7.8432h2.5791c.9042 0 1.6132.2353 2.127.7059.5138.4631.7706 1.1092.7706 1.9384 0 .62-.1472 1.1428-.4418 1.5686-.2877.4183-.7022.7134-1.2433.8852l1.7982 2.7451zm-2.4147-3.0701c.7672 0 1.3529-.183 1.7571-.549.4041-.3735.6062-.9001.6062-1.5798 0-.6798-.2021-1.2026-.6062-1.5686-.4042-.3735-.9899-.5603-1.7571-.5603h-2.0551v4.2577z" fill="#fff"/><path d="m30.2811 19.9552c-.7056 0-1.3427-.1718-1.9112-.5154-.5686-.3511-1.0173-.8292-1.3461-1.4342-.322-.605-.4829-1.281-.4829-2.028s.1609-1.423.4829-2.028c.3288-.6051.7775-1.0794 1.3461-1.423.5685-.3511 1.2056-.5266 1.9112-.5266.7055 0 1.3426.1718 1.9112.5154.5685.3436 1.0138.8179 1.3358 1.423.3288.605.4932 1.2848.4932 2.0392s-.1644 1.4342-.4932 2.0392c-.322.605-.7673 1.0794-1.3358 1.423-.5686.3436-1.2057.5154-1.9112.5154zm0-.5266c.6028 0 1.1474-.1494 1.6337-.4482.4864-.2988.87-.7096 1.1509-1.2325.2808-.5303.4213-1.1204.4213-1.7703s-.1405-1.2362-.4213-1.7591c-.2809-.5304-.6645-.9449-1.1509-1.2437-.4863-.2988-1.0309-.4482-1.6337-.4482s-1.1509.1494-1.6441.4482c-.4863.2988-.87.7133-1.1508 1.2437-.2809.5229-.4213 1.1092-.4213 1.7591s.1404 1.24.4213 1.7703c.2808.5229.6645.9337 1.1508 1.2325.4932.2988 1.0413.4482 1.6441.4482z" fill="#fff"/><path d="m35.8286 20c-.3288 0-.6062-.1195-.8323-.3585-.226-.2391-.3391-.5416-.3391-.9076 0-.3735.1096-.676.3288-.9076.2261-.2315.507-.3473.8426-.3473.3425 0 .6234.1158.8426.3473.2192.2316.3288.5341.3288.9076 0 .366-.113.6685-.3391.9076-.2192.239-.4966.3585-.8323.3585z" fill="#fff"/></svg>